<svg xmlns="http://www.w3.org/2000/svg" xmlns:xlink="http://www.w3.org/1999/xlink" contentStyleType="text/css" data-diagram-type="SEQUENCE" height="1818px" preserveAspectRatio="none" style="width:988px;height:1818px;background:#FFFFFF;" version="1.1" viewBox="0 0 988 1818" width="988px" zoomAndPan="magnify"><defs/><g><rect fill="#FFFFFF" height="447.125" style="stroke:#181818;stroke-width:1;" width="10" x="79.5498" y="155.5625"/><rect fill="#FFFFFF" height="354.3984" style="stroke:#181818;stroke-width:1;" width="10" x="79.5498" y="843.5547"/><rect fill="#FFFFFF" height="447.125" style="stroke:#181818;stroke-width:1;" width="10" x="284.7271" y="155.5625"/><rect fill="#FFFFFF" height="383.5313" style="stroke:#181818;stroke-width:1;" width="10" x="284.7271" y="814.4219"/><rect fill="#FFFFFF" height="29.1328" style="stroke:#181818;stroke-width:1;" width="10" x="488.8188" y="184.6953"/><rect fill="#FFFFFF" height="542.3281" style="stroke:#181818;stroke-width:1;" width="10" x="488.8188" y="272.0938"/><rect fill="#FFFFFF" height="267" style="stroke:#181818;stroke-width:1;" width="10" x="488.8188" y="901.8203"/><rect fill="#FFFFFF" height="216.9297" style="stroke:#181818;stroke-width:1;" width="10" x="686.7915" y="1060.2891"/><rect fill="#FFFFFF" height="328.0703" style="stroke:#181818;stroke-width:1;" width="10" x="686.7915" y="1356.6172"/><rect fill="#FFFFFF" height="79.3984" style="stroke:#181818;stroke-width:1;" width="10" x="809.4702" y="301.2266"/><rect fill="#FFFFFF" height="29.1328" style="stroke:#181818;stroke-width:1;" width="10" x="809.4702" y="515.2891"/><rect fill="#FFFFFF" height="79.3984" style="stroke:#181818;stroke-width:1;" width="10" x="876.0342" y="1277.2188"/><rect fill="none" height="810.3281" style="stroke:#000000;stroke-width:1.5;" width="850.5811" x="10" y="395.625"/><rect fill="none" height="67.3984" style="stroke:#000000;stroke-width:1.5;" width="254.021" x="366" y="419.7578"/><rect fill="none" height="240.8672" style="stroke:#000000;stroke-width:1.5;" width="646.0327" x="20" y="725.8906"/><rect fill="none" height="306.0703" style="stroke:#000000;stroke-width:1.5;" width="304.5811" x="556" y="1371.6172"/><line style="stroke:#181818;stroke-width:0.5;stroke-dasharray:5.0,5.0;" x1="84" x2="84" y1="81.2969" y2="1737.8203"/><line style="stroke:#181818;stroke-width:0.5;stroke-dasharray:5.0,5.0;" x1="288.8188" x2="288.8188" y1="81.2969" y2="1737.8203"/><line style="stroke:#181818;stroke-width:0.5;stroke-dasharray:5.0,5.0;" x1="493.0332" x2="493.0332" y1="81.2969" y2="1737.8203"/><line style="stroke:#181818;stroke-width:0.5;stroke-dasharray:5.0,5.0;" x1="691.749" x2="691.749" y1="81.2969" y2="1737.8203"/><line style="stroke:#181818;stroke-width:0.5;stroke-dasharray:5.0,5.0;" x1="814.3594" x2="814.3594" y1="81.2969" y2="1737.8203"/><line style="stroke:#181818;stroke-width:0.5;stroke-dasharray:5.0,5.0;" x1="880.5811" x2="880.5811" y1="81.2969" y2="1737.8203"/><text fill="#000000" font-family="sans-serif" font-size="14" lengthAdjust="spacing" textLength="103.0996" x="30" y="77.9951">&#1055;&#1086;&#1083;&#1100;&#1079;&#1086;&#1074;&#1072;&#1090;&#1077;&#1083;&#1100;</text><ellipse cx="84.5498" cy="13.5" fill="#E2E2F0" rx="8" ry="8" style="stroke:#181818;stroke-width:0.5;"/><path d="M84.5498,21.5 L84.5498,48.5 M71.5498,29.5 L97.5498,29.5 M84.5498,48.5 L71.5498,63.5 M84.5498,48.5 L97.5498,63.5 " fill="none" style="stroke:#181818;stroke-width:0.5;"/><text fill="#000000" font-family="sans-serif" font-size="14" lengthAdjust="spacing" textLength="103.0996" x="30" y="1749.8154">&#1055;&#1086;&#1083;&#1100;&#1079;&#1086;&#1074;&#1072;&#1090;&#1077;&#1083;&#1100;</text><ellipse cx="84.5498" cy="1761.6172" fill="#E2E2F0" rx="8" ry="8" style="stroke:#181818;stroke-width:0.5;"/><path d="M84.5498,1769.6172 L84.5498,1796.6172 M71.5498,1777.6172 L97.5498,1777.6172 M84.5498,1796.6172 L71.5498,1811.6172 M84.5498,1796.6172 L97.5498,1811.6172 " fill="none" style="stroke:#181818;stroke-width:0.5;"/><rect fill="#E2E2F0" height="30.2969" rx="2.5" ry="2.5" style="stroke:#181818;stroke-width:0.5;" width="65.8164" x="256.8188" y="50"/><text fill="#000000" font-family="sans-serif" font-size="14" lengthAdjust="spacing" textLength="51.8164" x="263.8188" y="69.9951">&#1052;&#1055; IYM</text><rect fill="#E2E2F0" height="30.2969" rx="2.5" ry="2.5" style="stroke:#181818;stroke-width:0.5;" width="65.8164" x="256.8188" y="1736.8203"/><text fill="#000000" font-family="sans-serif" font-size="14" lengthAdjust="spacing" textLength="51.8164" x="263.8188" y="1756.8154">&#1052;&#1055; IYM</text><rect fill="#E2E2F0" height="30.2969" rx="2.5" ry="2.5" style="stroke:#181818;stroke-width:0.5;" width="103.5713" x="442.0332" y="50"/><text fill="#000000" font-family="sans-serif" font-size="14" lengthAdjust="spacing" textLength="89.5713" x="449.0332" y="69.9951">IYM Backend</text><rect fill="#E2E2F0" height="30.2969" rx="2.5" ry="2.5" style="stroke:#181818;stroke-width:0.5;" width="103.5713" x="442.0332" y="1736.8203"/><text fill="#000000" font-family="sans-serif" font-size="14" lengthAdjust="spacing" textLength="89.5713" x="449.0332" y="1756.8154">IYM Backend</text><rect fill="#E2E2F0" height="30.2969" rx="2.5" ry="2.5" style="stroke:#181818;stroke-width:0.5;" width="72.085" x="655.749" y="50"/><text fill="#000000" font-family="sans-serif" font-size="14" lengthAdjust="spacing" textLength="58.085" x="662.749" y="69.9951">IYM Jobs</text><rect fill="#E2E2F0" height="30.2969" rx="2.5" ry="2.5" style="stroke:#181818;stroke-width:0.5;" width="72.085" x="655.749" y="1736.8203"/><text fill="#000000" font-family="sans-serif" font-size="14" lengthAdjust="spacing" textLength="58.085" x="662.749" y="1756.8154">IYM Jobs</text><rect fill="#E2E2F0" height="30.2969" rx="2.5" ry="2.5" style="stroke:#181818;stroke-width:0.5;" width="72.2217" x="778.3594" y="50"/><text fill="#000000" font-family="sans-serif" font-size="14" lengthAdjust="spacing" textLength="58.2217" x="785.3594" y="69.9951">Tieto CS</text><rect fill="#E2E2F0" height="30.2969" rx="2.5" ry="2.5" style="stroke:#181818;stroke-width:0.5;" width="72.2217" x="778.3594" y="1736.8203"/><text fill="#000000" font-family="sans-serif" font-size="14" lengthAdjust="spacing" textLength="58.2217" x="785.3594" y="1756.8154">Tieto CS</text><rect fill="#E2E2F0" height="30.2969" rx="2.5" ry="2.5" style="stroke:#181818;stroke-width:0.5;" width="40.9063" x="860.5811" y="50"/><text fill="#000000" font-family="sans-serif" font-size="14" lengthAdjust="spacing" textLength="26.9063" x="867.5811" y="69.9951">SAP</text><rect fill="#E2E2F0" height="30.2969" rx="2.5" ry="2.5" style="stroke:#181818;stroke-width:0.5;" width="40.9063" x="860.5811" y="1736.8203"/><text fill="#000000" font-family="sans-serif" font-size="14" lengthAdjust="spacing" textLength="26.9063" x="867.5811" y="1756.8154">SAP</text><rect fill="#FFFFFF" height="447.125" style="stroke:#181818;stroke-width:1;" width="10" x="79.5498" y="155.5625"/><rect fill="#FFFFFF" height="354.3984" style="stroke:#181818;stroke-width:1;" width="10" x="79.5498" y="843.5547"/><rect fill="#FFFFFF" height="447.125" style="stroke:#181818;stroke-width:1;" width="10" x="284.7271" y="155.5625"/><rect fill="#FFFFFF" height="383.5313" style="stroke:#181818;stroke-width:1;" width="10" x="284.7271" y="814.4219"/><rect fill="#FFFFFF" height="29.1328" style="stroke:#181818;stroke-width:1;" width="10" x="488.8188" y="184.6953"/><rect fill="#FFFFFF" height="542.3281" style="stroke:#181818;stroke-width:1;" width="10" x="488.8188" y="272.0938"/><rect fill="#FFFFFF" height="267" style="stroke:#181818;stroke-width:1;" width="10" x="488.8188" y="901.8203"/><rect fill="#FFFFFF" height="216.9297" style="stroke:#181818;stroke-width:1;" width="10" x="686.7915" y="1060.2891"/><rect fill="#FFFFFF" height="328.0703" style="stroke:#181818;stroke-width:1;" width="10" x="686.7915" y="1356.6172"/><rect fill="#FFFFFF" height="79.3984" style="stroke:#181818;stroke-width:1;" width="10" x="809.4702" y="301.2266"/><rect fill="#FFFFFF" height="29.1328" style="stroke:#181818;stroke-width:1;" width="10" x="809.4702" y="515.2891"/><rect fill="#FFFFFF" height="79.3984" style="stroke:#181818;stroke-width:1;" width="10" x="876.0342" y="1277.2188"/><rect fill="#EEEEEE" height="3" style="stroke:#EEEEEE;stroke-width:1;" width="981.4092" x="0" y="111.8633"/><line style="stroke:#000000;stroke-width:1;" x1="0" x2="981.4092" y1="111.8633" y2="111.8633"/><line style="stroke:#000000;stroke-width:1;" x1="0" x2="981.4092" y1="114.8633" y2="114.8633"/><rect fill="#EEEEEE" height="23.1328" style="stroke:#000000;stroke-width:2;" width="113.0107" x="434.1992" y="101.2969"/><text fill="#000000" font-family="sans-serif" font-size="13" font-weight="bold" lengthAdjust="spacing" textLength="99.0107" x="440.1992" y="117.3638">&#1055;&#1088;&#1086;&#1074;&#1077;&#1088;&#1082;&#1072; &#1050;&#1051;</text><polygon fill="#181818" points="272.7271,151.5625,282.7271,155.5625,272.7271,159.5625,276.7271,155.5625" style="stroke:#181818;stroke-width:1;"/><line style="stroke:#181818;stroke-width:1;" x1="89.5498" x2="278.7271" y1="155.5625" y2="155.5625"/><text fill="#000000" font-family="sans-serif" font-size="13" lengthAdjust="spacing" textLength="64.2383" x="96.5498" y="150.4966">&#1069;&#1082;&#1088;&#1072;&#1085; &#1050;&#1050;</text><polygon fill="#181818" points="476.8188,180.6953,486.8188,184.6953,476.8188,188.6953,480.8188,184.6953" style="stroke:#181818;stroke-width:1;"/><line style="stroke:#181818;stroke-width:1;" x1="294.7271" x2="482.8188" y1="184.6953" y2="184.6953"/><text fill="#000000" font-family="sans-serif" font-size="13" lengthAdjust="spacing" textLength="172.085" x="301.7271" y="179.6294">&#1047;&#1072;&#1087;&#1088;&#1086;&#1089; &#1074;&#1080;&#1076;&#1078;&#1077;&#1090;&#1086;&#1074; &#1101;&#1082;&#1088;&#1072;&#1085;&#1072;</text><polygon fill="#181818" points="305.7271,209.8281,295.7271,213.8281,305.7271,217.8281,301.7271,213.8281" style="stroke:#181818;stroke-width:1;"/><line style="stroke:#181818;stroke-width:1;stroke-dasharray:2.0,2.0;" x1="299.7271" x2="492.8188" y1="213.8281" y2="213.8281"/><text fill="#000000" font-family="sans-serif" font-size="13" lengthAdjust="spacing" textLength="138.2964" x="311.7271" y="208.7622">&#1042;&#1080;&#1076;&#1078;&#1077;&#1090;&#1099; &#1101;&#1082;&#1088;&#1072;&#1085;&#1072; &#1050;&#1050;</text><polygon fill="#181818" points="100.5498,238.9609,90.5498,242.9609,100.5498,246.9609,96.5498,242.9609" style="stroke:#181818;stroke-width:1;"/><line style="stroke:#181818;stroke-width:1;stroke-dasharray:2.0,2.0;" x1="94.5498" x2="283.7271" y1="242.9609" y2="242.9609"/><text fill="#000000" font-family="sans-serif" font-size="13" lengthAdjust="spacing" textLength="150.4077" x="106.5498" y="237.895">&#1055;&#1088;&#1077;&#1088;&#1077;&#1085;&#1076;&#1077;&#1088; &#1101;&#1082;&#1088;&#1072;&#1085;&#1072; &#1050;&#1050;</text><polygon fill="#181818" points="476.8188,268.0938,486.8188,272.0938,476.8188,276.0938,480.8188,272.0938" style="stroke:#181818;stroke-width:1;"/><line style="stroke:#181818;stroke-width:1;" x1="294.7271" x2="482.8188" y1="272.0938" y2="272.0938"/><text fill="#000000" font-family="sans-serif" font-size="13" lengthAdjust="spacing" textLength="162.6143" x="301.7271" y="267.0278">&#1047;&#1072;&#1087;&#1088;&#1086;&#1089; &#1080;&#1084;&#1077;&#1102;&#1097;&#1077;&#1075;&#1086;&#1089;&#1103; &#1050;&#1051;</text><polygon fill="#181818" points="797.4702,297.2266,807.4702,301.2266,797.4702,305.2266,801.4702,301.2266" style="stroke:#181818;stroke-width:1;"/><line style="stroke:#181818;stroke-width:1;" x1="498.8188" x2="803.4702" y1="301.2266" y2="301.2266"/><text fill="#000000" font-family="sans-serif" font-size="13" lengthAdjust="spacing" textLength="71.2905" x="505.8188" y="296.1606">&#1047;&#1072;&#1087;&#1088;&#1086;&#1089; &#1050;&#1051;</text><path d="M725,314.2266 L725,354.2266 L903,354.2266 L903,324.2266 L893,314.2266 L725,314.2266 " fill="#FEFFDD" style="stroke:#181818;stroke-width:0.5;"/><path d="M893,314.2266 L893,324.2266 L903,324.2266 L893,314.2266 " fill="#FEFFDD" style="stroke:#181818;stroke-width:0.5;"/><text fill="#000000" font-family="sans-serif" font-size="13" lengthAdjust="spacing" textLength="157.0347" x="731" y="331.2935">&#1055;&#1088;&#1086;&#1074;&#1077;&#1088;&#1082;&#1072; &#1080;&#1084;&#1077;&#1102;&#1097;&#1077;&#1075;&#1086;&#1089;&#1103;</text><text fill="#000000" font-family="sans-serif" font-size="13" lengthAdjust="spacing" textLength="83.3765" x="731" y="346.4263">&#1050;&#1051; &#1085;&#1072; &#1082;&#1072;&#1088;&#1090;&#1077;</text><polygon fill="#181818" points="509.8188,376.625,499.8188,380.625,509.8188,384.625,505.8188,380.625" style="stroke:#181818;stroke-width:1;"/><line style="stroke:#181818;stroke-width:1;stroke-dasharray:2.0,2.0;" x1="503.8188" x2="813.4702" y1="380.625" y2="380.625"/><text fill="#000000" font-family="sans-serif" font-size="13" lengthAdjust="spacing" textLength="129.8794" x="515.8188" y="375.5591">&#1059;&#1089;&#1090;&#1072;&#1085;&#1086;&#1074;&#1083;&#1077;&#1085;&#1085;&#1099;&#1081; &#1050;&#1051;</text><path d="M10,395.625 L74.4429,395.625 L74.4429,402.7578 L64.4429,412.7578 L10,412.7578 L10,395.625 " fill="#EEEEEE" style="stroke:#000000;stroke-width:1.5;"/><rect fill="none" height="810.3281" style="stroke:#000000;stroke-width:1.5;" width="850.5811" x="10" y="395.625"/><text fill="#000000" font-family="sans-serif" font-size="13" font-weight="bold" lengthAdjust="spacing" textLength="19.4429" x="25" y="408.6919">alt</text><text fill="#000000" font-family="sans-serif" font-size="11" font-weight="bold" lengthAdjust="spacing" textLength="84.0898" x="89.4429" y="407.8354">[&#1059;&#1089;&#1090;&#1072;&#1085;&#1086;&#1074;&#1083;&#1077;&#1085;]</text><path d="M366,419.7578 L430.4429,419.7578 L430.4429,426.8906 L420.4429,436.8906 L366,436.8906 L366,419.7578 " fill="#EEEEEE" style="stroke:#000000;stroke-width:1.5;"/><rect fill="none" height="67.3984" style="stroke:#000000;stroke-width:1.5;" width="254.021" x="366" y="419.7578"/><text fill="#000000" font-family="sans-serif" font-size="13" font-weight="bold" lengthAdjust="spacing" textLength="19.4429" x="381" y="432.8247">alt</text><text fill="#000000" font-family="sans-serif" font-size="11" font-weight="bold" lengthAdjust="spacing" textLength="70.0767" x="445.4429" y="431.9683">[&#1053;&#1086;&#1074;&#1072;&#1103; &#1050;&#1050;]</text><path d="M376,441.8906 L376,481.8906 L610,481.8906 L610,451.8906 L600,441.8906 L376,441.8906 " fill="#87CEEB" style="stroke:#181818;stroke-width:0.5;"/><path d="M600,441.8906 L600,451.8906 L610,451.8906 L600,441.8906 " fill="#87CEEB" style="stroke:#181818;stroke-width:0.5;"/><text fill="#000000" font-family="sans-serif" font-size="13" lengthAdjust="spacing" textLength="204.8896" x="382" y="458.9575">&#1047;&#1072;&#1087;&#1080;&#1089;&#1100; &#1082;&#1088;&#1077;&#1076;&#1080;&#1090;&#1085;&#1086;&#1075;&#1086; &#1087;&#1088;&#1077;&#1076;&#1089;&#1090;&#1072;&#1074;.</text><text fill="#000000" font-family="sans-serif" font-size="13" lengthAdjust="spacing" textLength="7.6616" x="382" y="474.0903">&#1074;</text><text fill="#000000" font-family="sans-serif" font-size="13" font-weight="bold" lengthAdjust="spacing" textLength="89.3433" x="393.7939" y="474.0903">credit_cards</text><text fill="#000000" font-family="sans-serif" font-size="13" lengthAdjust="spacing" textLength="107.7515" x="487.2695" y="474.0903">[&#1082;&#1072;&#1082;&#1086;&#1081; &#1087;&#1088;&#1080;&#1096;&#1077;&#1083;]</text><polygon fill="#181818" points="797.4702,511.2891,807.4702,515.2891,797.4702,519.2891,801.4702,515.2891" style="stroke:#181818;stroke-width:1;"/><line style="stroke:#181818;stroke-width:1;" x1="498.8188" x2="803.4702" y1="515.2891" y2="515.2891"/><text fill="#000000" font-family="sans-serif" font-size="13" lengthAdjust="spacing" textLength="158.8247" x="505.8188" y="510.2231">&#1047;&#1072;&#1087;&#1088;&#1086;&#1089; &#1085;&#1072; &#1088;&#1072;&#1079;&#1073;&#1080;&#1074;&#1082;&#1091; &#1050;&#1051;</text><polygon fill="#181818" points="509.8188,540.4219,499.8188,544.4219,509.8188,548.4219,505.8188,544.4219" style="stroke:#181818;stroke-width:1;"/><line style="stroke:#181818;stroke-width:1;stroke-dasharray:2.0,2.0;" x1="503.8188" x2="813.4702" y1="544.4219" y2="544.4219"/><text fill="#000000" font-family="sans-serif" font-size="13" lengthAdjust="spacing" textLength="85.8013" x="515.8188" y="539.356">&#1056;&#1072;&#1079;&#1073;&#1080;&#1074;&#1082;&#1072; &#1050;&#1051;</text><polygon fill="#181818" points="305.7271,569.5547,295.7271,573.5547,305.7271,577.5547,301.7271,573.5547" style="stroke:#181818;stroke-width:1;"/><line style="stroke:#181818;stroke-width:1;stroke-dasharray:2.0,2.0;" x1="299.7271" x2="487.8188" y1="573.5547" y2="573.5547"/><text fill="#000000" font-family="sans-serif" font-size="13" lengthAdjust="spacing" textLength="170.0918" x="311.7271" y="568.4888">&#1048;&#1084;&#1077;&#1102;&#1097;&#1080;&#1081;&#1089;&#1103; &#1050;&#1051; &#1085;&#1072; &#1082;&#1072;&#1088;&#1090;&#1077;</text><polygon fill="#181818" points="95.5498,598.6875,85.5498,602.6875,95.5498,606.6875,91.5498,602.6875" style="stroke:#181818;stroke-width:1;"/><line style="stroke:#181818;stroke-width:1;stroke-dasharray:2.0,2.0;" x1="89.5498" x2="288.7271" y1="602.6875" y2="602.6875"/><text fill="#000000" font-family="sans-serif" font-size="13" lengthAdjust="spacing" textLength="115.8384" x="101.5498" y="597.6216">&#1048;&#1085;&#1092;&#1086;&#1088;&#1084;&#1072;&#1094;&#1080; &#1086; &#1050;&#1051;</text><line style="stroke:#000000;stroke-width:1;stroke-dasharray:2.0,2.0;" x1="10" x2="860.5811" y1="611.6875" y2="611.6875"/><text fill="#000000" font-family="sans-serif" font-size="11" font-weight="bold" lengthAdjust="spacing" textLength="103.2754" x="15" y="621.8979">[&#1053;&#1077; &#1091;&#1089;&#1090;&#1072;&#1085;&#1086;&#1074;&#1083;&#1077;&#1085;]</text><rect fill="#EEEEEE" height="3" style="stroke:#EEEEEE;stroke-width:1;" width="981.4092" x="0" y="646.0586"/><line style="stroke:#000000;stroke-width:1;" x1="0" x2="981.4092" y1="646.0586" y2="646.0586"/><line style="stroke:#000000;stroke-width:1;" x1="0" x2="981.4092" y1="649.0586" y2="649.0586"/><rect fill="#EEEEEE" height="23.1328" style="stroke:#000000;stroke-width:2;" width="158.4854" x="411.4619" y="635.4922"/><text fill="#000000" font-family="sans-serif" font-size="13" font-weight="bold" lengthAdjust="spacing" textLength="144.4854" x="417.4619" y="651.5591">&#1048;&#1085;&#1080;&#1094;&#1080;&#1072;&#1083;&#1080;&#1079;&#1072;&#1094;&#1080;&#1103; &#1050;&#1051;</text><path d="M406,673.625 L406,713.625 L580,713.625 L580,683.625 L570,673.625 L406,673.625 " fill="#87CEEB" style="stroke:#181818;stroke-width:0.5;"/><path d="M570,673.625 L570,683.625 L580,683.625 L570,673.625 " fill="#87CEEB" style="stroke:#181818;stroke-width:0.5;"/><text fill="#000000" font-family="sans-serif" font-size="13" lengthAdjust="spacing" textLength="59.8521" x="412" y="690.6919">&#1047;&#1072;&#1087;&#1080;&#1089;&#1100; &#1074;</text><text fill="#000000" font-family="sans-serif" font-size="13" font-weight="bold" lengthAdjust="spacing" textLength="89.3433" x="475.9844" y="690.6919">credit_cards</text><text fill="#000000" font-family="sans-serif" font-size="13" lengthAdjust="spacing" textLength="89.6987" x="412" y="705.8247">[can_request]</text><path d="M20,725.8906 L84.4429,725.8906 L84.4429,733.0234 L74.4429,743.0234 L20,743.0234 L20,725.8906 " fill="#EEEEEE" style="stroke:#000000;stroke-width:1.5;"/><rect fill="none" height="240.8672" style="stroke:#000000;stroke-width:1.5;" width="646.0327" x="20" y="725.8906"/><text fill="#000000" font-family="sans-serif" font-size="13" font-weight="bold" lengthAdjust="spacing" textLength="19.4429" x="35" y="738.9575">alt</text><text fill="#000000" font-family="sans-serif" font-size="11" font-weight="bold" lengthAdjust="spacing" textLength="110.8755" x="99.4429" y="738.1011">[&#1040;&#1074;&#1090;&#1086;&#1088;&#1072;&#1089;&#1095;&#1077;&#1090; OFF]</text><path d="M387,748.0234 L387,788.0234 L599,788.0234 L599,758.0234 L589,748.0234 L387,748.0234 " fill="#87CEEB" style="stroke:#181818;stroke-width:0.5;"/><path d="M589,748.0234 L589,758.0234 L599,758.0234 L589,748.0234 " fill="#87CEEB" style="stroke:#181818;stroke-width:0.5;"/><text fill="#000000" font-family="sans-serif" font-size="13" lengthAdjust="spacing" textLength="164.7407" x="393" y="765.0903">&#1047;&#1072; &#1072;&#1074;&#1090;&#1086;&#1088;&#1072;&#1089;&#1095;&#1077;&#1090; &#1086;&#1090;&#1074;&#1077;&#1095;&#1072;&#1077;&#1090;</text><text fill="#000000" font-family="sans-serif" font-size="13" font-weight="bold" lengthAdjust="spacing" textLength="191.7437" x="393" y="780.2231">credit_card_get_limit_auto</text><polygon fill="#181818" points="305.7271,810.4219,295.7271,814.4219,305.7271,818.4219,301.7271,814.4219" style="stroke:#181818;stroke-width:1;"/><line style="stroke:#181818;stroke-width:1;stroke-dasharray:2.0,2.0;" x1="299.7271" x2="492.8188" y1="814.4219" y2="814.4219"/><text fill="#000000" font-family="sans-serif" font-size="13" lengthAdjust="spacing" textLength="123.6587" x="311.7271" y="809.356">&#1048;&#1085;&#1092;&#1086;&#1088;&#1084;&#1072;&#1094;&#1080;&#1103; &#1086; &#1050;&#1051;</text><polygon fill="#181818" points="100.5498,839.5547,90.5498,843.5547,100.5498,847.5547,96.5498,843.5547" style="stroke:#181818;stroke-width:1;"/><line style="stroke:#181818;stroke-width:1;stroke-dasharray:2.0,2.0;" x1="94.5498" x2="283.7271" y1="843.5547" y2="843.5547"/><text fill="#000000" font-family="sans-serif" font-size="13" lengthAdjust="spacing" textLength="131.8535" x="106.5498" y="838.4888">&#1050;&#1085;&#1086;&#1087;&#1082;&#1072; &#1088;&#1072;&#1089;&#1095;&#1077;&#1090;&#1072; &#1050;&#1051;</text><polygon fill="#181818" points="272.7271,868.6875,282.7271,872.6875,272.7271,876.6875,276.7271,872.6875" style="stroke:#181818;stroke-width:1;"/><line style="stroke:#181818;stroke-width:1;" x1="89.5498" x2="278.7271" y1="872.6875" y2="872.6875"/><text fill="#000000" font-family="sans-serif" font-size="13" lengthAdjust="spacing" textLength="171.1772" x="96.5498" y="867.6216">&#1046;&#1084;&#1077;&#1090; &#1085;&#1072; &#1082;&#1085;&#1086;&#1087;&#1082;&#1091; &#1088;&#1072;&#1089;&#1095;&#1077;&#1090;&#1072;</text><polygon fill="#181818" points="476.8188,897.8203,486.8188,901.8203,476.8188,905.8203,480.8188,901.8203" style="stroke:#181818;stroke-width:1;"/><line style="stroke:#181818;stroke-width:1;" x1="294.7271" x2="482.8188" y1="901.8203" y2="901.8203"/><text fill="#000000" font-family="sans-serif" font-size="13" lengthAdjust="spacing" textLength="142.6382" x="301.7271" y="896.7544">&#1047;&#1072;&#1087;&#1088;&#1086;&#1089; &#1085;&#1072; &#1088;&#1072;&#1089;&#1095;&#1077;&#1090; &#1050;&#1051;</text><line style="stroke:#000000;stroke-width:1;stroke-dasharray:2.0,2.0;" x1="20" x2="666.0327" y1="910.8203" y2="910.8203"/><text fill="#000000" font-family="sans-serif" font-size="11" font-weight="bold" lengthAdjust="spacing" textLength="105.0532" x="25" y="921.0308">[&#1040;&#1074;&#1090;&#1086;&#1088;&#1072;&#1089;&#1095;&#1077;&#1090; ON]</text><line style="stroke:#181818;stroke-width:1;" x1="498.8188" x2="540.8188" y1="945.7578" y2="945.7578"/><line style="stroke:#181818;stroke-width:1;" x1="540.8188" x2="540.8188" y1="945.7578" y2="958.7578"/><line style="stroke:#181818;stroke-width:1;" x1="499.8188" x2="540.8188" y1="958.7578" y2="958.7578"/><polygon fill="#181818" points="509.8188,954.7578,499.8188,958.7578,509.8188,962.7578,505.8188,958.7578" style="stroke:#181818;stroke-width:1;"/><text fill="#000000" font-family="sans-serif" font-size="13" lengthAdjust="spacing" textLength="138.2139" x="505.8188" y="940.6919">&#1052;&#1077;&#1090;&#1086;&#1076; &#1085;&#1072; &#1088;&#1072;&#1089;&#1095;&#1077;&#1090; &#1050;&#1051;</text><path d="M407,978.7578 L407,1033.7578 L580,1033.7578 L580,988.7578 L570,978.7578 L407,978.7578 " fill="#87CEEB" style="stroke:#181818;stroke-width:0.5;"/><path d="M570,978.7578 L570,988.7578 L580,988.7578 L570,978.7578 " fill="#87CEEB" style="stroke:#181818;stroke-width:0.5;"/><text fill="#000000" font-family="sans-serif" font-size="13" lengthAdjust="spacing" textLength="110.646" x="413" y="995.8247">&#1047;&#1072;&#1087;&#1080;&#1089;&#1100; &#1079;&#1072;&#1103;&#1074;&#1082;&#1080; &#1074;</text><text fill="#000000" font-family="sans-serif" font-size="13" font-weight="bold" lengthAdjust="spacing" textLength="152.4009" x="413" y="1010.9575">credit_card_requests</text><text fill="#000000" font-family="sans-serif" font-size="13" lengthAdjust="spacing" textLength="62.9878" x="413" y="1026.0903">[pending]</text><polygon fill="#181818" points="674.7915,1056.2891,684.7915,1060.2891,674.7915,1064.2891,678.7915,1060.2891" style="stroke:#181818;stroke-width:1;"/><line style="stroke:#181818;stroke-width:1;" x1="498.8188" x2="680.7915" y1="1060.2891" y2="1060.2891"/><text fill="#000000" font-family="sans-serif" font-size="13" lengthAdjust="spacing" textLength="100.1406" x="505.8188" y="1055.2231">&#1056;&#1072;&#1089;&#1089;&#1095;&#1080;&#1090;&#1072;&#1090;&#1100; &#1050;&#1051;</text><path d="M592,1073.2891 L592,1113.2891 L789,1113.2891 L789,1083.2891 L779,1073.2891 L592,1073.2891 " fill="#87CEEB" style="stroke:#181818;stroke-width:0.5;"/><path d="M779,1073.2891 L779,1083.2891 L789,1083.2891 L779,1073.2891 " fill="#87CEEB" style="stroke:#181818;stroke-width:0.5;"/><text fill="#000000" font-family="sans-serif" font-size="13" lengthAdjust="spacing" textLength="83.4399" x="598" y="1090.356">&#1054;&#1073;&#1085;&#1086;&#1074;&#1083;&#1077;&#1085;&#1080;&#1103;</text><text fill="#000000" font-family="sans-serif" font-size="13" font-weight="bold" lengthAdjust="spacing" textLength="89.3433" x="685.5723" y="1090.356">credit_cards</text><text fill="#000000" font-family="sans-serif" font-size="13" lengthAdjust="spacing" textLength="101.0864" x="598" y="1105.4888">&#1085;&#1072; [processing]</text><polygon fill="#181818" points="509.8188,1135.6875,499.8188,1139.6875,509.8188,1143.6875,505.8188,1139.6875" style="stroke:#181818;stroke-width:1;"/><line style="stroke:#181818;stroke-width:1;stroke-dasharray:2.0,2.0;" x1="503.8188" x2="685.7915" y1="1139.6875" y2="1139.6875"/><text fill="#000000" font-family="sans-serif" font-size="13" lengthAdjust="spacing" textLength="163.9727" x="515.8188" y="1134.6216">&#1054;&#1073;&#1085;&#1086;&#1074;&#1083;&#1077;&#1085;&#1085;&#1086;&#1077; &#1087;&#1088;&#1077;&#1076;&#1089;&#1090;&#1072;&#1074;.</text><polygon fill="#181818" points="305.7271,1164.8203,295.7271,1168.8203,305.7271,1172.8203,301.7271,1168.8203" style="stroke:#181818;stroke-width:1;"/><line style="stroke:#181818;stroke-width:1;stroke-dasharray:2.0,2.0;" x1="299.7271" x2="492.8188" y1="1168.8203" y2="1168.8203"/><text fill="#000000" font-family="sans-serif" font-size="13" lengthAdjust="spacing" textLength="123.6587" x="311.7271" y="1163.7544">&#1048;&#1085;&#1092;&#1086;&#1088;&#1084;&#1072;&#1094;&#1080;&#1103; &#1086; &#1050;&#1051;</text><polygon fill="#181818" points="95.5498,1193.9531,85.5498,1197.9531,95.5498,1201.9531,91.5498,1197.9531" style="stroke:#181818;stroke-width:1;"/><line style="stroke:#181818;stroke-width:1;stroke-dasharray:2.0,2.0;" x1="89.5498" x2="288.7271" y1="1197.9531" y2="1197.9531"/><text fill="#000000" font-family="sans-serif" font-size="13" lengthAdjust="spacing" textLength="160.6084" x="101.5498" y="1192.8872">&#1057;&#1086;&#1089;&#1090;&#1086;&#1103;&#1085;&#1080;&#1077; &#1079;&#1072;&#1075;&#1088;&#1091;&#1079;&#1082;&#1080; &#1050;&#1051;</text><rect fill="#EEEEEE" height="3" style="stroke:#EEEEEE;stroke-width:1;" width="981.4092" x="0" y="1233.5195"/><line style="stroke:#000000;stroke-width:1;" x1="0" x2="981.4092" y1="1233.5195" y2="1233.5195"/><line style="stroke:#000000;stroke-width:1;" x1="0" x2="981.4092" y1="1236.5195" y2="1236.5195"/><rect fill="#EEEEEE" height="23.1328" style="stroke:#000000;stroke-width:2;" width="91.2319" x="445.0886" y="1222.9531"/><text fill="#000000" font-family="sans-serif" font-size="13" font-weight="bold" lengthAdjust="spacing" textLength="77.2319" x="451.0886" y="1239.02">&#1056;&#1072;&#1089;&#1095;&#1077;&#1090; &#1050;&#1051;</text><polygon fill="#181818" points="864.0342,1273.2188,874.0342,1277.2188,864.0342,1281.2188,868.0342,1277.2188" style="stroke:#181818;stroke-width:1;"/><line style="stroke:#181818;stroke-width:1;" x1="691.7915" x2="870.0342" y1="1277.2188" y2="1277.2188"/><text fill="#000000" font-family="sans-serif" font-size="13" lengthAdjust="spacing" textLength="140.6133" x="698.7915" y="1272.1528">&#1057;&#1086;&#1073;&#1088;&#1072;&#1090;&#1100;/&#1042;&#1077;&#1088;&#1085;&#1091;&#1090;&#1100; &#1050;&#1051;</text><path d="M785,1290.2188 L785,1330.2188 L976,1330.2188 L976,1300.2188 L966,1290.2188 L785,1290.2188 " fill="#FEFFDD" style="stroke:#181818;stroke-width:0.5;"/><path d="M966,1290.2188 L966,1300.2188 L976,1300.2188 L966,1290.2188 " fill="#FEFFDD" style="stroke:#181818;stroke-width:0.5;"/><text fill="#000000" font-family="sans-serif" font-size="13" lengthAdjust="spacing" textLength="126.6294" x="791" y="1307.2856">&#1047;&#1072; &#1089;&#1091;&#1084;&#1084;&#1091; &#1050;&#1051; &#1074; SAP</text><text fill="#000000" font-family="sans-serif" font-size="13" lengthAdjust="spacing" textLength="62.4038" x="791" y="1322.4185">&#1086;&#1090;&#1074;&#1077;&#1095;&#1072;&#1077;&#1090;</text><text fill="#000000" font-family="sans-serif" font-size="13" font-weight="bold" lengthAdjust="spacing" textLength="103.873" x="857.5361" y="1322.4185">MAX_AMOUNT</text><polygon fill="#181818" points="707.7915,1352.6172,697.7915,1356.6172,707.7915,1360.6172,703.7915,1356.6172" style="stroke:#181818;stroke-width:1;"/><line style="stroke:#181818;stroke-width:1;stroke-dasharray:2.0,2.0;" x1="701.7915" x2="880.0342" y1="1356.6172" y2="1356.6172"/><text fill="#000000" font-family="sans-serif" font-size="13" lengthAdjust="spacing" textLength="100.6294" x="713.7915" y="1351.5513">&#1056;&#1077;&#1079;&#1091;&#1083;&#1100;&#1072;&#1090;&#1072;&#1090; &#1050;&#1051;</text><path d="M556,1371.6172 L620.4429,1371.6172 L620.4429,1378.75 L610.4429,1388.75 L556,1388.75 L556,1371.6172 " fill="#EEEEEE" style="stroke:#000000;stroke-width:1.5;"/><rect fill="none" height="306.0703" style="stroke:#000000;stroke-width:1.5;" width="304.5811" x="556" y="1371.6172"/><text fill="#000000" font-family="sans-serif" font-size="13" font-weight="bold" lengthAdjust="spacing" textLength="19.4429" x="571" y="1384.6841">alt</text><text fill="#000000" font-family="sans-serif" font-size="11" font-weight="bold" lengthAdjust="spacing" textLength="52.7119" x="635.4429" y="1383.8276">[&#1050;&#1051; = 0]</text><path d="M566,1393.75 L566,1433.75 L817,1433.75 L817,1403.75 L807,1393.75 L566,1393.75 " fill="#87CEEB" style="stroke:#181818;stroke-width:0.5;"/><path d="M807,1393.75 L807,1403.75 L817,1403.75 L807,1393.75 " fill="#87CEEB" style="stroke:#181818;stroke-width:0.5;"/><text fill="#000000" font-family="sans-serif" font-size="13" lengthAdjust="spacing" textLength="66.0474" x="572" y="1410.8169">&#1054;&#1073;&#1085;&#1086;&#1074;&#1080;&#1090;&#1100;</text><text fill="#000000" font-family="sans-serif" font-size="13" font-weight="bold" lengthAdjust="spacing" textLength="160.1387" x="642.1797" y="1410.8169">credit_cards_requests</text><text fill="#000000" font-family="sans-serif" font-size="13" lengthAdjust="spacing" textLength="84.189" x="572" y="1425.9497">&#1085;&#1072; [rejected]</text><path d="M601,1444.0156 L601,1484.0156 L781,1484.0156 L781,1454.0156 L771,1444.0156 L601,1444.0156 " fill="#87CEEB" style="stroke:#181818;stroke-width:0.5;"/><path d="M771,1444.0156 L771,1454.0156 L781,1454.0156 L771,1444.0156 " fill="#87CEEB" style="stroke:#181818;stroke-width:0.5;"/><text fill="#000000" font-family="sans-serif" font-size="13" lengthAdjust="spacing" textLength="66.0474" x="607" y="1461.0825">&#1054;&#1073;&#1085;&#1086;&#1074;&#1080;&#1090;&#1100;</text><text fill="#000000" font-family="sans-serif" font-size="13" font-weight="bold" lengthAdjust="spacing" textLength="89.3433" x="677.1797" y="1461.0825">credit_cards</text><text fill="#000000" font-family="sans-serif" font-size="13" lengthAdjust="spacing" textLength="136.7793" x="607" y="1476.2153">&#1085;&#1072; [0, not_approved]</text><line style="stroke:#000000;stroke-width:1;stroke-dasharray:2.0,2.0;" x1="556" x2="860.5811" y1="1490.2813" y2="1490.2813"/><text fill="#000000" font-family="sans-serif" font-size="11" font-weight="bold" lengthAdjust="spacing" textLength="52.7119" x="561" y="1500.4917">[&#1050;&#1051; &gt; 0]</text><path d="M566,1509.0859 L566,1549.0859 L817,1549.0859 L817,1519.0859 L807,1509.0859 L566,1509.0859 " fill="#87CEEB" style="stroke:#181818;stroke-width:0.5;"/><path d="M807,1509.0859 L807,1519.0859 L817,1519.0859 L807,1509.0859 " fill="#87CEEB" style="stroke:#181818;stroke-width:0.5;"/><text fill="#000000" font-family="sans-serif" font-size="13" lengthAdjust="spacing" textLength="66.0474" x="572" y="1526.1528">&#1054;&#1073;&#1085;&#1086;&#1074;&#1080;&#1090;&#1100;</text><text fill="#000000" font-family="sans-serif" font-size="13" font-weight="bold" lengthAdjust="spacing" textLength="160.1387" x="642.1797" y="1526.1528">credit_cards_requests</text><text fill="#000000" font-family="sans-serif" font-size="13" lengthAdjust="spacing" textLength="92.4536" x="572" y="1541.2856">&#1085;&#1072; [approved]</text><path d="M601,1559.3516 L601,1599.3516 L781,1599.3516 L781,1569.3516 L771,1559.3516 L601,1559.3516 " fill="#87CEEB" style="stroke:#181818;stroke-width:0.5;"/><path d="M771,1559.3516 L771,1569.3516 L781,1569.3516 L771,1559.3516 " fill="#87CEEB" style="stroke:#181818;stroke-width:0.5;"/><text fill="#000000" font-family="sans-serif" font-size="13" lengthAdjust="spacing" textLength="66.0474" x="607" y="1576.4185">&#1054;&#1073;&#1085;&#1086;&#1074;&#1080;&#1090;&#1100;</text><text fill="#000000" font-family="sans-serif" font-size="13" font-weight="bold" lengthAdjust="spacing" textLength="89.3433" x="677.1797" y="1576.4185">credit_cards</text><text fill="#000000" font-family="sans-serif" font-size="13" lengthAdjust="spacing" textLength="102.6353" x="607" y="1591.5513">&#1085;&#1072; [{&#1050;&#1051;}, paid]</text><polygon fill="#181818" points="802.4702,1621.75,812.4702,1625.75,802.4702,1629.75,806.4702,1625.75" style="stroke:#181818;stroke-width:1;"/><line style="stroke:#181818;stroke-width:1;" x1="696.7915" x2="808.4702" y1="1625.75" y2="1625.75"/><text fill="#000000" font-family="sans-serif" font-size="13" lengthAdjust="spacing" textLength="93.6787" x="703.7915" y="1620.6841">&#1059;&#1089;&#1090;&#1072;&#1085;&#1086;&#1074;&#1082;&#1072; &#1050;&#1051;</text><line style="stroke:#000000;stroke-width:1;stroke-dasharray:2.0,2.0;" x1="556" x2="860.5811" y1="1634.75" y2="1634.75"/><text fill="#000000" font-family="sans-serif" font-size="11" font-weight="bold" lengthAdjust="spacing" textLength="79.0786" x="561" y="1644.9604">[&#1053;&#1077;&#1090; &#1086;&#1090;&#1074;&#1077;&#1090;&#1072;]</text><polygon fill="#181818" points="969.4092,1665.6875,979.4092,1669.6875,969.4092,1673.6875,973.4092,1669.6875" style="stroke:#181818;stroke-width:1;"/><line style="stroke:#181818;stroke-width:1;" x1="696.7915" x2="975.4092" y1="1669.6875" y2="1669.6875"/><text fill="#000000" font-family="sans-serif" font-size="13" lengthAdjust="spacing" textLength="99.6011" x="703.7915" y="1664.6216">&#1056;&#1091;&#1095;&#1085;&#1086;&#1081; &#1088;&#1072;&#1079;&#1073;&#1086;&#1088;</text><rect fill="#EEEEEE" height="3" style="stroke:#EEEEEE;stroke-width:1;" width="981.4092" x="0" y="1705.2539"/><line style="stroke:#000000;stroke-width:1;" x1="0" x2="981.4092" y1="1705.2539" y2="1705.2539"/><line style="stroke:#000000;stroke-width:1;" x1="0" x2="981.4092" y1="1708.2539" y2="1708.2539"/><rect fill="#EEEEEE" height="23.1328" style="stroke:#000000;stroke-width:2;" width="113.0107" x="434.1992" y="1694.6875"/><text fill="#000000" font-family="sans-serif" font-size="13" font-weight="bold" lengthAdjust="spacing" textLength="99.0107" x="440.1992" y="1710.7544">&#1055;&#1088;&#1086;&#1074;&#1077;&#1088;&#1082;&#1072; &#1050;&#1051;</text><!--SRC=[jLPTQnD157tVNp74jsBLPp52Aoqej0gje9GIrirIeZM9oROW8jHKhE97nGULMct5Po76ngQjrRym-uyyv-vaTsTt8u8grEpipBttt7FFlREk5pHQAlfNqZlwXpuAd-bz_FPqD-peFjSbvRRLrRRVSffkAwXvjQPR3t1yM- -eYzTdIiOUXoQQJViCjjMawztowzMId9YSoX-urBZHBWrTS64VcQ_vGKDTc8kFp5-Oiq_CJLmPWeXEu8NZbCjw9roJLFhuFTHTfRVqktBPOIvg_3pXghDAVzQ7sE_gO-vlEQuNr5RTm8zIZbVCZGQmcvoYsHkO_6I0y852Z87UqzyGgSE8Adm-TAgxYGzaJnVdniUDZrU9MVZKCegmLFsqhU2ciG7Ez9XQ7mPxV2hmC1hoG7-7pOlm2Uo_ybMuAGHPS647Qp2UCxTEiYJr1XuQgu38LPxxWdWElQW8BCw4QvIS0x4eEcDmPckYVu95HrAZsoF9-ZXygWyYB2cg6DzT3WfD7948DzyRbMz6H0tbawI1y2VcRjsTN5xnuzs80ps0usTAkEw3-W6YC0RIKi8GNfhGlLE9RK-DZNajlreBAfxRghR7njG2yyRV3wP1oq7uc5st65l5R9Y5_8uk2xaK1UphBw2y1uph4K6IU9eYuoX5yMxQplIB7CkGorUsaD_6nHteWrXAkTBICAlYjwZYGu1VWujk-4WF55aiY2pzc7d7hlINspxBsLVXUa71CGSG0iJ2DRQEyFz-5CYWn4GeBhfTx7prd0NFhLTQ_fqLlnqi9heLURtKFSu2rWBs6snnTNbwslcznXXIKJOvMomxqauRsCOBEMuXgYpvGMMvTXjBToLe05zEFzcYPPWd8SNSOnHO-g6Zmcfk2VS_HJvf_6arvIkQcSYlHKsTM3x69PHikunpAfvmnnaC1GYGLoIVmdBDffejyhzj9lpUAE_iq3zH4oMuAMq6lVSSkv16KYAn9ZpMwakBrbW47bwKfcVXaHWuXN1fqxirdELAJJ29OOBg0_ezFL8fWfpG9Tc5PglX-Urs3WtBFuIJTSVdVi5G_7Cb_luE_2Wt2IktIV2C1MhrLmoSTJm9lHald1dPiSAoOL3iPig9qM3JA6c2VNnXcEZwYuW0j9_6TSxRxXXZAAv2Af0uY5VyHacAmfNqFiAlWuJlPcfpxCXUfljHefc9QvM9cSjNP-THeBWS0f3y68Ixe7qVBlbTruq4aWF601cKd60CNrPdCXFBbe_ChAJc0qdSbazQpN9SjDJoR_fUu5SNyqFgBs9P8SwSfAkAsuHkLtEHehPdZkV_LuuZ8l_B7EynW_idLTEj5OKPohNm4og-uUCBD7tD3CVhq0Mr165lYF51yes1ffNkoGfzvEVtBm00]--></g></svg>