<svg xmlns="http://www.w3.org/2000/svg" xmlns:xlink="http://www.w3.org/1999/xlink" contentStyleType="text/css" data-diagram-type="SEQUENCE" height="766px" preserveAspectRatio="none" style="width:751px;height:766px;background:#FFFFFF;" version="1.1" viewBox="0 0 751 766" width="751px" zoomAndPan="magnify"><defs/><g><rect fill="#FFFFFF" height="447.125" style="stroke:#181818;stroke-width:1;" width="10" x="69.5498" y="155.5625"/><rect fill="#FFFFFF" height="447.125" style="stroke:#181818;stroke-width:1;" width="10" x="253.9575" y="155.5625"/><rect fill="#FFFFFF" height="29.1328" style="stroke:#181818;stroke-width:1;" width="10" x="458.0493" y="184.6953"/><rect fill="#FFFFFF" height="301.4609" style="stroke:#181818;stroke-width:1;" width="10" x="458.0493" y="272.0938"/><rect fill="#FFFFFF" height="79.3984" style="stroke:#181818;stroke-width:1;" width="10" x="645.874" y="301.2266"/><rect fill="#FFFFFF" height="29.1328" style="stroke:#181818;stroke-width:1;" width="10" x="645.874" y="515.2891"/><rect fill="none" height="273" style="stroke:#000000;stroke-width:1.5;" width="686.9849" x="10" y="395.625"/><rect fill="none" height="67.3984" style="stroke:#000000;stroke-width:1.5;" width="254.021" x="336" y="419.7578"/><line style="stroke:#181818;stroke-width:0.5;stroke-dasharray:5.0,5.0;" x1="74" x2="74" y1="81.2969" y2="685.625"/><line style="stroke:#181818;stroke-width:0.5;stroke-dasharray:5.0,5.0;" x1="258.0493" x2="258.0493" y1="81.2969" y2="685.625"/><line style="stroke:#181818;stroke-width:0.5;stroke-dasharray:5.0,5.0;" x1="462.2637" x2="462.2637" y1="81.2969" y2="685.625"/><line style="stroke:#181818;stroke-width:0.5;stroke-dasharray:5.0,5.0;" x1="650.7632" x2="650.7632" y1="81.2969" y2="685.625"/><text fill="#000000" font-family="sans-serif" font-size="14" lengthAdjust="spacing" textLength="103.0996" x="20" y="77.9951">&#1055;&#1086;&#1083;&#1100;&#1079;&#1086;&#1074;&#1072;&#1090;&#1077;&#1083;&#1100;</text><ellipse cx="74.5498" cy="13.5" fill="#E2E2F0" rx="8" ry="8" style="stroke:#181818;stroke-width:0.5;"/><path d="M74.5498,21.5 L74.5498,48.5 M61.5498,29.5 L87.5498,29.5 M74.5498,48.5 L61.5498,63.5 M74.5498,48.5 L87.5498,63.5 " fill="none" style="stroke:#181818;stroke-width:0.5;"/><text fill="#000000" font-family="sans-serif" font-size="14" lengthAdjust="spacing" textLength="103.0996" x="20" y="697.6201">&#1055;&#1086;&#1083;&#1100;&#1079;&#1086;&#1074;&#1072;&#1090;&#1077;&#1083;&#1100;</text><ellipse cx="74.5498" cy="709.4219" fill="#E2E2F0" rx="8" ry="8" style="stroke:#181818;stroke-width:0.5;"/><path d="M74.5498,717.4219 L74.5498,744.4219 M61.5498,725.4219 L87.5498,725.4219 M74.5498,744.4219 L61.5498,759.4219 M74.5498,744.4219 L87.5498,759.4219 " fill="none" style="stroke:#181818;stroke-width:0.5;"/><rect fill="#E2E2F0" height="30.2969" rx="2.5" ry="2.5" style="stroke:#181818;stroke-width:0.5;" width="65.8164" x="226.0493" y="50"/><text fill="#000000" font-family="sans-serif" font-size="14" lengthAdjust="spacing" textLength="51.8164" x="233.0493" y="69.9951">&#1052;&#1055; IYM</text><rect fill="#E2E2F0" height="30.2969" rx="2.5" ry="2.5" style="stroke:#181818;stroke-width:0.5;" width="65.8164" x="226.0493" y="684.625"/><text fill="#000000" font-family="sans-serif" font-size="14" lengthAdjust="spacing" textLength="51.8164" x="233.0493" y="704.6201">&#1052;&#1055; IYM</text><rect fill="#E2E2F0" height="30.2969" rx="2.5" ry="2.5" style="stroke:#181818;stroke-width:0.5;" width="103.5713" x="411.2637" y="50"/><text fill="#000000" font-family="sans-serif" font-size="14" lengthAdjust="spacing" textLength="89.5713" x="418.2637" y="69.9951">IYM Backend</text><rect fill="#E2E2F0" height="30.2969" rx="2.5" ry="2.5" style="stroke:#181818;stroke-width:0.5;" width="103.5713" x="411.2637" y="684.625"/><text fill="#000000" font-family="sans-serif" font-size="14" lengthAdjust="spacing" textLength="89.5713" x="418.2637" y="704.6201">IYM Backend</text><rect fill="#E2E2F0" height="30.2969" rx="2.5" ry="2.5" style="stroke:#181818;stroke-width:0.5;" width="72.2217" x="614.7632" y="50"/><text fill="#000000" font-family="sans-serif" font-size="14" lengthAdjust="spacing" textLength="58.2217" x="621.7632" y="69.9951">Tieto CS</text><rect fill="#E2E2F0" height="30.2969" rx="2.5" ry="2.5" style="stroke:#181818;stroke-width:0.5;" width="72.2217" x="614.7632" y="684.625"/><text fill="#000000" font-family="sans-serif" font-size="14" lengthAdjust="spacing" textLength="58.2217" x="621.7632" y="704.6201">Tieto CS</text><rect fill="#FFFFFF" height="447.125" style="stroke:#181818;stroke-width:1;" width="10" x="69.5498" y="155.5625"/><rect fill="#FFFFFF" height="447.125" style="stroke:#181818;stroke-width:1;" width="10" x="253.9575" y="155.5625"/><rect fill="#FFFFFF" height="29.1328" style="stroke:#181818;stroke-width:1;" width="10" x="458.0493" y="184.6953"/><rect fill="#FFFFFF" height="301.4609" style="stroke:#181818;stroke-width:1;" width="10" x="458.0493" y="272.0938"/><rect fill="#FFFFFF" height="79.3984" style="stroke:#181818;stroke-width:1;" width="10" x="645.874" y="301.2266"/><rect fill="#FFFFFF" height="29.1328" style="stroke:#181818;stroke-width:1;" width="10" x="645.874" y="515.2891"/><rect fill="#EEEEEE" height="3" style="stroke:#EEEEEE;stroke-width:1;" width="744.0347" x="0" y="111.8633"/><line style="stroke:#000000;stroke-width:1;" x1="0" x2="744.0347" y1="111.8633" y2="111.8633"/><line style="stroke:#000000;stroke-width:1;" x1="0" x2="744.0347" y1="114.8633" y2="114.8633"/><rect fill="#EEEEEE" height="23.1328" style="stroke:#000000;stroke-width:2;" width="113.0107" x="315.512" y="101.2969"/><text fill="#000000" font-family="sans-serif" font-size="13" font-weight="bold" lengthAdjust="spacing" textLength="99.0107" x="321.512" y="117.3638">&#1055;&#1088;&#1086;&#1074;&#1077;&#1088;&#1082;&#1072; &#1050;&#1051;</text><polygon fill="#181818" points="241.9575,151.5625,251.9575,155.5625,241.9575,159.5625,245.9575,155.5625" style="stroke:#181818;stroke-width:1;"/><line style="stroke:#181818;stroke-width:1;" x1="79.5498" x2="247.9575" y1="155.5625" y2="155.5625"/><text fill="#000000" font-family="sans-serif" font-size="13" lengthAdjust="spacing" textLength="64.2383" x="86.5498" y="150.4966">&#1069;&#1082;&#1088;&#1072;&#1085; &#1050;&#1050;</text><polygon fill="#181818" points="446.0493,180.6953,456.0493,184.6953,446.0493,188.6953,450.0493,184.6953" style="stroke:#181818;stroke-width:1;"/><line style="stroke:#181818;stroke-width:1;" x1="263.9575" x2="452.0493" y1="184.6953" y2="184.6953"/><text fill="#000000" font-family="sans-serif" font-size="13" lengthAdjust="spacing" textLength="172.085" x="270.9575" y="179.6294">&#1047;&#1072;&#1087;&#1088;&#1086;&#1089; &#1074;&#1080;&#1076;&#1078;&#1077;&#1090;&#1086;&#1074; &#1101;&#1082;&#1088;&#1072;&#1085;&#1072;</text><polygon fill="#181818" points="274.9575,209.8281,264.9575,213.8281,274.9575,217.8281,270.9575,213.8281" style="stroke:#181818;stroke-width:1;"/><line style="stroke:#181818;stroke-width:1;stroke-dasharray:2.0,2.0;" x1="268.9575" x2="462.0493" y1="213.8281" y2="213.8281"/><text fill="#000000" font-family="sans-serif" font-size="13" lengthAdjust="spacing" textLength="138.2964" x="280.9575" y="208.7622">&#1042;&#1080;&#1076;&#1078;&#1077;&#1090;&#1099; &#1101;&#1082;&#1088;&#1072;&#1085;&#1072; &#1050;&#1050;</text><polygon fill="#181818" points="90.5498,238.9609,80.5498,242.9609,90.5498,246.9609,86.5498,242.9609" style="stroke:#181818;stroke-width:1;"/><line style="stroke:#181818;stroke-width:1;stroke-dasharray:2.0,2.0;" x1="84.5498" x2="252.9575" y1="242.9609" y2="242.9609"/><text fill="#000000" font-family="sans-serif" font-size="13" lengthAdjust="spacing" textLength="150.4077" x="96.5498" y="237.895">&#1055;&#1088;&#1077;&#1088;&#1077;&#1085;&#1076;&#1077;&#1088; &#1101;&#1082;&#1088;&#1072;&#1085;&#1072; &#1050;&#1050;</text><polygon fill="#181818" points="446.0493,268.0938,456.0493,272.0938,446.0493,276.0938,450.0493,272.0938" style="stroke:#181818;stroke-width:1;"/><line style="stroke:#181818;stroke-width:1;" x1="263.9575" x2="452.0493" y1="272.0938" y2="272.0938"/><text fill="#000000" font-family="sans-serif" font-size="13" lengthAdjust="spacing" textLength="162.6143" x="270.9575" y="267.0278">&#1047;&#1072;&#1087;&#1088;&#1086;&#1089; &#1080;&#1084;&#1077;&#1102;&#1097;&#1077;&#1075;&#1086;&#1089;&#1103; &#1050;&#1051;</text><polygon fill="#181818" points="633.874,297.2266,643.874,301.2266,633.874,305.2266,637.874,301.2266" style="stroke:#181818;stroke-width:1;"/><line style="stroke:#181818;stroke-width:1;" x1="468.0493" x2="639.874" y1="301.2266" y2="301.2266"/><text fill="#000000" font-family="sans-serif" font-size="13" lengthAdjust="spacing" textLength="71.2905" x="475.0493" y="296.1606">&#1047;&#1072;&#1087;&#1088;&#1086;&#1089; &#1050;&#1051;</text><path d="M561,314.2266 L561,354.2266 L739,354.2266 L739,324.2266 L729,314.2266 L561,314.2266 " fill="#FEFFDD" style="stroke:#181818;stroke-width:0.5;"/><path d="M729,314.2266 L729,324.2266 L739,324.2266 L729,314.2266 " fill="#FEFFDD" style="stroke:#181818;stroke-width:0.5;"/><text fill="#000000" font-family="sans-serif" font-size="13" lengthAdjust="spacing" textLength="157.0347" x="567" y="331.2935">&#1055;&#1088;&#1086;&#1074;&#1077;&#1088;&#1082;&#1072; &#1080;&#1084;&#1077;&#1102;&#1097;&#1077;&#1075;&#1086;&#1089;&#1103;</text><text fill="#000000" font-family="sans-serif" font-size="13" lengthAdjust="spacing" textLength="83.3765" x="567" y="346.4263">&#1050;&#1051; &#1085;&#1072; &#1082;&#1072;&#1088;&#1090;&#1077;</text><polygon fill="#181818" points="479.0493,376.625,469.0493,380.625,479.0493,384.625,475.0493,380.625" style="stroke:#181818;stroke-width:1;"/><line style="stroke:#181818;stroke-width:1;stroke-dasharray:2.0,2.0;" x1="473.0493" x2="649.874" y1="380.625" y2="380.625"/><text fill="#000000" font-family="sans-serif" font-size="13" lengthAdjust="spacing" textLength="129.8794" x="485.0493" y="375.5591">&#1059;&#1089;&#1090;&#1072;&#1085;&#1086;&#1074;&#1083;&#1077;&#1085;&#1085;&#1099;&#1081; &#1050;&#1051;</text><path d="M10,395.625 L74.4429,395.625 L74.4429,402.7578 L64.4429,412.7578 L10,412.7578 L10,395.625 " fill="#EEEEEE" style="stroke:#000000;stroke-width:1.5;"/><rect fill="none" height="273" style="stroke:#000000;stroke-width:1.5;" width="686.9849" x="10" y="395.625"/><text fill="#000000" font-family="sans-serif" font-size="13" font-weight="bold" lengthAdjust="spacing" textLength="19.4429" x="25" y="408.6919">alt</text><text fill="#000000" font-family="sans-serif" font-size="11" font-weight="bold" lengthAdjust="spacing" textLength="84.0898" x="89.4429" y="407.8354">[&#1059;&#1089;&#1090;&#1072;&#1085;&#1086;&#1074;&#1083;&#1077;&#1085;]</text><path d="M336,419.7578 L400.4429,419.7578 L400.4429,426.8906 L390.4429,436.8906 L336,436.8906 L336,419.7578 " fill="#EEEEEE" style="stroke:#000000;stroke-width:1.5;"/><rect fill="none" height="67.3984" style="stroke:#000000;stroke-width:1.5;" width="254.021" x="336" y="419.7578"/><text fill="#000000" font-family="sans-serif" font-size="13" font-weight="bold" lengthAdjust="spacing" textLength="19.4429" x="351" y="432.8247">alt</text><text fill="#000000" font-family="sans-serif" font-size="11" font-weight="bold" lengthAdjust="spacing" textLength="70.0767" x="415.4429" y="431.9683">[&#1053;&#1086;&#1074;&#1072;&#1103; &#1050;&#1050;]</text><path d="M346,441.8906 L346,481.8906 L580,481.8906 L580,451.8906 L570,441.8906 L346,441.8906 " fill="#87CEEB" style="stroke:#181818;stroke-width:0.5;"/><path d="M570,441.8906 L570,451.8906 L580,451.8906 L570,441.8906 " fill="#87CEEB" style="stroke:#181818;stroke-width:0.5;"/><text fill="#000000" font-family="sans-serif" font-size="13" lengthAdjust="spacing" textLength="204.8896" x="352" y="458.9575">&#1047;&#1072;&#1087;&#1080;&#1089;&#1100; &#1082;&#1088;&#1077;&#1076;&#1080;&#1090;&#1085;&#1086;&#1075;&#1086; &#1087;&#1088;&#1077;&#1076;&#1089;&#1090;&#1072;&#1074;.</text><text fill="#000000" font-family="sans-serif" font-size="13" lengthAdjust="spacing" textLength="7.6616" x="352" y="474.0903">&#1074;</text><text fill="#000000" font-family="sans-serif" font-size="13" font-weight="bold" lengthAdjust="spacing" textLength="89.3433" x="363.7939" y="474.0903">credit_cards</text><text fill="#000000" font-family="sans-serif" font-size="13" lengthAdjust="spacing" textLength="107.7515" x="457.2695" y="474.0903">[&#1082;&#1072;&#1082;&#1086;&#1081; &#1087;&#1088;&#1080;&#1096;&#1077;&#1083;]</text><polygon fill="#181818" points="633.874,511.2891,643.874,515.2891,633.874,519.2891,637.874,515.2891" style="stroke:#181818;stroke-width:1;"/><line style="stroke:#181818;stroke-width:1;" x1="468.0493" x2="639.874" y1="515.2891" y2="515.2891"/><text fill="#000000" font-family="sans-serif" font-size="13" lengthAdjust="spacing" textLength="158.8247" x="475.0493" y="510.2231">&#1047;&#1072;&#1087;&#1088;&#1086;&#1089; &#1085;&#1072; &#1088;&#1072;&#1079;&#1073;&#1080;&#1074;&#1082;&#1091; &#1050;&#1051;</text><polygon fill="#181818" points="479.0493,540.4219,469.0493,544.4219,479.0493,548.4219,475.0493,544.4219" style="stroke:#181818;stroke-width:1;"/><line style="stroke:#181818;stroke-width:1;stroke-dasharray:2.0,2.0;" x1="473.0493" x2="649.874" y1="544.4219" y2="544.4219"/><text fill="#000000" font-family="sans-serif" font-size="13" lengthAdjust="spacing" textLength="85.8013" x="485.0493" y="539.356">&#1056;&#1072;&#1079;&#1073;&#1080;&#1074;&#1082;&#1072; &#1050;&#1051;</text><polygon fill="#181818" points="274.9575,569.5547,264.9575,573.5547,274.9575,577.5547,270.9575,573.5547" style="stroke:#181818;stroke-width:1;"/><line style="stroke:#181818;stroke-width:1;stroke-dasharray:2.0,2.0;" x1="268.9575" x2="462.0493" y1="573.5547" y2="573.5547"/><text fill="#000000" font-family="sans-serif" font-size="13" lengthAdjust="spacing" textLength="170.0918" x="280.9575" y="568.4888">&#1048;&#1084;&#1077;&#1102;&#1097;&#1080;&#1081;&#1089;&#1103; &#1050;&#1051; &#1085;&#1072; &#1082;&#1072;&#1088;&#1090;&#1077;</text><polygon fill="#181818" points="85.5498,598.6875,75.5498,602.6875,85.5498,606.6875,81.5498,602.6875" style="stroke:#181818;stroke-width:1;"/><line style="stroke:#181818;stroke-width:1;stroke-dasharray:2.0,2.0;" x1="79.5498" x2="257.9575" y1="602.6875" y2="602.6875"/><text fill="#000000" font-family="sans-serif" font-size="13" lengthAdjust="spacing" textLength="115.8384" x="91.5498" y="597.6216">&#1048;&#1085;&#1092;&#1086;&#1088;&#1084;&#1072;&#1094;&#1080; &#1086; &#1050;&#1051;</text><line style="stroke:#000000;stroke-width:1;stroke-dasharray:2.0,2.0;" x1="10" x2="696.9849" y1="611.6875" y2="611.6875"/><text fill="#000000" font-family="sans-serif" font-size="11" font-weight="bold" lengthAdjust="spacing" textLength="103.2754" x="15" y="621.8979">[&#1053;&#1077; &#1091;&#1089;&#1090;&#1072;&#1085;&#1086;&#1074;&#1083;&#1077;&#1085;]</text><rect fill="#EEEEEE" height="3" style="stroke:#EEEEEE;stroke-width:1;" width="744.0347" x="0" y="646.0586"/><line style="stroke:#000000;stroke-width:1;" x1="0" x2="744.0347" y1="646.0586" y2="646.0586"/><line style="stroke:#000000;stroke-width:1;" x1="0" x2="744.0347" y1="649.0586" y2="649.0586"/><rect fill="#EEEEEE" height="23.1328" style="stroke:#000000;stroke-width:2;" width="158.4854" x="292.7747" y="635.4922"/><text fill="#000000" font-family="sans-serif" font-size="13" font-weight="bold" lengthAdjust="spacing" textLength="144.4854" x="298.7747" y="651.5591">&#1048;&#1085;&#1080;&#1094;&#1080;&#1072;&#1083;&#1080;&#1079;&#1072;&#1094;&#1080;&#1103; &#1050;&#1051;</text><!--SRC=[TLJ1RjD04BtxAqRc5Yby0298fEg10wUK0q88hPmzM8sIo36Lk8KK8L0BbRXG5L2GE2EPK1EteUKNPl-8DxjRnqxSICvwT-VDU_DsrYfAHmcvNyXplkQLEUObnWLdPiQvp4DI4teoqKamLaaQH_5O3LE4V-KvFNhwEFHu13qSZ-insAQkYlRri1_QYEvkFM0lrkc8TdhXJOgzdLuGT3eyDrEh8iTuoHdn6N_fT0AHGUq7maJtY7_o9VOplfBziq15QNoWKktKbZEH9G3Wkhi2-mp8Fo4mhmaS1P_p7p3DX97CXvkadArpGBYakDzk-noVrZ1pL0CvBNrTnLhT0lR2fJmfBGVWNDuQCjmkkU2_m7mqxu7_BKlcn1fKamiSqF1p2rwB5CE78xoC3Y1HPjlUD_05aeMSMCIOgNHBW7CcIIRaKgrd_m74p9OcQLUswYjpn1TEIyKguLU3j14Is1QHpM- -GK-SKRu1QLq6wE_qzbzr1ozrkUiyu0A9ZybwdSFw0Yp2WRB8EeH5JxsukyOkgDMA4jsFqnUHIlgJLekUITruhgKCGHRcdLoOvoMgTCDFx7ZxiOYNjWEM_0kMBw3nq1ba2wzQv1DLBFvUnVdxOiCsp9MbUYEVbeTRy4NPIbj7kv4B3IOhctrzYdDzWtAcI9gPjroG-DgWnTxGZJMvftemqNB0EPd3XXR0bm4Ki1gfiRN2_z8HUTtuHi3f_m00]--></g></svg>