<svg xmlns="http://www.w3.org/2000/svg" xmlns:xlink="http://www.w3.org/1999/xlink" contentStyleType="text/css" data-diagram-type="SEQUENCE" height="805px" preserveAspectRatio="none" style="width:759px;height:805px;background:#FFFFFF;" version="1.1" viewBox="0 0 759 805" width="759px" zoomAndPan="magnify"><defs/><g><rect fill="#FFFFFF" height="354.3984" style="stroke:#181818;stroke-width:1;" width="10" x="69.5498" y="309.3594"/><rect fill="#FFFFFF" height="383.5313" style="stroke:#181818;stroke-width:1;" width="10" x="274.7271" y="280.2266"/><rect fill="#FFFFFF" height="188.9297" style="stroke:#181818;stroke-width:1;" width="10" x="446.3652" y="91.2969"/><rect fill="#FFFFFF" height="267" style="stroke:#181818;stroke-width:1;" width="10" x="446.3652" y="367.625"/><rect fill="#FFFFFF" height="79.3984" style="stroke:#181818;stroke-width:1;" width="10" x="644.3379" y="526.0938"/><rect fill="none" height="240.8672" style="stroke:#000000;stroke-width:1.5;" width="613.5791" x="10" y="191.6953"/><line style="stroke:#181818;stroke-width:0.5;stroke-dasharray:5.0,5.0;" x1="74" x2="74" y1="81.2969" y2="724.8906"/><line style="stroke:#181818;stroke-width:0.5;stroke-dasharray:5.0,5.0;" x1="278.8188" x2="278.8188" y1="81.2969" y2="724.8906"/><line style="stroke:#181818;stroke-width:0.5;stroke-dasharray:5.0,5.0;" x1="450.5796" x2="450.5796" y1="81.2969" y2="724.8906"/><line style="stroke:#181818;stroke-width:0.5;stroke-dasharray:5.0,5.0;" x1="649.2954" x2="649.2954" y1="81.2969" y2="724.8906"/><text fill="#000000" font-family="sans-serif" font-size="14" lengthAdjust="spacing" textLength="103.0996" x="20" y="77.9951">&#1055;&#1086;&#1083;&#1100;&#1079;&#1086;&#1074;&#1072;&#1090;&#1077;&#1083;&#1100;</text><ellipse cx="74.5498" cy="13.5" fill="#E2E2F0" rx="8" ry="8" style="stroke:#181818;stroke-width:0.5;"/><path d="M74.5498,21.5 L74.5498,48.5 M61.5498,29.5 L87.5498,29.5 M74.5498,48.5 L61.5498,63.5 M74.5498,48.5 L87.5498,63.5 " fill="none" style="stroke:#181818;stroke-width:0.5;"/><text fill="#000000" font-family="sans-serif" font-size="14" lengthAdjust="spacing" textLength="103.0996" x="20" y="736.8857">&#1055;&#1086;&#1083;&#1100;&#1079;&#1086;&#1074;&#1072;&#1090;&#1077;&#1083;&#1100;</text><ellipse cx="74.5498" cy="748.6875" fill="#E2E2F0" rx="8" ry="8" style="stroke:#181818;stroke-width:0.5;"/><path d="M74.5498,756.6875 L74.5498,783.6875 M61.5498,764.6875 L87.5498,764.6875 M74.5498,783.6875 L61.5498,798.6875 M74.5498,783.6875 L87.5498,798.6875 " fill="none" style="stroke:#181818;stroke-width:0.5;"/><rect fill="#E2E2F0" height="30.2969" rx="2.5" ry="2.5" style="stroke:#181818;stroke-width:0.5;" width="65.8164" x="246.8188" y="50"/><text fill="#000000" font-family="sans-serif" font-size="14" lengthAdjust="spacing" textLength="51.8164" x="253.8188" y="69.9951">&#1052;&#1055; IYM</text><rect fill="#E2E2F0" height="30.2969" rx="2.5" ry="2.5" style="stroke:#181818;stroke-width:0.5;" width="65.8164" x="246.8188" y="723.8906"/><text fill="#000000" font-family="sans-serif" font-size="14" lengthAdjust="spacing" textLength="51.8164" x="253.8188" y="743.8857">&#1052;&#1055; IYM</text><rect fill="#E2E2F0" height="30.2969" rx="2.5" ry="2.5" style="stroke:#181818;stroke-width:0.5;" width="103.5713" x="399.5796" y="50"/><text fill="#000000" font-family="sans-serif" font-size="14" lengthAdjust="spacing" textLength="89.5713" x="406.5796" y="69.9951">IYM Backend</text><rect fill="#E2E2F0" height="30.2969" rx="2.5" ry="2.5" style="stroke:#181818;stroke-width:0.5;" width="103.5713" x="399.5796" y="723.8906"/><text fill="#000000" font-family="sans-serif" font-size="14" lengthAdjust="spacing" textLength="89.5713" x="406.5796" y="743.8857">IYM Backend</text><rect fill="#E2E2F0" height="30.2969" rx="2.5" ry="2.5" style="stroke:#181818;stroke-width:0.5;" width="72.085" x="613.2954" y="50"/><text fill="#000000" font-family="sans-serif" font-size="14" lengthAdjust="spacing" textLength="58.085" x="620.2954" y="69.9951">IYM Jobs</text><rect fill="#E2E2F0" height="30.2969" rx="2.5" ry="2.5" style="stroke:#181818;stroke-width:0.5;" width="72.085" x="613.2954" y="723.8906"/><text fill="#000000" font-family="sans-serif" font-size="14" lengthAdjust="spacing" textLength="58.085" x="620.2954" y="743.8857">IYM Jobs</text><rect fill="#FFFFFF" height="354.3984" style="stroke:#181818;stroke-width:1;" width="10" x="69.5498" y="309.3594"/><rect fill="#FFFFFF" height="383.5313" style="stroke:#181818;stroke-width:1;" width="10" x="274.7271" y="280.2266"/><rect fill="#FFFFFF" height="188.9297" style="stroke:#181818;stroke-width:1;" width="10" x="446.3652" y="91.2969"/><rect fill="#FFFFFF" height="267" style="stroke:#181818;stroke-width:1;" width="10" x="446.3652" y="367.625"/><rect fill="#FFFFFF" height="79.3984" style="stroke:#181818;stroke-width:1;" width="10" x="644.3379" y="526.0938"/><rect fill="#EEEEEE" height="3" style="stroke:#EEEEEE;stroke-width:1;" width="752.9155" x="0" y="111.8633"/><line style="stroke:#000000;stroke-width:1;" x1="0" x2="752.9155" y1="111.8633" y2="111.8633"/><line style="stroke:#000000;stroke-width:1;" x1="0" x2="752.9155" y1="114.8633" y2="114.8633"/><rect fill="#EEEEEE" height="23.1328" style="stroke:#000000;stroke-width:2;" width="158.4854" x="297.2151" y="101.2969"/><text fill="#000000" font-family="sans-serif" font-size="13" font-weight="bold" lengthAdjust="spacing" textLength="144.4854" x="303.2151" y="117.3638">&#1048;&#1085;&#1080;&#1094;&#1080;&#1072;&#1083;&#1080;&#1079;&#1072;&#1094;&#1080;&#1103; &#1050;&#1051;</text><path d="M364,139.4297 L364,179.4297 L538,179.4297 L538,149.4297 L528,139.4297 L364,139.4297 " fill="#87CEEB" style="stroke:#181818;stroke-width:0.5;"/><path d="M528,139.4297 L528,149.4297 L538,149.4297 L528,139.4297 " fill="#87CEEB" style="stroke:#181818;stroke-width:0.5;"/><text fill="#000000" font-family="sans-serif" font-size="13" lengthAdjust="spacing" textLength="59.8521" x="370" y="156.4966">&#1047;&#1072;&#1087;&#1080;&#1089;&#1100; &#1074;</text><text fill="#000000" font-family="sans-serif" font-size="13" font-weight="bold" lengthAdjust="spacing" textLength="89.3433" x="433.9844" y="156.4966">credit_cards</text><text fill="#000000" font-family="sans-serif" font-size="13" lengthAdjust="spacing" textLength="89.6987" x="370" y="171.6294">[can_request]</text><path d="M10,191.6953 L74.4429,191.6953 L74.4429,198.8281 L64.4429,208.8281 L10,208.8281 L10,191.6953 " fill="#EEEEEE" style="stroke:#000000;stroke-width:1.5;"/><rect fill="none" height="240.8672" style="stroke:#000000;stroke-width:1.5;" width="613.5791" x="10" y="191.6953"/><text fill="#000000" font-family="sans-serif" font-size="13" font-weight="bold" lengthAdjust="spacing" textLength="19.4429" x="25" y="204.7622">alt</text><text fill="#000000" font-family="sans-serif" font-size="11" font-weight="bold" lengthAdjust="spacing" textLength="110.8755" x="89.4429" y="203.9058">[&#1040;&#1074;&#1090;&#1086;&#1088;&#1072;&#1089;&#1095;&#1077;&#1090; OFF]</text><path d="M342,213.8281 L342,253.8281 L558,253.8281 L558,223.8281 L548,213.8281 L342,213.8281 " fill="#FEFFDD" style="stroke:#181818;stroke-width:0.5;"/><path d="M548,213.8281 L548,223.8281 L558,223.8281 L548,213.8281 " fill="#FEFFDD" style="stroke:#181818;stroke-width:0.5;"/><text fill="#000000" font-family="sans-serif" font-size="13" lengthAdjust="spacing" textLength="164.7407" x="348" y="230.895">&#1047;&#1072; &#1072;&#1074;&#1090;&#1086;&#1088;&#1072;&#1089;&#1095;&#1077;&#1090; &#1086;&#1090;&#1074;&#1077;&#1095;&#1072;&#1077;&#1090;</text><text fill="#000000" font-family="sans-serif" font-size="13" font-weight="bold" lengthAdjust="spacing" textLength="191.7437" x="348" y="246.0278">credit_card_get_limit_auto</text><text fill="#000000" font-family="sans-serif" font-size="13" lengthAdjust="spacing" textLength="4.1323" x="539.7437" y="246.0278">.</text><polygon fill="#181818" points="295.7271,276.2266,285.7271,280.2266,295.7271,284.2266,291.7271,280.2266" style="stroke:#181818;stroke-width:1;"/><line style="stroke:#181818;stroke-width:1;stroke-dasharray:2.0,2.0;" x1="289.7271" x2="450.3652" y1="280.2266" y2="280.2266"/><text fill="#000000" font-family="sans-serif" font-size="13" lengthAdjust="spacing" textLength="123.6587" x="301.7271" y="275.1606">&#1048;&#1085;&#1092;&#1086;&#1088;&#1084;&#1072;&#1094;&#1080;&#1103; &#1086; &#1050;&#1051;</text><polygon fill="#181818" points="90.5498,305.3594,80.5498,309.3594,90.5498,313.3594,86.5498,309.3594" style="stroke:#181818;stroke-width:1;"/><line style="stroke:#181818;stroke-width:1;stroke-dasharray:2.0,2.0;" x1="84.5498" x2="273.7271" y1="309.3594" y2="309.3594"/><text fill="#000000" font-family="sans-serif" font-size="13" lengthAdjust="spacing" textLength="131.8535" x="96.5498" y="304.2935">&#1050;&#1085;&#1086;&#1087;&#1082;&#1072; &#1088;&#1072;&#1089;&#1095;&#1077;&#1090;&#1072; &#1050;&#1051;</text><polygon fill="#181818" points="262.7271,334.4922,272.7271,338.4922,262.7271,342.4922,266.7271,338.4922" style="stroke:#181818;stroke-width:1;"/><line style="stroke:#181818;stroke-width:1;" x1="79.5498" x2="268.7271" y1="338.4922" y2="338.4922"/><text fill="#000000" font-family="sans-serif" font-size="13" lengthAdjust="spacing" textLength="171.1772" x="86.5498" y="333.4263">&#1046;&#1084;&#1077;&#1090; &#1085;&#1072; &#1082;&#1085;&#1086;&#1087;&#1082;&#1091; &#1088;&#1072;&#1089;&#1095;&#1077;&#1090;&#1072;</text><polygon fill="#181818" points="434.3652,363.625,444.3652,367.625,434.3652,371.625,438.3652,367.625" style="stroke:#181818;stroke-width:1;"/><line style="stroke:#181818;stroke-width:1;" x1="284.7271" x2="440.3652" y1="367.625" y2="367.625"/><text fill="#000000" font-family="sans-serif" font-size="13" lengthAdjust="spacing" textLength="142.6382" x="291.7271" y="362.5591">&#1047;&#1072;&#1087;&#1088;&#1086;&#1089; &#1085;&#1072; &#1088;&#1072;&#1089;&#1095;&#1077;&#1090; &#1050;&#1051;</text><line style="stroke:#000000;stroke-width:1;stroke-dasharray:2.0,2.0;" x1="10" x2="623.5791" y1="376.625" y2="376.625"/><text fill="#000000" font-family="sans-serif" font-size="11" font-weight="bold" lengthAdjust="spacing" textLength="105.0532" x="15" y="386.8354">[&#1040;&#1074;&#1090;&#1086;&#1088;&#1072;&#1089;&#1095;&#1077;&#1090; ON]</text><line style="stroke:#181818;stroke-width:1;" x1="456.3652" x2="498.3652" y1="411.5625" y2="411.5625"/><line style="stroke:#181818;stroke-width:1;" x1="498.3652" x2="498.3652" y1="411.5625" y2="424.5625"/><line style="stroke:#181818;stroke-width:1;" x1="457.3652" x2="498.3652" y1="424.5625" y2="424.5625"/><polygon fill="#181818" points="467.3652,420.5625,457.3652,424.5625,467.3652,428.5625,463.3652,424.5625" style="stroke:#181818;stroke-width:1;"/><text fill="#000000" font-family="sans-serif" font-size="13" lengthAdjust="spacing" textLength="138.2139" x="463.3652" y="406.4966">&#1052;&#1077;&#1090;&#1086;&#1076; &#1085;&#1072; &#1088;&#1072;&#1089;&#1095;&#1077;&#1090; &#1050;&#1051;</text><path d="M364,444.5625 L364,499.5625 L537,499.5625 L537,454.5625 L527,444.5625 L364,444.5625 " fill="#87CEEB" style="stroke:#181818;stroke-width:0.5;"/><path d="M527,444.5625 L527,454.5625 L537,454.5625 L527,444.5625 " fill="#87CEEB" style="stroke:#181818;stroke-width:0.5;"/><text fill="#000000" font-family="sans-serif" font-size="13" lengthAdjust="spacing" textLength="110.646" x="370" y="461.6294">&#1047;&#1072;&#1087;&#1080;&#1089;&#1100; &#1079;&#1072;&#1103;&#1074;&#1082;&#1080; &#1074;</text><text fill="#000000" font-family="sans-serif" font-size="13" font-weight="bold" lengthAdjust="spacing" textLength="152.4009" x="370" y="476.7622">credit_card_requests</text><text fill="#000000" font-family="sans-serif" font-size="13" lengthAdjust="spacing" textLength="62.9878" x="370" y="491.895">[pending]</text><polygon fill="#181818" points="632.3379,522.0938,642.3379,526.0938,632.3379,530.0938,636.3379,526.0938" style="stroke:#181818;stroke-width:1;"/><line style="stroke:#181818;stroke-width:1;" x1="456.3652" x2="638.3379" y1="526.0938" y2="526.0938"/><text fill="#000000" font-family="sans-serif" font-size="13" lengthAdjust="spacing" textLength="100.1406" x="463.3652" y="521.0278">&#1056;&#1072;&#1089;&#1089;&#1095;&#1080;&#1090;&#1072;&#1090;&#1100; &#1050;&#1051;</text><path d="M550,539.0938 L550,579.0938 L747,579.0938 L747,549.0938 L737,539.0938 L550,539.0938 " fill="#87CEEB" style="stroke:#181818;stroke-width:0.5;"/><path d="M737,539.0938 L737,549.0938 L747,549.0938 L737,539.0938 " fill="#87CEEB" style="stroke:#181818;stroke-width:0.5;"/><text fill="#000000" font-family="sans-serif" font-size="13" lengthAdjust="spacing" textLength="83.4399" x="556" y="556.1606">&#1054;&#1073;&#1085;&#1086;&#1074;&#1083;&#1077;&#1085;&#1080;&#1103;</text><text fill="#000000" font-family="sans-serif" font-size="13" font-weight="bold" lengthAdjust="spacing" textLength="89.3433" x="643.5723" y="556.1606">credit_cards</text><text fill="#000000" font-family="sans-serif" font-size="13" lengthAdjust="spacing" textLength="101.0864" x="556" y="571.2935">&#1085;&#1072; [processing]</text><polygon fill="#181818" points="467.3652,601.4922,457.3652,605.4922,467.3652,609.4922,463.3652,605.4922" style="stroke:#181818;stroke-width:1;"/><line style="stroke:#181818;stroke-width:1;stroke-dasharray:2.0,2.0;" x1="461.3652" x2="648.3379" y1="605.4922" y2="605.4922"/><text fill="#000000" font-family="sans-serif" font-size="13" lengthAdjust="spacing" textLength="163.9727" x="473.3652" y="600.4263">&#1054;&#1073;&#1085;&#1086;&#1074;&#1083;&#1077;&#1085;&#1085;&#1086;&#1077; &#1087;&#1088;&#1077;&#1076;&#1089;&#1090;&#1072;&#1074;.</text><polygon fill="#181818" points="295.7271,630.625,285.7271,634.625,295.7271,638.625,291.7271,634.625" style="stroke:#181818;stroke-width:1;"/><line style="stroke:#181818;stroke-width:1;stroke-dasharray:2.0,2.0;" x1="289.7271" x2="450.3652" y1="634.625" y2="634.625"/><text fill="#000000" font-family="sans-serif" font-size="13" lengthAdjust="spacing" textLength="123.6587" x="301.7271" y="629.5591">&#1048;&#1085;&#1092;&#1086;&#1088;&#1084;&#1072;&#1094;&#1080;&#1103; &#1086; &#1050;&#1051;</text><polygon fill="#181818" points="85.5498,659.7578,75.5498,663.7578,85.5498,667.7578,81.5498,663.7578" style="stroke:#181818;stroke-width:1;"/><line style="stroke:#181818;stroke-width:1;stroke-dasharray:2.0,2.0;" x1="79.5498" x2="278.7271" y1="663.7578" y2="663.7578"/><text fill="#000000" font-family="sans-serif" font-size="13" lengthAdjust="spacing" textLength="160.6084" x="91.5498" y="658.6919">&#1057;&#1086;&#1089;&#1090;&#1086;&#1103;&#1085;&#1080;&#1077; &#1079;&#1072;&#1075;&#1088;&#1091;&#1079;&#1082;&#1080; &#1050;&#1051;</text><rect fill="#EEEEEE" height="3" style="stroke:#EEEEEE;stroke-width:1;" width="752.9155" x="0" y="692.3242"/><line style="stroke:#000000;stroke-width:1;" x1="0" x2="752.9155" y1="692.3242" y2="692.3242"/><line style="stroke:#000000;stroke-width:1;" x1="0" x2="752.9155" y1="695.3242" y2="695.3242"/><rect fill="#EEEEEE" height="23.1328" style="stroke:#000000;stroke-width:2;" width="91.2319" x="330.8418" y="681.7578"/><text fill="#000000" font-family="sans-serif" font-size="13" font-weight="bold" lengthAdjust="spacing" textLength="77.2319" x="336.8418" y="697.8247">&#1056;&#1072;&#1089;&#1095;&#1077;&#1090; &#1050;&#1051;</text><!--SRC=[ZLJDQjj04BxlKopgJU0yGAWADJJGGjf3wQ64OhRo4aGSIPNMWTvYfRINW7jgInkQv0rSDoB6gPLNc7sZpemZMJy4ueEaMSzyyyqtdwHy4oLo_NFW70guiQTmZVSvp6m6ESMELAbya-f4n2enWH_4AZIOVWRdyldRNUUk7fEUnd4p1_-MVUKVw73eS4R_MJVXHVG-TKe82eJmFFW1ArZOpx206TpWzHe9OMId4dx2ByyJoZV1aJAQCCC8xz6HJZ2GZruVVEoFnbh0TwoznPg9FPKmbwxh9teOc86lac7gkcBFL-4WqH_6EZNl19AK12JKo4Zu2dCKeB37s7TYlq1kC_bgPqSGptexFg1E4fjrIp3CKCmSmnaTS7g3o61Vcy4eECHGZKtakbkSKx6X08MLZtizccvRaZJs4_Vvjn6bO5quUwZhsh2mPKn0V4BxP4WwsQRQ5Mxz5fOuI7q0cgl4hL3O31LAxqa9yWq9yT0hAbkMaFQa1LdDXANhaNXJc5JOoRgwAMA70SwbHwc-PqqlEHcHA_mpRbp0rNteAFU3N4GsdE92bx10Iudc9k-inDQA4J48zsksMlCXWnEZ2sP071OaYSq8dPXKC_AhiE74XHjMl-4Fwpl7joFdTsNQDJWFknSdaQ_JjCE6rb_IQSFHSovv9pbS8S-CxBqbQjvYVWztPjELRVzTqkfvarCQXdgZrF3N7jiJV6AvMoZqjQc5R4hyS5oqLkjv_m40]--></g></svg>