<svg xmlns="http://www.w3.org/2000/svg" xmlns:xlink="http://www.w3.org/1999/xlink" contentStyleType="text/css" data-diagram-type="SEQUENCE" height="606px" preserveAspectRatio="none" style="width:441px;height:606px;background:#FFFFFF;" version="1.1" viewBox="0 0 441 606" width="441px" zoomAndPan="magnify"><defs/><g><rect fill="#FFFFFF" height="64.2656" style="stroke:#181818;stroke-width:1;" width="10" x="140.0425" y="46.2969"/><rect fill="#FFFFFF" height="328.0703" style="stroke:#181818;stroke-width:1;" width="10" x="140.0425" y="189.9609"/><rect fill="#FFFFFF" height="79.3984" style="stroke:#181818;stroke-width:1;" width="10" x="329.2852" y="110.5625"/><rect fill="none" height="306.0703" style="stroke:#000000;stroke-width:1.5;" width="304.832" x="9" y="204.9609"/><line style="stroke:#181818;stroke-width:0.5;stroke-dasharray:5.0,5.0;" x1="145" x2="145" y1="36.2969" y2="571.1641"/><line style="stroke:#181818;stroke-width:0.5;stroke-dasharray:5.0,5.0;" x1="267.6104" x2="267.6104" y1="36.2969" y2="571.1641"/><line style="stroke:#181818;stroke-width:0.5;stroke-dasharray:5.0,5.0;" x1="333.832" x2="333.832" y1="36.2969" y2="571.1641"/><rect fill="#E2E2F0" height="30.2969" rx="2.5" ry="2.5" style="stroke:#181818;stroke-width:0.5;" width="72.085" x="109" y="5"/><text fill="#000000" font-family="sans-serif" font-size="14" lengthAdjust="spacing" textLength="58.085" x="116" y="24.9951">IYM Jobs</text><rect fill="#E2E2F0" height="30.2969" rx="2.5" ry="2.5" style="stroke:#181818;stroke-width:0.5;" width="72.085" x="109" y="570.1641"/><text fill="#000000" font-family="sans-serif" font-size="14" lengthAdjust="spacing" textLength="58.085" x="116" y="590.1592">IYM Jobs</text><rect fill="#E2E2F0" height="30.2969" rx="2.5" ry="2.5" style="stroke:#181818;stroke-width:0.5;" width="72.2217" x="231.6104" y="5"/><text fill="#000000" font-family="sans-serif" font-size="14" lengthAdjust="spacing" textLength="58.2217" x="238.6104" y="24.9951">Tieto CS</text><rect fill="#E2E2F0" height="30.2969" rx="2.5" ry="2.5" style="stroke:#181818;stroke-width:0.5;" width="72.2217" x="231.6104" y="570.1641"/><text fill="#000000" font-family="sans-serif" font-size="14" lengthAdjust="spacing" textLength="58.2217" x="238.6104" y="590.1592">Tieto CS</text><rect fill="#E2E2F0" height="30.2969" rx="2.5" ry="2.5" style="stroke:#181818;stroke-width:0.5;" width="40.9063" x="313.832" y="5"/><text fill="#000000" font-family="sans-serif" font-size="14" lengthAdjust="spacing" textLength="26.9063" x="320.832" y="24.9951">SAP</text><rect fill="#E2E2F0" height="30.2969" rx="2.5" ry="2.5" style="stroke:#181818;stroke-width:0.5;" width="40.9063" x="313.832" y="570.1641"/><text fill="#000000" font-family="sans-serif" font-size="14" lengthAdjust="spacing" textLength="26.9063" x="320.832" y="590.1592">SAP</text><rect fill="#FFFFFF" height="64.2656" style="stroke:#181818;stroke-width:1;" width="10" x="140.0425" y="46.2969"/><rect fill="#FFFFFF" height="328.0703" style="stroke:#181818;stroke-width:1;" width="10" x="140.0425" y="189.9609"/><rect fill="#FFFFFF" height="79.3984" style="stroke:#181818;stroke-width:1;" width="10" x="329.2852" y="110.5625"/><rect fill="#EEEEEE" height="3" style="stroke:#EEEEEE;stroke-width:1;" width="434.4092" x="0" y="66.8633"/><line style="stroke:#000000;stroke-width:1;" x1="0" x2="434.4092" y1="66.8633" y2="66.8633"/><line style="stroke:#000000;stroke-width:1;" x1="0" x2="434.4092" y1="69.8633" y2="69.8633"/><rect fill="#EEEEEE" height="23.1328" style="stroke:#000000;stroke-width:2;" width="91.2319" x="171.5886" y="56.2969"/><text fill="#000000" font-family="sans-serif" font-size="13" font-weight="bold" lengthAdjust="spacing" textLength="77.2319" x="177.5886" y="72.3638">&#1056;&#1072;&#1089;&#1095;&#1077;&#1090; &#1050;&#1051;</text><polygon fill="#181818" points="317.2852,106.5625,327.2852,110.5625,317.2852,114.5625,321.2852,110.5625" style="stroke:#181818;stroke-width:1;"/><line style="stroke:#181818;stroke-width:1;" x1="145.0425" x2="323.2852" y1="110.5625" y2="110.5625"/><text fill="#000000" font-family="sans-serif" font-size="13" lengthAdjust="spacing" textLength="140.6133" x="152.0425" y="105.4966">&#1057;&#1086;&#1073;&#1088;&#1072;&#1090;&#1100;/&#1042;&#1077;&#1088;&#1085;&#1091;&#1090;&#1100; &#1050;&#1051;</text><path d="M238,123.5625 L238,163.5625 L429,163.5625 L429,133.5625 L419,123.5625 L238,123.5625 " fill="#FEFFDD" style="stroke:#181818;stroke-width:0.5;"/><path d="M419,123.5625 L419,133.5625 L429,133.5625 L419,123.5625 " fill="#FEFFDD" style="stroke:#181818;stroke-width:0.5;"/><text fill="#000000" font-family="sans-serif" font-size="13" lengthAdjust="spacing" textLength="126.6294" x="244" y="140.6294">&#1047;&#1072; &#1089;&#1091;&#1084;&#1084;&#1091; &#1050;&#1051; &#1074; SAP</text><text fill="#000000" font-family="sans-serif" font-size="13" lengthAdjust="spacing" textLength="62.4038" x="244" y="155.7622">&#1086;&#1090;&#1074;&#1077;&#1095;&#1072;&#1077;&#1090;</text><text fill="#000000" font-family="sans-serif" font-size="13" font-weight="bold" lengthAdjust="spacing" textLength="103.873" x="310.5361" y="155.7622">MAX_AMOUNT</text><polygon fill="#181818" points="161.0425,185.9609,151.0425,189.9609,161.0425,193.9609,157.0425,189.9609" style="stroke:#181818;stroke-width:1;"/><line style="stroke:#181818;stroke-width:1;stroke-dasharray:2.0,2.0;" x1="155.0425" x2="333.2852" y1="189.9609" y2="189.9609"/><text fill="#000000" font-family="sans-serif" font-size="13" lengthAdjust="spacing" textLength="100.6294" x="167.0425" y="184.895">&#1056;&#1077;&#1079;&#1091;&#1083;&#1100;&#1072;&#1090;&#1072;&#1090; &#1050;&#1051;</text><path d="M9,204.9609 L73.4429,204.9609 L73.4429,212.0938 L63.4429,222.0938 L9,222.0938 L9,204.9609 " fill="#EEEEEE" style="stroke:#000000;stroke-width:1.5;"/><rect fill="none" height="306.0703" style="stroke:#000000;stroke-width:1.5;" width="304.832" x="9" y="204.9609"/><text fill="#000000" font-family="sans-serif" font-size="13" font-weight="bold" lengthAdjust="spacing" textLength="19.4429" x="24" y="218.0278">alt</text><text fill="#000000" font-family="sans-serif" font-size="11" font-weight="bold" lengthAdjust="spacing" textLength="52.7119" x="88.4429" y="217.1714">[&#1050;&#1051; = 0]</text><path d="M19,227.0938 L19,267.0938 L270,267.0938 L270,237.0938 L260,227.0938 L19,227.0938 " fill="#87CEEB" style="stroke:#181818;stroke-width:0.5;"/><path d="M260,227.0938 L260,237.0938 L270,237.0938 L260,227.0938 " fill="#87CEEB" style="stroke:#181818;stroke-width:0.5;"/><text fill="#000000" font-family="sans-serif" font-size="13" lengthAdjust="spacing" textLength="66.0474" x="25" y="244.1606">&#1054;&#1073;&#1085;&#1086;&#1074;&#1080;&#1090;&#1100;</text><text fill="#000000" font-family="sans-serif" font-size="13" font-weight="bold" lengthAdjust="spacing" textLength="160.1387" x="95.1797" y="244.1606">credit_cards_requests</text><text fill="#000000" font-family="sans-serif" font-size="13" lengthAdjust="spacing" textLength="84.189" x="25" y="259.2935">&#1085;&#1072; [rejected]</text><path d="M54,277.3594 L54,317.3594 L234,317.3594 L234,287.3594 L224,277.3594 L54,277.3594 " fill="#87CEEB" style="stroke:#181818;stroke-width:0.5;"/><path d="M224,277.3594 L224,287.3594 L234,287.3594 L224,277.3594 " fill="#87CEEB" style="stroke:#181818;stroke-width:0.5;"/><text fill="#000000" font-family="sans-serif" font-size="13" lengthAdjust="spacing" textLength="66.0474" x="60" y="294.4263">&#1054;&#1073;&#1085;&#1086;&#1074;&#1080;&#1090;&#1100;</text><text fill="#000000" font-family="sans-serif" font-size="13" font-weight="bold" lengthAdjust="spacing" textLength="89.3433" x="130.1797" y="294.4263">credit_cards</text><text fill="#000000" font-family="sans-serif" font-size="13" lengthAdjust="spacing" textLength="136.7793" x="60" y="309.5591">&#1085;&#1072; [0, not_approved]</text><line style="stroke:#000000;stroke-width:1;stroke-dasharray:2.0,2.0;" x1="9" x2="313.832" y1="323.625" y2="323.625"/><text fill="#000000" font-family="sans-serif" font-size="11" font-weight="bold" lengthAdjust="spacing" textLength="52.7119" x="14" y="333.8354">[&#1050;&#1051; &gt; 0]</text><path d="M19,342.4297 L19,382.4297 L270,382.4297 L270,352.4297 L260,342.4297 L19,342.4297 " fill="#87CEEB" style="stroke:#181818;stroke-width:0.5;"/><path d="M260,342.4297 L260,352.4297 L270,352.4297 L260,342.4297 " fill="#87CEEB" style="stroke:#181818;stroke-width:0.5;"/><text fill="#000000" font-family="sans-serif" font-size="13" lengthAdjust="spacing" textLength="66.0474" x="25" y="359.4966">&#1054;&#1073;&#1085;&#1086;&#1074;&#1080;&#1090;&#1100;</text><text fill="#000000" font-family="sans-serif" font-size="13" font-weight="bold" lengthAdjust="spacing" textLength="160.1387" x="95.1797" y="359.4966">credit_cards_requests</text><text fill="#000000" font-family="sans-serif" font-size="13" lengthAdjust="spacing" textLength="92.4536" x="25" y="374.6294">&#1085;&#1072; [approved]</text><path d="M54,392.6953 L54,432.6953 L234,432.6953 L234,402.6953 L224,392.6953 L54,392.6953 " fill="#87CEEB" style="stroke:#181818;stroke-width:0.5;"/><path d="M224,392.6953 L224,402.6953 L234,402.6953 L224,392.6953 " fill="#87CEEB" style="stroke:#181818;stroke-width:0.5;"/><text fill="#000000" font-family="sans-serif" font-size="13" lengthAdjust="spacing" textLength="66.0474" x="60" y="409.7622">&#1054;&#1073;&#1085;&#1086;&#1074;&#1080;&#1090;&#1100;</text><text fill="#000000" font-family="sans-serif" font-size="13" font-weight="bold" lengthAdjust="spacing" textLength="89.3433" x="130.1797" y="409.7622">credit_cards</text><text fill="#000000" font-family="sans-serif" font-size="13" lengthAdjust="spacing" textLength="86.0933" x="60" y="424.895">&#1085;&#1072; [&#1050;&#1051;, paid]</text><polygon fill="#181818" points="255.7212,455.0938,265.7212,459.0938,255.7212,463.0938,259.7212,459.0938" style="stroke:#181818;stroke-width:1;"/><line style="stroke:#181818;stroke-width:1;" x1="150.0425" x2="261.7212" y1="459.0938" y2="459.0938"/><text fill="#000000" font-family="sans-serif" font-size="13" lengthAdjust="spacing" textLength="93.6787" x="157.0425" y="454.0278">&#1059;&#1089;&#1090;&#1072;&#1085;&#1086;&#1074;&#1082;&#1072; &#1050;&#1051;</text><line style="stroke:#000000;stroke-width:1;stroke-dasharray:2.0,2.0;" x1="9" x2="313.832" y1="468.0938" y2="468.0938"/><text fill="#000000" font-family="sans-serif" font-size="11" font-weight="bold" lengthAdjust="spacing" textLength="79.0786" x="14" y="478.3042">[&#1053;&#1077;&#1090; &#1086;&#1090;&#1074;&#1077;&#1090;&#1072;]</text><polygon fill="#181818" points="422.4092,499.0313,432.4092,503.0313,422.4092,507.0313,426.4092,503.0313" style="stroke:#181818;stroke-width:1;"/><line style="stroke:#181818;stroke-width:1;" x1="150.0425" x2="428.4092" y1="503.0313" y2="503.0313"/><text fill="#000000" font-family="sans-serif" font-size="13" lengthAdjust="spacing" textLength="99.6011" x="157.0425" y="497.9653">&#1056;&#1091;&#1095;&#1085;&#1086;&#1081; &#1088;&#1072;&#1079;&#1073;&#1086;&#1088;</text><rect fill="#EEEEEE" height="3" style="stroke:#EEEEEE;stroke-width:1;" width="434.4092" x="0" y="538.5977"/><line style="stroke:#000000;stroke-width:1;" x1="0" x2="434.4092" y1="538.5977" y2="538.5977"/><line style="stroke:#000000;stroke-width:1;" x1="0" x2="434.4092" y1="541.5977" y2="541.5977"/><rect fill="#EEEEEE" height="23.1328" style="stroke:#000000;stroke-width:2;" width="113.0107" x="160.6992" y="528.0313"/><text fill="#000000" font-family="sans-serif" font-size="13" font-weight="bold" lengthAdjust="spacing" textLength="99.0107" x="166.6992" y="544.0981">&#1055;&#1088;&#1086;&#1074;&#1077;&#1088;&#1082;&#1072; &#1050;&#1051;</text><!--SRC=[jLFBIiD05DtdAuQw2orsBQPGkrAe2gcWY8IOp29QcfXC1NUnNNJJbHj1KIl-G5iezT7c6-xyaNTcJ3IjhjH0GkxCkUUSEvm9x91vZXVOBKOAcmTrikKVHmKY7ZkIXHPyXJGyodnICpD8esRc4MPrLssc25pGDCE00Gpv9U_1X7S8tC2jOMYsmxnpcr4b93waL14DP8t08oGmuZ5sTNX_5QwmCOOvxufI4cWkpHDabP1i-VZZdzDGLd0DGuBoNPZ1Z7TbFu6nsaju1yP8tuEXTAVhzUg-LQtlx6qtT5sZBPS8DcLmlLHA7GvW0bEaVEDzuLAyIyQ4m8BB9bFo1Ybhuem-dKg15VFqOgFPfd8Fxc44Spo9CJpBmNNT2QdhCSknGpUoGdhMfX6BqAQ4pt7Cmv2UK8THzqYkPVP_gPMJA1S5bMK7GOXiYqgq6L4rO-M_Pln1-Izd50CKIM1xtucaOSNyYoWyOROm01_KhzWkWw0EuavbFeqPud8K8aaOwvviVY4YyZ15cmcFHVQMOevtwG51YIIBCp73U0S0]--></g></svg>