<svg xmlns="http://www.w3.org/2000/svg" xmlns:xlink="http://www.w3.org/1999/xlink" contentStyleType="text/css" data-diagram-type="SEQUENCE" height="553px" preserveAspectRatio="none" style="width:514px;height:553px;background:#FFFFFF;" version="1.1" viewBox="0 0 514 553" width="514px" zoomAndPan="magnify"><defs/><g><rect fill="#FFFFFF" height="158.7969" style="stroke:#181818;stroke-width:1;" width="10" x="149.6138" y="110.5625"/><rect fill="#FFFFFF" height="158.7969" style="stroke:#181818;stroke-width:1;" width="10" x="149.6138" y="341.625"/><rect fill="#FFFFFF" height="38.1328" style="stroke:#181818;stroke-width:1;" width="10" x="346.6743" y="471.2891"/><rect fill="#FFFFFF" height="64.2656" style="stroke:#181818;stroke-width:1;" width="10" x="413.2383" y="46.2969"/><rect fill="#FFFFFF" height="151.6641" style="stroke:#181818;stroke-width:1;" width="10" x="413.2383" y="189.9609"/><line style="stroke:#181818;stroke-width:0.5;stroke-dasharray:5.0,5.0;" x1="56" x2="56" y1="36.2969" y2="518.4219"/><line style="stroke:#181818;stroke-width:0.5;stroke-dasharray:5.0,5.0;" x1="154.5713" x2="154.5713" y1="36.2969" y2="518.4219"/><line style="stroke:#181818;stroke-width:0.5;stroke-dasharray:5.0,5.0;" x1="351.5635" x2="351.5635" y1="36.2969" y2="518.4219"/><line style="stroke:#181818;stroke-width:0.5;stroke-dasharray:5.0,5.0;" x1="417.7852" x2="417.7852" y1="36.2969" y2="518.4219"/><rect fill="#E2E2F0" height="30.2969" rx="2.5" ry="2.5" style="stroke:#181818;stroke-width:0.5;" width="103.5713" x="5" y="5"/><text fill="#000000" font-family="sans-serif" font-size="14" lengthAdjust="spacing" textLength="89.5713" x="12" y="24.9951">IYM Backend</text><rect fill="#E2E2F0" height="30.2969" rx="2.5" ry="2.5" style="stroke:#181818;stroke-width:0.5;" width="103.5713" x="5" y="517.4219"/><text fill="#000000" font-family="sans-serif" font-size="14" lengthAdjust="spacing" textLength="89.5713" x="12" y="537.417">IYM Backend</text><rect fill="#E2E2F0" height="30.2969" rx="2.5" ry="2.5" style="stroke:#181818;stroke-width:0.5;" width="72.085" x="118.5713" y="5"/><text fill="#000000" font-family="sans-serif" font-size="14" lengthAdjust="spacing" textLength="58.085" x="125.5713" y="24.9951">IYM Jobs</text><rect fill="#E2E2F0" height="30.2969" rx="2.5" ry="2.5" style="stroke:#181818;stroke-width:0.5;" width="72.085" x="118.5713" y="517.4219"/><text fill="#000000" font-family="sans-serif" font-size="14" lengthAdjust="spacing" textLength="58.085" x="125.5713" y="537.417">IYM Jobs</text><rect fill="#E2E2F0" height="30.2969" rx="2.5" ry="2.5" style="stroke:#181818;stroke-width:0.5;" width="72.2217" x="315.5635" y="5"/><text fill="#000000" font-family="sans-serif" font-size="14" lengthAdjust="spacing" textLength="58.2217" x="322.5635" y="24.9951">Tieto CS</text><rect fill="#E2E2F0" height="30.2969" rx="2.5" ry="2.5" style="stroke:#181818;stroke-width:0.5;" width="72.2217" x="315.5635" y="517.4219"/><text fill="#000000" font-family="sans-serif" font-size="14" lengthAdjust="spacing" textLength="58.2217" x="322.5635" y="537.417">Tieto CS</text><rect fill="#E2E2F0" height="30.2969" rx="2.5" ry="2.5" style="stroke:#181818;stroke-width:0.5;" width="40.9063" x="397.7852" y="5"/><text fill="#000000" font-family="sans-serif" font-size="14" lengthAdjust="spacing" textLength="26.9063" x="404.7852" y="24.9951">SAP</text><rect fill="#E2E2F0" height="30.2969" rx="2.5" ry="2.5" style="stroke:#181818;stroke-width:0.5;" width="40.9063" x="397.7852" y="517.4219"/><text fill="#000000" font-family="sans-serif" font-size="14" lengthAdjust="spacing" textLength="26.9063" x="404.7852" y="537.417">SAP</text><rect fill="#FFFFFF" height="158.7969" style="stroke:#181818;stroke-width:1;" width="10" x="149.6138" y="110.5625"/><rect fill="#FFFFFF" height="158.7969" style="stroke:#181818;stroke-width:1;" width="10" x="149.6138" y="341.625"/><rect fill="#FFFFFF" height="38.1328" style="stroke:#181818;stroke-width:1;" width="10" x="346.6743" y="471.2891"/><rect fill="#FFFFFF" height="64.2656" style="stroke:#181818;stroke-width:1;" width="10" x="413.2383" y="46.2969"/><rect fill="#FFFFFF" height="151.6641" style="stroke:#181818;stroke-width:1;" width="10" x="413.2383" y="189.9609"/><rect fill="#EEEEEE" height="3" style="stroke:#EEEEEE;stroke-width:1;" width="507.7095" x="0" y="66.8633"/><line style="stroke:#000000;stroke-width:1;" x1="0" x2="507.7095" y1="66.8633" y2="66.8633"/><line style="stroke:#000000;stroke-width:1;" x1="0" x2="507.7095" y1="69.8633" y2="69.8633"/><rect fill="#EEEEEE" height="23.1328" style="stroke:#000000;stroke-width:2;" width="113.144" x="197.2827" y="56.2969"/><text fill="#000000" font-family="sans-serif" font-size="13" font-weight="bold" lengthAdjust="spacing" textLength="99.144" x="203.2827" y="72.3638">&#1054;&#1090;&#1082;&#1088;&#1099;&#1090;&#1080;&#1077; &#1050;&#1040;</text><polygon fill="#181818" points="170.6138,106.5625,160.6138,110.5625,170.6138,114.5625,166.6138,110.5625" style="stroke:#181818;stroke-width:1;"/><line style="stroke:#181818;stroke-width:1;stroke-dasharray:2.0,2.0;" x1="164.6138" x2="417.2383" y1="110.5625" y2="110.5625"/><text fill="#000000" font-family="sans-serif" font-size="13" lengthAdjust="spacing" textLength="100.6294" x="176.6138" y="105.4966">&#1056;&#1077;&#1079;&#1091;&#1083;&#1100;&#1072;&#1090;&#1072;&#1090; &#1050;&#1051;</text><path d="M75,123.5625 L75,163.5625 L233,163.5625 L233,133.5625 L223,123.5625 L75,123.5625 " fill="#FEFFDD" style="stroke:#181818;stroke-width:0.5;"/><path d="M223,123.5625 L223,133.5625 L233,133.5625 L223,123.5625 " fill="#FEFFDD" style="stroke:#181818;stroke-width:0.5;"/><text fill="#000000" font-family="sans-serif" font-size="13" lengthAdjust="spacing" textLength="137.4458" x="81" y="140.6294">&#1057;&#1085;&#1072;&#1095;&#1072;&#1083;&#1072; &#1079;&#1076;&#1077;&#1089;&#1100; &#1080;&#1076;&#1077;&#1090;</text><text fill="#000000" font-family="sans-serif" font-size="13" lengthAdjust="spacing" textLength="82.145" x="81" y="155.7622">&#1088;&#1072;&#1073;&#1086;&#1090;&#1072; &#1089; &#1050;&#1051;</text><polygon fill="#181818" points="401.2383,185.9609,411.2383,189.9609,401.2383,193.9609,405.2383,189.9609" style="stroke:#181818;stroke-width:1;"/><line style="stroke:#181818;stroke-width:1;" x1="159.6138" x2="407.2383" y1="189.9609" y2="189.9609"/><text fill="#000000" font-family="sans-serif" font-size="13" lengthAdjust="spacing" textLength="161.0527" x="166.6138" y="184.895">&#1047;&#1072;&#1087;&#1088;&#1086;&#1089; &#1085;&#1072; &#1086;&#1090;&#1082;&#1088;&#1099;&#1090;&#1080;&#1077; &#1050;&#1040;</text><path d="M28,202.9609 L28,242.9609 L279,242.9609 L279,212.9609 L269,202.9609 L28,202.9609 " fill="#87CEEB" style="stroke:#181818;stroke-width:0.5;"/><path d="M269,202.9609 L269,212.9609 L279,212.9609 L269,202.9609 " fill="#87CEEB" style="stroke:#181818;stroke-width:0.5;"/><text fill="#000000" font-family="sans-serif" font-size="13" lengthAdjust="spacing" textLength="66.0474" x="34" y="220.0278">&#1054;&#1073;&#1085;&#1086;&#1074;&#1080;&#1090;&#1100;</text><text fill="#000000" font-family="sans-serif" font-size="13" font-weight="bold" lengthAdjust="spacing" textLength="160.1387" x="104.1797" y="220.0278">credit_cards_requests</text><text fill="#000000" font-family="sans-serif" font-size="13" lengthAdjust="spacing" textLength="181.0098" x="34" y="235.1606">&#1085;&#1072; [credit_application_sent]</text><polygon fill="#181818" points="11,265.3594,1,269.3594,11,273.3594,7,269.3594" style="stroke:#181818;stroke-width:1;"/><line style="stroke:#181818;stroke-width:1;stroke-dasharray:2.0,2.0;" x1="5" x2="153.6138" y1="269.3594" y2="269.3594"/><text fill="#000000" font-family="sans-serif" font-size="13" lengthAdjust="spacing" textLength="75.791" x="17" y="264.2935">&#1047;&#1072;&#1074;&#1077;&#1088;&#1096;&#1080;&#1090;&#1100;</text><rect fill="#EEEEEE" height="3" style="stroke:#EEEEEE;stroke-width:1;" width="507.7095" x="0" y="297.9258"/><line style="stroke:#000000;stroke-width:1;" x1="0" x2="507.7095" y1="297.9258" y2="297.9258"/><line style="stroke:#000000;stroke-width:1;" x1="0" x2="507.7095" y1="300.9258" y2="300.9258"/><rect fill="#EEEEEE" height="23.1328" style="stroke:#000000;stroke-width:2;" width="121.6689" x="193.0203" y="287.3594"/><text fill="#000000" font-family="sans-serif" font-size="13" font-weight="bold" lengthAdjust="spacing" textLength="107.6689" x="199.0203" y="303.4263">&#1055;&#1086;&#1083;&#1091;&#1095;&#1077;&#1085;&#1080;&#1077; &#1050;&#1040;</text><polygon fill="#181818" points="170.6138,337.625,160.6138,341.625,170.6138,345.625,166.6138,341.625" style="stroke:#181818;stroke-width:1;"/><line style="stroke:#181818;stroke-width:1;stroke-dasharray:2.0,2.0;" x1="164.6138" x2="417.2383" y1="341.625" y2="341.625"/><text fill="#000000" font-family="sans-serif" font-size="13" lengthAdjust="spacing" textLength="153.8926" x="176.6138" y="336.5591">&#1054;&#1090;&#1074;&#1077;&#1090; &#1086;&#1073; &#1086;&#1090;&#1082;&#1088;&#1099;&#1090;&#1080;&#1080; &#1050;&#1040;</text><path d="M332,354.625 L332,394.625 L502,394.625 L502,364.625 L492,354.625 L332,354.625 " fill="#FEFFDD" style="stroke:#181818;stroke-width:0.5;"/><path d="M492,354.625 L492,364.625 L502,364.625 L492,354.625 " fill="#FEFFDD" style="stroke:#181818;stroke-width:0.5;"/><text fill="#000000" font-family="sans-serif" font-size="13" lengthAdjust="spacing" textLength="149.7095" x="338" y="371.6919">&#1059;&#1089;&#1087;&#1077;&#1096;&#1085;&#1099;&#1084;&#1080; &#1103;&#1074;&#1083;&#1103;&#1102;&#1090;&#1089;&#1103;</text><text fill="#000000" font-family="sans-serif" font-size="13" font-weight="bold" lengthAdjust="spacing" textLength="103.8413" x="338" y="386.8247">STATUS_CODE</text><text fill="#000000" font-family="sans-serif" font-size="13" lengthAdjust="spacing" textLength="24.8066" x="445.9736" y="386.8247">1, 3</text><path d="M28,404.8906 L28,444.8906 L279,444.8906 L279,414.8906 L269,404.8906 L28,404.8906 " fill="#87CEEB" style="stroke:#181818;stroke-width:0.5;"/><path d="M269,404.8906 L269,414.8906 L279,414.8906 L269,404.8906 " fill="#87CEEB" style="stroke:#181818;stroke-width:0.5;"/><text fill="#000000" font-family="sans-serif" font-size="13" lengthAdjust="spacing" textLength="66.0474" x="34" y="421.9575">&#1054;&#1073;&#1085;&#1086;&#1074;&#1080;&#1090;&#1100;</text><text fill="#000000" font-family="sans-serif" font-size="13" font-weight="bold" lengthAdjust="spacing" textLength="160.1387" x="104.1797" y="421.9575">credit_cards_requests</text><text fill="#000000" font-family="sans-serif" font-size="13" lengthAdjust="spacing" textLength="81.5928" x="34" y="437.0903">&#1085;&#1072; [success]</text><polygon fill="#181818" points="334.6743,467.2891,344.6743,471.2891,334.6743,475.2891,338.6743,471.2891" style="stroke:#181818;stroke-width:1;"/><line style="stroke:#181818;stroke-width:1;" x1="159.6138" x2="340.6743" y1="471.2891" y2="471.2891"/><text fill="#000000" font-family="sans-serif" font-size="13" lengthAdjust="spacing" textLength="168.0605" x="166.6138" y="466.2231">&#1055;&#1088;&#1080;&#1074;&#1103;&#1079;&#1072;&#1090;&#1100; ID &#1050;&#1040; &#1082; &#1082;&#1072;&#1088;&#1090;&#1077;</text><polygon fill="#181818" points="11,496.4219,1,500.4219,11,504.4219,7,500.4219" style="stroke:#181818;stroke-width:1;"/><line style="stroke:#181818;stroke-width:1;stroke-dasharray:2.0,2.0;" x1="5" x2="153.6138" y1="500.4219" y2="500.4219"/><text fill="#000000" font-family="sans-serif" font-size="13" lengthAdjust="spacing" textLength="75.791" x="17" y="495.356">&#1047;&#1072;&#1074;&#1077;&#1088;&#1096;&#1080;&#1090;&#1100;</text><!--SRC=[hLDDI-DG5Ds_Nt6fkp1TYBjXEc2h2mV4WTI5Y9GtwLi49ObvhuAxjYuKbAaxGK4T_0Er65giZN_XtdyqzoLrQkei50m9UI_tuvnppqiaO-DxVYG30wMrhNMeIczN1SqII0tLLH7Dnt-4ltG9-EAuNHSpwhuo8TJSbunwpIqckCi_inXC4tWlHAM2rzJ5HshJARz7c01Uudcb8gHd_0DfL9PduU1RkMmty1Nm5XCSqX6EwGpxNCUFhRiIJLMe-xV9-0OXhy835UTR_8CJhZp6Fewn3pZ41qoeGsV0FEooAwZDmNjCBGHG9yVW6O5jbRCgVtyXTS6vproHsiI9xPZ-HrfHM94IBBYxXzMzbX9upR0JJ7608-eo9SVnOjNqJSEJSLCtOhNVKjfenn4PrFOqAgDep_UaySEWeLLWTcPixVWoa2dL0IjiqqdU__NWik6mCJSCFwOZ7b326A-icNV3EcYxiGSfti_B7kMot-cCZU4TTV2P6vxWX4xnYLjGZn76rAFVpBP3FU4uRdsvlkasQXihguu3YrzWQQRrqyQgMvwdjDvvQpgVRwlzXWqVuO3v3Uqfv9PhAvbWm4U- -LkRfv3CzDh_uaDM_0K0]--></g></svg>