<svg xmlns="http://www.w3.org/2000/svg" xmlns:xlink="http://www.w3.org/1999/xlink" contentStyleType="text/css" data-diagram-type="SEQUENCE" height="365px" preserveAspectRatio="none" style="width:352px;height:365px;background:#FFFFFF;" version="1.1" viewBox="0 0 352 365" width="352px" zoomAndPan="magnify"><defs/><g><rect fill="#FFFFFF" height="158.7969" style="stroke:#181818;stroke-width:1;" width="10" x="124.791" y="110.5625"/><rect fill="#FFFFFF" height="64.2656" style="stroke:#181818;stroke-width:1;" width="10" x="314.8438" y="46.2969"/><rect fill="#FFFFFF" height="131.5313" style="stroke:#181818;stroke-width:1;" width="10" x="314.8438" y="189.9609"/><line style="stroke:#181818;stroke-width:0.5;stroke-dasharray:5.0,5.0;" x1="129.7485" x2="129.7485" y1="36.2969" y2="330.4922"/><line style="stroke:#181818;stroke-width:0.5;stroke-dasharray:5.0,5.0;" x1="211.8335" x2="211.8335" y1="36.2969" y2="330.4922"/><line style="stroke:#181818;stroke-width:0.5;stroke-dasharray:5.0,5.0;" x1="319.3906" x2="319.3906" y1="36.2969" y2="330.4922"/><rect fill="#E2E2F0" height="30.2969" rx="2.5" ry="2.5" style="stroke:#181818;stroke-width:0.5;" width="72.085" x="93.7485" y="5"/><text fill="#000000" font-family="sans-serif" font-size="14" lengthAdjust="spacing" textLength="58.085" x="100.7485" y="24.9951">IYM Jobs</text><rect fill="#E2E2F0" height="30.2969" rx="2.5" ry="2.5" style="stroke:#181818;stroke-width:0.5;" width="72.085" x="93.7485" y="329.4922"/><text fill="#000000" font-family="sans-serif" font-size="14" lengthAdjust="spacing" textLength="58.085" x="100.7485" y="349.4873">IYM Jobs</text><rect fill="#E2E2F0" height="30.2969" rx="2.5" ry="2.5" style="stroke:#181818;stroke-width:0.5;" width="72.2217" x="175.8335" y="5"/><text fill="#000000" font-family="sans-serif" font-size="14" lengthAdjust="spacing" textLength="58.2217" x="182.8335" y="24.9951">Tieto CS</text><rect fill="#E2E2F0" height="30.2969" rx="2.5" ry="2.5" style="stroke:#181818;stroke-width:0.5;" width="72.2217" x="175.8335" y="329.4922"/><text fill="#000000" font-family="sans-serif" font-size="14" lengthAdjust="spacing" textLength="58.2217" x="182.8335" y="349.4873">Tieto CS</text><rect fill="#E2E2F0" height="30.2969" rx="2.5" ry="2.5" style="stroke:#181818;stroke-width:0.5;" width="40.9063" x="299.3906" y="5"/><text fill="#000000" font-family="sans-serif" font-size="14" lengthAdjust="spacing" textLength="26.9063" x="306.3906" y="24.9951">SAP</text><rect fill="#E2E2F0" height="30.2969" rx="2.5" ry="2.5" style="stroke:#181818;stroke-width:0.5;" width="40.9063" x="299.3906" y="329.4922"/><text fill="#000000" font-family="sans-serif" font-size="14" lengthAdjust="spacing" textLength="26.9063" x="306.3906" y="349.4873">SAP</text><rect fill="#FFFFFF" height="158.7969" style="stroke:#181818;stroke-width:1;" width="10" x="124.791" y="110.5625"/><rect fill="#FFFFFF" height="64.2656" style="stroke:#181818;stroke-width:1;" width="10" x="314.8438" y="46.2969"/><rect fill="#FFFFFF" height="131.5313" style="stroke:#181818;stroke-width:1;" width="10" x="314.8438" y="189.9609"/><rect fill="#EEEEEE" height="3" style="stroke:#EEEEEE;stroke-width:1;" width="345.2969" x="0" y="66.8633"/><line style="stroke:#000000;stroke-width:1;" x1="0" x2="345.2969" y1="66.8633" y2="66.8633"/><line style="stroke:#000000;stroke-width:1;" x1="0" x2="345.2969" y1="69.8633" y2="69.8633"/><rect fill="#EEEEEE" height="23.1328" style="stroke:#000000;stroke-width:2;" width="113.144" x="116.0764" y="56.2969"/><text fill="#000000" font-family="sans-serif" font-size="13" font-weight="bold" lengthAdjust="spacing" textLength="99.144" x="122.0764" y="72.3638">&#1054;&#1090;&#1082;&#1088;&#1099;&#1090;&#1080;&#1077; &#1050;&#1040;</text><polygon fill="#181818" points="145.791,106.5625,135.791,110.5625,145.791,114.5625,141.791,110.5625" style="stroke:#181818;stroke-width:1;"/><line style="stroke:#181818;stroke-width:1;stroke-dasharray:2.0,2.0;" x1="139.791" x2="318.8438" y1="110.5625" y2="110.5625"/><text fill="#000000" font-family="sans-serif" font-size="13" lengthAdjust="spacing" textLength="100.6294" x="151.791" y="105.4966">&#1056;&#1077;&#1079;&#1091;&#1083;&#1100;&#1072;&#1090;&#1072;&#1090; &#1050;&#1051;</text><path d="M50,123.5625 L50,163.5625 L208,163.5625 L208,133.5625 L198,123.5625 L50,123.5625 " fill="#FEFFDD" style="stroke:#181818;stroke-width:0.5;"/><path d="M198,123.5625 L198,133.5625 L208,133.5625 L198,123.5625 " fill="#FEFFDD" style="stroke:#181818;stroke-width:0.5;"/><text fill="#000000" font-family="sans-serif" font-size="13" lengthAdjust="spacing" textLength="137.4458" x="56" y="140.6294">&#1057;&#1085;&#1072;&#1095;&#1072;&#1083;&#1072; &#1079;&#1076;&#1077;&#1089;&#1100; &#1080;&#1076;&#1077;&#1090;</text><text fill="#000000" font-family="sans-serif" font-size="13" lengthAdjust="spacing" textLength="82.145" x="56" y="155.7622">&#1088;&#1072;&#1073;&#1086;&#1090;&#1072; &#1089; &#1050;&#1051;</text><polygon fill="#181818" points="302.8438,185.9609,312.8438,189.9609,302.8438,193.9609,306.8438,189.9609" style="stroke:#181818;stroke-width:1;"/><line style="stroke:#181818;stroke-width:1;" x1="134.791" x2="308.8438" y1="189.9609" y2="189.9609"/><text fill="#000000" font-family="sans-serif" font-size="13" lengthAdjust="spacing" textLength="161.0527" x="141.791" y="184.895">&#1047;&#1072;&#1087;&#1088;&#1086;&#1089; &#1085;&#1072; &#1086;&#1090;&#1082;&#1088;&#1099;&#1090;&#1080;&#1077; &#1050;&#1040;</text><path d="M5,202.9609 L5,242.9609 L256,242.9609 L256,212.9609 L246,202.9609 L5,202.9609 " fill="#87CEEB" style="stroke:#181818;stroke-width:0.5;"/><path d="M246,202.9609 L246,212.9609 L256,212.9609 L246,202.9609 " fill="#87CEEB" style="stroke:#181818;stroke-width:0.5;"/><text fill="#000000" font-family="sans-serif" font-size="13" lengthAdjust="spacing" textLength="66.0474" x="11" y="220.0278">&#1054;&#1073;&#1085;&#1086;&#1074;&#1080;&#1090;&#1100;</text><text fill="#000000" font-family="sans-serif" font-size="13" font-weight="bold" lengthAdjust="spacing" textLength="160.1387" x="81.1797" y="220.0278">credit_cards_requests</text><text fill="#000000" font-family="sans-serif" font-size="13" lengthAdjust="spacing" textLength="181.0098" x="11" y="235.1606">&#1085;&#1072; [credit_application_sent]</text><polygon fill="#181818" points="11,265.3594,1,269.3594,11,273.3594,7,269.3594" style="stroke:#181818;stroke-width:1;"/><line style="stroke:#181818;stroke-width:1;stroke-dasharray:2.0,2.0;" x1="5" x2="128.791" y1="269.3594" y2="269.3594"/><text fill="#000000" font-family="sans-serif" font-size="13" lengthAdjust="spacing" textLength="75.791" x="17" y="264.2935">&#1047;&#1072;&#1074;&#1077;&#1088;&#1096;&#1080;&#1090;&#1100;</text><rect fill="#EEEEEE" height="3" style="stroke:#EEEEEE;stroke-width:1;" width="345.2969" x="0" y="297.9258"/><line style="stroke:#000000;stroke-width:1;" x1="0" x2="345.2969" y1="297.9258" y2="297.9258"/><line style="stroke:#000000;stroke-width:1;" x1="0" x2="345.2969" y1="300.9258" y2="300.9258"/><rect fill="#EEEEEE" height="23.1328" style="stroke:#000000;stroke-width:2;" width="121.6689" x="111.814" y="287.3594"/><text fill="#000000" font-family="sans-serif" font-size="13" font-weight="bold" lengthAdjust="spacing" textLength="107.6689" x="117.814" y="303.4263">&#1055;&#1086;&#1083;&#1091;&#1095;&#1077;&#1085;&#1080;&#1077; &#1050;&#1040;</text><!--SRC=[RL71IiD04BtlLmpr5kWFY16q9mL1I2yY4jPa3uibYScsuArD3mhsu4rGgFe7jHXQB8c_CFj7pcvQsu0BoyumxyrxCvlmLCb09ZnIq3gvE8FJ-3fh0HsUsPWbkuYk52g6ZhT1T3jU4-0TdTiQh06KC-QwEDKvVkkXVgHtYGNW2pwvBkE1aWEkXCKPEJXejqq2-u3lME12Zt6b9pWZ7bt3UsMXQF3-4kitYYcA1oAjK_p0afZtECCLpW0N-8M57ka9a0yJvamFgVY9bP40FQerH1I2QLMxQXzkJ3qJzeSObG6MfcFrpsZDmPgMOC-xkJlkzGN3AScMME4SbpedIuuJf2AKoWzu6cP-Acxx8bEPup0hTRckyYJfoO0h6KT-9Y9rjNLhrcT5rbRdDE5GFzJzTnTdbqCVyqRoApsc1HMaiVsQNm00]--></g></svg>