<svg xmlns="http://www.w3.org/2000/svg" xmlns:xlink="http://www.w3.org/1999/xlink" contentStyleType="text/css" data-diagram-type="SEQUENCE" height="322px" preserveAspectRatio="none" style="width:490px;height:322px;background:#FFFFFF;" version="1.1" viewBox="0 0 490 322" width="490px" zoomAndPan="magnify"><defs/><g><rect fill="#FFFFFF" height="158.7969" style="stroke:#181818;stroke-width:1;" width="10" x="124.791" y="110.5625"/><rect fill="#FFFFFF" height="38.1328" style="stroke:#181818;stroke-width:1;" width="10" x="321.8516" y="240.2266"/><rect fill="#FFFFFF" height="64.2656" style="stroke:#181818;stroke-width:1;" width="10" x="388.4155" y="46.2969"/><line style="stroke:#181818;stroke-width:0.5;stroke-dasharray:5.0,5.0;" x1="129.7485" x2="129.7485" y1="36.2969" y2="287.3594"/><line style="stroke:#181818;stroke-width:0.5;stroke-dasharray:5.0,5.0;" x1="326.7407" x2="326.7407" y1="36.2969" y2="287.3594"/><line style="stroke:#181818;stroke-width:0.5;stroke-dasharray:5.0,5.0;" x1="392.9624" x2="392.9624" y1="36.2969" y2="287.3594"/><rect fill="#E2E2F0" height="30.2969" rx="2.5" ry="2.5" style="stroke:#181818;stroke-width:0.5;" width="72.085" x="93.7485" y="5"/><text fill="#000000" font-family="sans-serif" font-size="14" lengthAdjust="spacing" textLength="58.085" x="100.7485" y="24.9951">IYM Jobs</text><rect fill="#E2E2F0" height="30.2969" rx="2.5" ry="2.5" style="stroke:#181818;stroke-width:0.5;" width="72.085" x="93.7485" y="286.3594"/><text fill="#000000" font-family="sans-serif" font-size="14" lengthAdjust="spacing" textLength="58.085" x="100.7485" y="306.3545">IYM Jobs</text><rect fill="#E2E2F0" height="30.2969" rx="2.5" ry="2.5" style="stroke:#181818;stroke-width:0.5;" width="72.2217" x="290.7407" y="5"/><text fill="#000000" font-family="sans-serif" font-size="14" lengthAdjust="spacing" textLength="58.2217" x="297.7407" y="24.9951">Tieto CS</text><rect fill="#E2E2F0" height="30.2969" rx="2.5" ry="2.5" style="stroke:#181818;stroke-width:0.5;" width="72.2217" x="290.7407" y="286.3594"/><text fill="#000000" font-family="sans-serif" font-size="14" lengthAdjust="spacing" textLength="58.2217" x="297.7407" y="306.3545">Tieto CS</text><rect fill="#E2E2F0" height="30.2969" rx="2.5" ry="2.5" style="stroke:#181818;stroke-width:0.5;" width="40.9063" x="372.9624" y="5"/><text fill="#000000" font-family="sans-serif" font-size="14" lengthAdjust="spacing" textLength="26.9063" x="379.9624" y="24.9951">SAP</text><rect fill="#E2E2F0" height="30.2969" rx="2.5" ry="2.5" style="stroke:#181818;stroke-width:0.5;" width="40.9063" x="372.9624" y="286.3594"/><text fill="#000000" font-family="sans-serif" font-size="14" lengthAdjust="spacing" textLength="26.9063" x="379.9624" y="306.3545">SAP</text><rect fill="#FFFFFF" height="158.7969" style="stroke:#181818;stroke-width:1;" width="10" x="124.791" y="110.5625"/><rect fill="#FFFFFF" height="38.1328" style="stroke:#181818;stroke-width:1;" width="10" x="321.8516" y="240.2266"/><rect fill="#FFFFFF" height="64.2656" style="stroke:#181818;stroke-width:1;" width="10" x="388.4155" y="46.2969"/><rect fill="#EEEEEE" height="3" style="stroke:#EEEEEE;stroke-width:1;" width="483.7095" x="0" y="66.8633"/><line style="stroke:#000000;stroke-width:1;" x1="0" x2="483.7095" y1="66.8633" y2="66.8633"/><line style="stroke:#000000;stroke-width:1;" x1="0" x2="483.7095" y1="69.8633" y2="69.8633"/><rect fill="#EEEEEE" height="23.1328" style="stroke:#000000;stroke-width:2;" width="121.6689" x="181.0203" y="56.2969"/><text fill="#000000" font-family="sans-serif" font-size="13" font-weight="bold" lengthAdjust="spacing" textLength="107.6689" x="187.0203" y="72.3638">&#1055;&#1086;&#1083;&#1091;&#1095;&#1077;&#1085;&#1080;&#1077; &#1050;&#1040;</text><polygon fill="#181818" points="145.791,106.5625,135.791,110.5625,145.791,114.5625,141.791,110.5625" style="stroke:#181818;stroke-width:1;"/><line style="stroke:#181818;stroke-width:1;stroke-dasharray:2.0,2.0;" x1="139.791" x2="392.4155" y1="110.5625" y2="110.5625"/><text fill="#000000" font-family="sans-serif" font-size="13" lengthAdjust="spacing" textLength="153.8926" x="151.791" y="105.4966">&#1054;&#1090;&#1074;&#1077;&#1090; &#1086;&#1073; &#1086;&#1090;&#1082;&#1088;&#1099;&#1090;&#1080;&#1080; &#1050;&#1040;</text><path d="M308,123.5625 L308,163.5625 L478,163.5625 L478,133.5625 L468,123.5625 L308,123.5625 " fill="#FEFFDD" style="stroke:#181818;stroke-width:0.5;"/><path d="M468,123.5625 L468,133.5625 L478,133.5625 L468,123.5625 " fill="#FEFFDD" style="stroke:#181818;stroke-width:0.5;"/><text fill="#000000" font-family="sans-serif" font-size="13" lengthAdjust="spacing" textLength="149.7095" x="314" y="140.6294">&#1059;&#1089;&#1087;&#1077;&#1096;&#1085;&#1099;&#1084;&#1080; &#1103;&#1074;&#1083;&#1103;&#1102;&#1090;&#1089;&#1103;</text><text fill="#000000" font-family="sans-serif" font-size="13" lengthAdjust="spacing" textLength="123.7666" x="314" y="155.7622">STATUS_CODE 1, 3</text><path d="M5,173.8281 L5,213.8281 L256,213.8281 L256,183.8281 L246,173.8281 L5,173.8281 " fill="#87CEEB" style="stroke:#181818;stroke-width:0.5;"/><path d="M246,173.8281 L246,183.8281 L256,183.8281 L246,173.8281 " fill="#87CEEB" style="stroke:#181818;stroke-width:0.5;"/><text fill="#000000" font-family="sans-serif" font-size="13" lengthAdjust="spacing" textLength="66.0474" x="11" y="190.895">&#1054;&#1073;&#1085;&#1086;&#1074;&#1080;&#1090;&#1100;</text><text fill="#000000" font-family="sans-serif" font-size="13" font-weight="bold" lengthAdjust="spacing" textLength="160.1387" x="81.1797" y="190.895">credit_cards_requests</text><text fill="#000000" font-family="sans-serif" font-size="13" lengthAdjust="spacing" textLength="81.5928" x="11" y="206.0278">&#1085;&#1072; [success]</text><polygon fill="#181818" points="309.8516,236.2266,319.8516,240.2266,309.8516,244.2266,313.8516,240.2266" style="stroke:#181818;stroke-width:1;"/><line style="stroke:#181818;stroke-width:1;" x1="134.791" x2="315.8516" y1="240.2266" y2="240.2266"/><text fill="#000000" font-family="sans-serif" font-size="13" lengthAdjust="spacing" textLength="168.0605" x="141.791" y="235.1606">&#1055;&#1088;&#1080;&#1074;&#1103;&#1079;&#1072;&#1090;&#1100; ID &#1050;&#1040; &#1082; &#1082;&#1072;&#1088;&#1090;&#1077;</text><polygon fill="#181818" points="11,265.3594,1,269.3594,11,273.3594,7,269.3594" style="stroke:#181818;stroke-width:1;"/><line style="stroke:#181818;stroke-width:1;stroke-dasharray:2.0,2.0;" x1="5" x2="128.791" y1="269.3594" y2="269.3594"/><text fill="#000000" font-family="sans-serif" font-size="13" lengthAdjust="spacing" textLength="75.791" x="17" y="264.2935">&#1047;&#1072;&#1074;&#1077;&#1088;&#1096;&#1080;&#1090;&#1100;</text><!--SRC=[LP71IiD048Rl-nH3lGLx46zYXDfwg20AYGSHAJ7PGr2QcjqMlANre52ntWGFxS4NQ0l1qDhw2ZDlvEoYjWrBihFxvzlv_sq5gOx3k1KqDPJg5oTmd5oh4l0JA3iNhNM57qkTGDNxK_XLRrFWLSxi7lmAk1R2TN64IvpJ0prYZWiiC0TynrVN5K6euqwWfLMQ0s6_N3O5x04EgOTJpAa7_Fk4NrpFAAC-VmiiB4D4SeFnNzZkcmdFaevCxHv-K1U_6VY42-hZ5oDem2VCQK0lrACk3OJdL_nphr4zhHt1pZRi2jcCm63MMBRFBU_c_l2sBGKESSAcbWmg6F8CZXEcCefr8mpII3LIUTUMIYl74ImRmwLgXw5Kwcg5ji3oWSdJ-1vHnlwctDidZYsoNhDc0MSyU2tZ1FALLtCF9ZVBOS0RZcrm6JkrFQsdP4G_]--></g></svg>