<svg xmlns="http://www.w3.org/2000/svg" xmlns:xlink="http://www.w3.org/1999/xlink" contentStyleType="text/css" data-diagram-type="SEQUENCE" height="1283px" preserveAspectRatio="none" style="width:1272px;height:1283px;background:#FFFFFF;" version="1.1" viewBox="0 0 1272 1283" width="1272px" zoomAndPan="magnify"><defs/><g><rect fill="#FFFFFF" height="291.3281" style="stroke:#181818;stroke-width:1;" width="10" x="54.5498" y="155.5625"/><rect fill="#FFFFFF" height="9" style="stroke:#181818;stroke-width:1;" width="10" x="54.5498" y="1184.8828"/><rect fill="#FFFFFF" height="320.4609" style="stroke:#181818;stroke-width:1;" width="10" x="264.9956" y="155.5625"/><rect fill="#FFFFFF" height="38.1328" style="stroke:#181818;stroke-width:1;" width="10" x="264.9956" y="1155.75"/><rect fill="#FFFFFF" height="29.1328" style="stroke:#181818;stroke-width:1;" width="10" x="502.3999" y="184.6953"/><rect fill="#FFFFFF" height="29.1328" style="stroke:#181818;stroke-width:1;" width="10" x="502.3999" y="330.3594"/><rect fill="#FFFFFF" height="679.7266" style="stroke:#181818;stroke-width:1;" width="10" x="502.3999" y="476.0234"/><rect fill="#FFFFFF" height="528.0625" style="stroke:#181818;stroke-width:1;" width="10" x="716.2373" y="548.2891"/><rect fill="#FFFFFF" height="155.4688" style="stroke:#181818;stroke-width:1;" width="10" x="953.8086" y="577.4219"/><rect fill="#FFFFFF" height="111.5313" style="stroke:#181818;stroke-width:1;" width="10" x="1019.1079" y="798.1563"/><rect fill="#FFFFFF" height="58.2656" style="stroke:#181818;stroke-width:1;" width="10" x="1019.1079" y="945.8203"/><rect fill="#FFFFFF" height="102.2031" style="stroke:#181818;stroke-width:1;" width="10" x="1085.6719" y="659.8203"/><rect fill="none" height="148.4688" style="stroke:#000000;stroke-width:1.5;" width="434.2373" x="686.8877" y="621.5547"/><rect fill="none" height="75.3984" style="stroke:#000000;stroke-width:1.5;" width="383.3311" x="686.8877" y="842.2891"/><line style="stroke:#181818;stroke-width:0.5;stroke-dasharray:5.0,5.0;" x1="59" x2="59" y1="81.2969" y2="1202.8828"/><line style="stroke:#181818;stroke-width:0.5;stroke-dasharray:5.0,5.0;" x1="269.0874" x2="269.0874" y1="81.2969" y2="1202.8828"/><line style="stroke:#181818;stroke-width:0.5;stroke-dasharray:5.0,5.0;" x1="506.6143" x2="506.6143" y1="81.2969" y2="1202.8828"/><line style="stroke:#181818;stroke-width:0.5;stroke-dasharray:5.0,5.0;" x1="720.8877" x2="720.8877" y1="81.2969" y2="1202.8828"/><line style="stroke:#181818;stroke-width:0.5;stroke-dasharray:5.0,5.0;" x1="958.6201" x2="958.6201" y1="81.2969" y2="1202.8828"/><line style="stroke:#181818;stroke-width:0.5;stroke-dasharray:5.0,5.0;" x1="1023.9971" x2="1023.9971" y1="81.2969" y2="1202.8828"/><line style="stroke:#181818;stroke-width:0.5;stroke-dasharray:5.0,5.0;" x1="1090.2188" x2="1090.2188" y1="81.2969" y2="1202.8828"/><text fill="#000000" font-family="sans-serif" font-size="14" lengthAdjust="spacing" textLength="103.0996" x="5" y="77.9951">&#1055;&#1086;&#1083;&#1100;&#1079;&#1086;&#1074;&#1072;&#1090;&#1077;&#1083;&#1100;</text><ellipse cx="59.5498" cy="13.5" fill="#E2E2F0" rx="8" ry="8" style="stroke:#181818;stroke-width:0.5;"/><path d="M59.5498,21.5 L59.5498,48.5 M46.5498,29.5 L72.5498,29.5 M59.5498,48.5 L46.5498,63.5 M59.5498,48.5 L72.5498,63.5 " fill="none" style="stroke:#181818;stroke-width:0.5;"/><text fill="#000000" font-family="sans-serif" font-size="14" lengthAdjust="spacing" textLength="103.0996" x="5" y="1214.8779">&#1055;&#1086;&#1083;&#1100;&#1079;&#1086;&#1074;&#1072;&#1090;&#1077;&#1083;&#1100;</text><ellipse cx="59.5498" cy="1226.6797" fill="#E2E2F0" rx="8" ry="8" style="stroke:#181818;stroke-width:0.5;"/><path d="M59.5498,1234.6797 L59.5498,1261.6797 M46.5498,1242.6797 L72.5498,1242.6797 M59.5498,1261.6797 L46.5498,1276.6797 M59.5498,1261.6797 L72.5498,1276.6797 " fill="none" style="stroke:#181818;stroke-width:0.5;"/><rect fill="#E2E2F0" height="30.2969" rx="2.5" ry="2.5" style="stroke:#181818;stroke-width:0.5;" width="65.8164" x="237.0874" y="50"/><text fill="#000000" font-family="sans-serif" font-size="14" lengthAdjust="spacing" textLength="51.8164" x="244.0874" y="69.9951">&#1052;&#1055; IYM</text><rect fill="#E2E2F0" height="30.2969" rx="2.5" ry="2.5" style="stroke:#181818;stroke-width:0.5;" width="65.8164" x="237.0874" y="1201.8828"/><text fill="#000000" font-family="sans-serif" font-size="14" lengthAdjust="spacing" textLength="51.8164" x="244.0874" y="1221.8779">&#1052;&#1055; IYM</text><rect fill="#E2E2F0" height="30.2969" rx="2.5" ry="2.5" style="stroke:#181818;stroke-width:0.5;" width="103.5713" x="455.6143" y="50"/><text fill="#000000" font-family="sans-serif" font-size="14" lengthAdjust="spacing" textLength="89.5713" x="462.6143" y="69.9951">IYM Backend</text><rect fill="#E2E2F0" height="30.2969" rx="2.5" ry="2.5" style="stroke:#181818;stroke-width:0.5;" width="103.5713" x="455.6143" y="1201.8828"/><text fill="#000000" font-family="sans-serif" font-size="14" lengthAdjust="spacing" textLength="89.5713" x="462.6143" y="1221.8779">IYM Backend</text><rect fill="#E2E2F0" height="30.2969" rx="2.5" ry="2.5" style="stroke:#181818;stroke-width:0.5;" width="48.6992" x="696.8877" y="50"/><text fill="#000000" font-family="sans-serif" font-size="14" lengthAdjust="spacing" textLength="34.6992" x="703.8877" y="69.9951">ISBM</text><rect fill="#E2E2F0" height="30.2969" rx="2.5" ry="2.5" style="stroke:#181818;stroke-width:0.5;" width="48.6992" x="696.8877" y="1201.8828"/><text fill="#000000" font-family="sans-serif" font-size="14" lengthAdjust="spacing" textLength="34.6992" x="703.8877" y="1221.8779">ISBM</text><rect fill="#E2E2F0" height="30.2969" rx="2.5" ry="2.5" style="stroke:#181818;stroke-width:0.5;" width="38.377" x="939.6201" y="50"/><text fill="#000000" font-family="sans-serif" font-size="14" lengthAdjust="spacing" textLength="24.377" x="946.6201" y="69.9951">NCI</text><rect fill="#E2E2F0" height="30.2969" rx="2.5" ry="2.5" style="stroke:#181818;stroke-width:0.5;" width="38.377" x="939.6201" y="1201.8828"/><text fill="#000000" font-family="sans-serif" font-size="14" lengthAdjust="spacing" textLength="24.377" x="946.6201" y="1221.8779">NCI</text><rect fill="#E2E2F0" height="30.2969" rx="2.5" ry="2.5" style="stroke:#181818;stroke-width:0.5;" width="72.2217" x="987.9971" y="50"/><text fill="#000000" font-family="sans-serif" font-size="14" lengthAdjust="spacing" textLength="58.2217" x="994.9971" y="69.9951">Tieto CS</text><rect fill="#E2E2F0" height="30.2969" rx="2.5" ry="2.5" style="stroke:#181818;stroke-width:0.5;" width="72.2217" x="987.9971" y="1201.8828"/><text fill="#000000" font-family="sans-serif" font-size="14" lengthAdjust="spacing" textLength="58.2217" x="994.9971" y="1221.8779">Tieto CS</text><rect fill="#E2E2F0" height="30.2969" rx="2.5" ry="2.5" style="stroke:#181818;stroke-width:0.5;" width="40.9063" x="1070.2188" y="50"/><text fill="#000000" font-family="sans-serif" font-size="14" lengthAdjust="spacing" textLength="26.9063" x="1077.2188" y="69.9951">SAP</text><rect fill="#E2E2F0" height="30.2969" rx="2.5" ry="2.5" style="stroke:#181818;stroke-width:0.5;" width="40.9063" x="1070.2188" y="1201.8828"/><text fill="#000000" font-family="sans-serif" font-size="14" lengthAdjust="spacing" textLength="26.9063" x="1077.2188" y="1221.8779">SAP</text><rect fill="#FFFFFF" height="291.3281" style="stroke:#181818;stroke-width:1;" width="10" x="54.5498" y="155.5625"/><rect fill="#FFFFFF" height="9" style="stroke:#181818;stroke-width:1;" width="10" x="54.5498" y="1184.8828"/><rect fill="#FFFFFF" height="320.4609" style="stroke:#181818;stroke-width:1;" width="10" x="264.9956" y="155.5625"/><rect fill="#FFFFFF" height="38.1328" style="stroke:#181818;stroke-width:1;" width="10" x="264.9956" y="1155.75"/><rect fill="#FFFFFF" height="29.1328" style="stroke:#181818;stroke-width:1;" width="10" x="502.3999" y="184.6953"/><rect fill="#FFFFFF" height="29.1328" style="stroke:#181818;stroke-width:1;" width="10" x="502.3999" y="330.3594"/><rect fill="#FFFFFF" height="679.7266" style="stroke:#181818;stroke-width:1;" width="10" x="502.3999" y="476.0234"/><rect fill="#FFFFFF" height="528.0625" style="stroke:#181818;stroke-width:1;" width="10" x="716.2373" y="548.2891"/><rect fill="#FFFFFF" height="155.4688" style="stroke:#181818;stroke-width:1;" width="10" x="953.8086" y="577.4219"/><rect fill="#FFFFFF" height="111.5313" style="stroke:#181818;stroke-width:1;" width="10" x="1019.1079" y="798.1563"/><rect fill="#FFFFFF" height="58.2656" style="stroke:#181818;stroke-width:1;" width="10" x="1019.1079" y="945.8203"/><rect fill="#FFFFFF" height="102.2031" style="stroke:#181818;stroke-width:1;" width="10" x="1085.6719" y="659.8203"/><rect fill="#EEEEEE" height="3" style="stroke:#EEEEEE;stroke-width:1;" width="1265.769" x="0" y="111.8633"/><line style="stroke:#000000;stroke-width:1;" x1="0" x2="1265.769" y1="111.8633" y2="111.8633"/><line style="stroke:#000000;stroke-width:1;" x1="0" x2="1265.769" y1="114.8633" y2="114.8633"/><rect fill="#EEEEEE" height="23.1328" style="stroke:#000000;stroke-width:2;" width="166.8325" x="549.4683" y="101.2969"/><text fill="#000000" font-family="sans-serif" font-size="13" font-weight="bold" lengthAdjust="spacing" textLength="152.8325" x="555.4683" y="117.3638">&#1054;&#1092;&#1086;&#1088;&#1084;&#1083;&#1077;&#1085;&#1080;&#1077; &#1079;&#1072;&#1082;&#1072;&#1079;&#1072;</text><polygon fill="#181818" points="252.9956,151.5625,262.9956,155.5625,252.9956,159.5625,256.9956,155.5625" style="stroke:#181818;stroke-width:1;"/><line style="stroke:#181818;stroke-width:1;" x1="64.5498" x2="258.9956" y1="155.5625" y2="155.5625"/><text fill="#000000" font-family="sans-serif" font-size="13" lengthAdjust="spacing" textLength="172.0405" x="71.5498" y="150.4966">&#1059;&#1089;&#1083;&#1091;&#1075;&#1072;: "&#1047;&#1072;&#1082;&#1072;&#1079;&#1072;&#1090;&#1100; &#1082;&#1072;&#1088;&#1090;&#1091;"</text><polygon fill="#181818" points="490.3999,180.6953,500.3999,184.6953,490.3999,188.6953,494.3999,184.6953" style="stroke:#181818;stroke-width:1;"/><line style="stroke:#181818;stroke-width:1;" x1="274.9956" x2="496.3999" y1="184.6953" y2="184.6953"/><text fill="#000000" font-family="sans-serif" font-size="13" lengthAdjust="spacing" textLength="202.5791" x="281.9956" y="179.6294">&#1047;&#1072;&#1087;&#1088;&#1086;&#1089; &#1082;&#1072;&#1088;&#1090;&#1086;&#1095;&#1085;&#1099;&#1093; &#1087;&#1088;&#1086;&#1076;&#1091;&#1082;&#1090;&#1086;&#1074;</text><polygon fill="#181818" points="285.9956,209.8281,275.9956,213.8281,285.9956,217.8281,281.9956,213.8281" style="stroke:#181818;stroke-width:1;"/><line style="stroke:#181818;stroke-width:1;stroke-dasharray:2.0,2.0;" x1="279.9956" x2="506.3999" y1="213.8281" y2="213.8281"/><text fill="#000000" font-family="sans-serif" font-size="13" lengthAdjust="spacing" textLength="203.4043" x="291.9956" y="208.7622">&#1057;&#1087;&#1080;&#1089;&#1086;&#1082; &#1082;&#1072;&#1088;&#1090;&#1086;&#1095;&#1085;&#1099;&#1093; &#1087;&#1088;&#1086;&#1076;&#1091;&#1082;&#1090;&#1086;&#1074;</text><polygon fill="#181818" points="75.5498,238.9609,65.5498,242.9609,75.5498,246.9609,71.5498,242.9609" style="stroke:#181818;stroke-width:1;"/><line style="stroke:#181818;stroke-width:1;stroke-dasharray:2.0,2.0;" x1="69.5498" x2="263.9956" y1="242.9609" y2="242.9609"/><text fill="#000000" font-family="sans-serif" font-size="13" lengthAdjust="spacing" textLength="141.9336" x="81.5498" y="237.895">&#1069;&#1082;&#1088;&#1072;&#1085; &#1074;&#1099;&#1073;&#1086;&#1088;&#1072; &#1082;&#1072;&#1088;&#1090;&#1099;</text><polygon fill="#181818" points="252.9956,268.0938,262.9956,272.0938,252.9956,276.0938,256.9956,272.0938" style="stroke:#181818;stroke-width:1;"/><line style="stroke:#181818;stroke-width:1;" x1="64.5498" x2="258.9956" y1="272.0938" y2="272.0938"/><text fill="#000000" font-family="sans-serif" font-size="13" lengthAdjust="spacing" textLength="65.9966" x="71.5498" y="267.0278">&#1042;&#1099;&#1073;&#1086;&#1088; &#1050;&#1050;</text><polygon fill="#181818" points="252.9956,297.2266,262.9956,301.2266,252.9956,305.2266,256.9956,301.2266" style="stroke:#181818;stroke-width:1;"/><line style="stroke:#181818;stroke-width:1;" x1="64.5498" x2="258.9956" y1="301.2266" y2="301.2266"/><text fill="#000000" font-family="sans-serif" font-size="13" lengthAdjust="spacing" textLength="118.1743" x="71.5498" y="296.1606">&#1044;&#1077;&#1090;&#1072;&#1083;&#1080; &#1076;&#1086;&#1089;&#1090;&#1072;&#1074;&#1082;&#1080;</text><polygon fill="#181818" points="490.3999,326.3594,500.3999,330.3594,490.3999,334.3594,494.3999,330.3594" style="stroke:#181818;stroke-width:1;"/><line style="stroke:#181818;stroke-width:1;" x1="274.9956" x2="496.3999" y1="330.3594" y2="330.3594"/><text fill="#000000" font-family="sans-serif" font-size="13" lengthAdjust="spacing" textLength="168.0415" x="281.9956" y="325.2935">&#1047;&#1072;&#1087;&#1088;&#1086;&#1089; &#1085;&#1072; &#1074;&#1099;&#1087;&#1091;&#1089;&#1082; &#1082;&#1072;&#1088;&#1090;&#1099;</text><polygon fill="#181818" points="285.9956,355.4922,275.9956,359.4922,285.9956,363.4922,281.9956,359.4922" style="stroke:#181818;stroke-width:1;"/><line style="stroke:#181818;stroke-width:1;stroke-dasharray:2.0,2.0;" x1="279.9956" x2="506.3999" y1="359.4922" y2="359.4922"/><text fill="#000000" font-family="sans-serif" font-size="13" lengthAdjust="spacing" textLength="144.5044" x="291.9956" y="354.4263">&#1054;&#1092;&#1077;&#1088;&#1090;&#1072; &#1080; &#1085;&#1086;&#1084;&#1077;&#1088; &#1090;&#1077;&#1083;.</text><polygon fill="#181818" points="75.5498,384.625,65.5498,388.625,75.5498,392.625,71.5498,388.625" style="stroke:#181818;stroke-width:1;"/><line style="stroke:#181818;stroke-width:1;stroke-dasharray:2.0,2.0;" x1="69.5498" x2="263.9956" y1="388.625" y2="388.625"/><text fill="#000000" font-family="sans-serif" font-size="13" lengthAdjust="spacing" textLength="176.4458" x="81.5498" y="383.5591">&#1044;&#1080;&#1072;&#1083;&#1086;&#1075; &#1087;&#1088;&#1080;&#1085;&#1103;&#1090;&#1080;&#1103; &#1086;&#1092;&#1077;&#1088;&#1090;&#1099;</text><polygon fill="#181818" points="252.9956,413.7578,262.9956,417.7578,252.9956,421.7578,256.9956,417.7578" style="stroke:#181818;stroke-width:1;"/><line style="stroke:#181818;stroke-width:1;" x1="64.5498" x2="258.9956" y1="417.7578" y2="417.7578"/><text fill="#000000" font-family="sans-serif" font-size="13" lengthAdjust="spacing" textLength="124.103" x="71.5498" y="412.6919">&#1055;&#1088;&#1080;&#1085;&#1103;&#1090;&#1080;&#1077; &#1086;&#1092;&#1077;&#1088;&#1090;&#1099;</text><polygon fill="#181818" points="252.9956,442.8906,262.9956,446.8906,252.9956,450.8906,256.9956,446.8906" style="stroke:#181818;stroke-width:1;"/><line style="stroke:#181818;stroke-width:1;" x1="59.5498" x2="258.9956" y1="446.8906" y2="446.8906"/><text fill="#000000" font-family="sans-serif" font-size="13" lengthAdjust="spacing" textLength="141.9907" x="66.5498" y="441.8247">&#1055;&#1086;&#1076;&#1090;&#1074;&#1077;&#1088;&#1078;&#1076;&#1077;&#1085;&#1080;&#1077; OTP</text><polygon fill="#181818" points="490.3999,472.0234,500.3999,476.0234,490.3999,480.0234,494.3999,476.0234" style="stroke:#181818;stroke-width:1;"/><line style="stroke:#181818;stroke-width:1;" x1="269.9956" x2="496.3999" y1="476.0234" y2="476.0234"/><text fill="#000000" font-family="sans-serif" font-size="13" lengthAdjust="spacing" textLength="162.6396" x="276.9956" y="470.9575">&#1055;&#1086;&#1076;&#1090;&#1074;&#1077;&#1088;&#1078;&#1076;&#1077;&#1085;&#1080;&#1077; &#1079;&#1072;&#1103;&#1074;&#1082;&#1080;</text><rect fill="#EEEEEE" height="3" style="stroke:#EEEEEE;stroke-width:1;" width="1265.769" x="0" y="504.5898"/><line style="stroke:#000000;stroke-width:1;" x1="0" x2="1265.769" y1="504.5898" y2="504.5898"/><line style="stroke:#000000;stroke-width:1;" x1="0" x2="1265.769" y1="507.5898" y2="507.5898"/><rect fill="#EEEEEE" height="23.1328" style="stroke:#000000;stroke-width:2;" width="150.7031" x="557.533" y="494.0234"/><text fill="#000000" font-family="sans-serif" font-size="13" font-weight="bold" lengthAdjust="spacing" textLength="136.7031" x="563.533" y="510.0903">&#1054;&#1073;&#1088;&#1072;&#1073;&#1086;&#1090;&#1082;&#1072; &#1079;&#1072;&#1103;&#1074;&#1082;&#1080;</text><polygon fill="#181818" points="704.2373,544.2891,714.2373,548.2891,704.2373,552.2891,708.2373,548.2891" style="stroke:#181818;stroke-width:1;"/><line style="stroke:#181818;stroke-width:1;" x1="512.3999" x2="710.2373" y1="548.2891" y2="548.2891"/><text fill="#000000" font-family="sans-serif" font-size="13" lengthAdjust="spacing" textLength="184.8374" x="519.3999" y="543.2231">&#1047;&#1072;&#1087;&#1088;&#1086;&#1089; &#1085;&#1072; &#1086;&#1090;&#1082;&#1088;&#1099;&#1090;&#1080;&#1077; &#1082;&#1072;&#1088;&#1090;&#1099;</text><polygon fill="#181818" points="941.8086,573.4219,951.8086,577.4219,941.8086,581.4219,945.8086,577.4219" style="stroke:#181818;stroke-width:1;"/><line style="stroke:#181818;stroke-width:1;" x1="726.2373" x2="947.8086" y1="577.4219" y2="577.4219"/><text fill="#000000" font-family="sans-serif" font-size="13" lengthAdjust="spacing" textLength="208.5713" x="733.2373" y="572.356">&#1055;&#1088;&#1086;&#1074;&#1077;&#1088;&#1082;&#1072; &#1085;&#1072; &#1085;&#1072;&#1083;&#1080;&#1095;&#1080;&#1077; &#1082;&#1083;&#1080;&#1077;&#1085;&#1090;&#1072;</text><polygon fill="#181818" points="737.2373,602.5547,727.2373,606.5547,737.2373,610.5547,733.2373,606.5547" style="stroke:#181818;stroke-width:1;"/><line style="stroke:#181818;stroke-width:1;stroke-dasharray:2.0,2.0;" x1="731.2373" x2="952.8086" y1="606.5547" y2="606.5547"/><text fill="#000000" font-family="sans-serif" font-size="13" lengthAdjust="spacing" textLength="191.001" x="743.2373" y="601.4888">&#1054;&#1090;&#1074;&#1077;&#1090; &#1087;&#1086; &#1087;&#1088;&#1086;&#1074;&#1077;&#1088;&#1082;&#1077; &#1082;&#1083;&#1080;&#1077;&#1085;&#1090;&#1072;</text><path d="M686.8877,621.5547 L751.3306,621.5547 L751.3306,628.6875 L741.3306,638.6875 L686.8877,638.6875 L686.8877,621.5547 " fill="#EEEEEE" style="stroke:#000000;stroke-width:1.5;"/><rect fill="none" height="148.4688" style="stroke:#000000;stroke-width:1.5;" width="434.2373" x="686.8877" y="621.5547"/><text fill="#000000" font-family="sans-serif" font-size="13" font-weight="bold" lengthAdjust="spacing" textLength="19.4429" x="701.8877" y="634.6216">alt</text><text fill="#000000" font-family="sans-serif" font-size="11" font-weight="bold" lengthAdjust="spacing" textLength="106.7505" x="766.3306" y="633.7651">[&#1050;&#1083;&#1080;&#1077;&#1085;&#1090; &#1085;&#1072;&#1081;&#1076;&#1077;&#1085;]</text><polygon fill="#181818" points="1073.6719,655.8203,1083.6719,659.8203,1073.6719,663.8203,1077.6719,659.8203" style="stroke:#181818;stroke-width:1;"/><line style="stroke:#181818;stroke-width:1;" x1="726.2373" x2="1079.6719" y1="659.8203" y2="659.8203"/><text fill="#000000" font-family="sans-serif" font-size="13" lengthAdjust="spacing" textLength="175.0747" x="733.2373" y="654.7544">&#1055;&#1088;&#1080;&#1079;&#1085;&#1072;&#1082; &#1072;&#1082;&#1090;&#1080;&#1074;&#1085;&#1086;&#1075;&#1086; &#1089;&#1095;&#1077;&#1090;&#1072;</text><line style="stroke:#000000;stroke-width:1;stroke-dasharray:2.0,2.0;" x1="686.8877" x2="1121.125" y1="668.8203" y2="668.8203"/><text fill="#000000" font-family="sans-serif" font-size="11" font-weight="bold" lengthAdjust="spacing" textLength="125.6406" x="691.8877" y="679.0308">[&#1050;&#1083;&#1080;&#1077;&#1085;&#1090; &#1085;&#1077; &#1085;&#1072;&#1081;&#1076;&#1077;&#1085;]</text><polygon fill="#181818" points="941.8086,699.7578,951.8086,703.7578,941.8086,707.7578,945.8086,703.7578" style="stroke:#181818;stroke-width:1;"/><line style="stroke:#181818;stroke-width:1;" x1="726.2373" x2="947.8086" y1="703.7578" y2="703.7578"/><text fill="#000000" font-family="sans-serif" font-size="13" lengthAdjust="spacing" textLength="199.5767" x="733.2373" y="698.6919">&#1047;&#1072;&#1087;&#1088;&#1086;&#1089; &#1085;&#1072; &#1086;&#1090;&#1082;&#1088;&#1099;&#1090;&#1080;&#1077; &#1082;&#1083;&#1080;&#1077;&#1085;&#1090;&#1072;</text><polygon fill="#181818" points="737.2373,728.8906,727.2373,732.8906,737.2373,736.8906,733.2373,732.8906" style="stroke:#181818;stroke-width:1;"/><line style="stroke:#181818;stroke-width:1;stroke-dasharray:2.0,2.0;" x1="731.2373" x2="957.8086" y1="732.8906" y2="732.8906"/><text fill="#000000" font-family="sans-serif" font-size="13" lengthAdjust="spacing" textLength="74.623" x="743.2373" y="727.8247">ID &#1082;&#1083;&#1080;&#1077;&#1085;&#1090;&#1072;</text><polygon fill="#181818" points="1078.6719,758.0234,1088.6719,762.0234,1078.6719,766.0234,1082.6719,762.0234" style="stroke:#181818;stroke-width:1;"/><line style="stroke:#181818;stroke-width:1;" x1="726.2373" x2="1084.6719" y1="762.0234" y2="762.0234"/><text fill="#000000" font-family="sans-serif" font-size="13" lengthAdjust="spacing" textLength="202.6807" x="733.2373" y="756.9575">&#1057;&#1086;&#1093;&#1088;&#1072;&#1085;&#1077;&#1085;&#1080;&#1077; &#1073;&#1080;&#1079;&#1085;&#1077;&#1089; &#1087;&#1072;&#1088;&#1090;&#1085;&#1077;&#1088;&#1072;</text><polygon fill="#181818" points="1007.1079,794.1563,1017.1079,798.1563,1007.1079,802.1563,1011.1079,798.1563" style="stroke:#181818;stroke-width:1;"/><line style="stroke:#181818;stroke-width:1;" x1="726.2373" x2="1013.1079" y1="798.1563" y2="798.1563"/><text fill="#000000" font-family="sans-serif" font-size="13" lengthAdjust="spacing" textLength="208.5713" x="733.2373" y="793.0903">&#1055;&#1088;&#1086;&#1074;&#1077;&#1088;&#1082;&#1072; &#1085;&#1072; &#1085;&#1072;&#1083;&#1080;&#1095;&#1080;&#1077; &#1082;&#1083;&#1080;&#1077;&#1085;&#1090;&#1072;</text><polygon fill="#181818" points="737.2373,823.2891,727.2373,827.2891,737.2373,831.2891,733.2373,827.2891" style="stroke:#181818;stroke-width:1;"/><line style="stroke:#181818;stroke-width:1;stroke-dasharray:2.0,2.0;" x1="731.2373" x2="1018.1079" y1="827.2891" y2="827.2891"/><text fill="#000000" font-family="sans-serif" font-size="13" lengthAdjust="spacing" textLength="191.001" x="743.2373" y="822.2231">&#1054;&#1090;&#1074;&#1077;&#1090; &#1087;&#1086; &#1087;&#1088;&#1086;&#1074;&#1077;&#1088;&#1082;&#1077; &#1082;&#1083;&#1080;&#1077;&#1085;&#1090;&#1072;</text><path d="M686.8877,842.2891 L751.3306,842.2891 L751.3306,849.4219 L741.3306,859.4219 L686.8877,859.4219 L686.8877,842.2891 " fill="#EEEEEE" style="stroke:#000000;stroke-width:1.5;"/><rect fill="none" height="75.3984" style="stroke:#000000;stroke-width:1.5;" width="383.3311" x="686.8877" y="842.2891"/><text fill="#000000" font-family="sans-serif" font-size="13" font-weight="bold" lengthAdjust="spacing" textLength="19.4429" x="701.8877" y="855.356">alt</text><text fill="#000000" font-family="sans-serif" font-size="11" font-weight="bold" lengthAdjust="spacing" textLength="125.6406" x="766.3306" y="854.4995">[&#1050;&#1083;&#1080;&#1077;&#1085;&#1090; &#1085;&#1077; &#1085;&#1072;&#1081;&#1076;&#1077;&#1085;]</text><polygon fill="#181818" points="1007.1079,876.5547,1017.1079,880.5547,1007.1079,884.5547,1011.1079,880.5547" style="stroke:#181818;stroke-width:1;"/><line style="stroke:#181818;stroke-width:1;" x1="726.2373" x2="1013.1079" y1="880.5547" y2="880.5547"/><text fill="#000000" font-family="sans-serif" font-size="13" lengthAdjust="spacing" textLength="199.5767" x="733.2373" y="875.4888">&#1047;&#1072;&#1087;&#1088;&#1086;&#1089; &#1085;&#1072; &#1086;&#1090;&#1082;&#1088;&#1099;&#1090;&#1080;&#1077; &#1082;&#1083;&#1080;&#1077;&#1085;&#1090;&#1072;</text><polygon fill="#181818" points="737.2373,905.6875,727.2373,909.6875,737.2373,913.6875,733.2373,909.6875" style="stroke:#181818;stroke-width:1;"/><line style="stroke:#181818;stroke-width:1;stroke-dasharray:2.0,2.0;" x1="731.2373" x2="1023.1079" y1="909.6875" y2="909.6875"/><text fill="#000000" font-family="sans-serif" font-size="13" lengthAdjust="spacing" textLength="192.4165" x="743.2373" y="904.6216">&#1054;&#1090;&#1074;&#1077;&#1090; &#1086;&#1073; &#1086;&#1090;&#1082;&#1088;&#1099;&#1090;&#1080;&#1080; &#1082;&#1083;&#1080;&#1077;&#1085;&#1090;&#1072;</text><polygon fill="#181818" points="1007.1079,941.8203,1017.1079,945.8203,1007.1079,949.8203,1011.1079,945.8203" style="stroke:#181818;stroke-width:1;"/><line style="stroke:#181818;stroke-width:1;" x1="726.2373" x2="1013.1079" y1="945.8203" y2="945.8203"/><text fill="#000000" font-family="sans-serif" font-size="13" lengthAdjust="spacing" textLength="184.8374" x="733.2373" y="940.7544">&#1047;&#1072;&#1087;&#1088;&#1086;&#1089; &#1085;&#1072; &#1086;&#1090;&#1082;&#1088;&#1099;&#1090;&#1080;&#1077; &#1082;&#1072;&#1088;&#1090;&#1099;</text><polygon fill="#181818" points="737.2373,970.9531,727.2373,974.9531,737.2373,978.9531,733.2373,974.9531" style="stroke:#181818;stroke-width:1;"/><line style="stroke:#181818;stroke-width:1;stroke-dasharray:2.0,2.0;" x1="731.2373" x2="1018.1079" y1="974.9531" y2="974.9531"/><text fill="#000000" font-family="sans-serif" font-size="13" lengthAdjust="spacing" textLength="177.6772" x="743.2373" y="969.8872">&#1054;&#1090;&#1074;&#1077;&#1090; &#1086;&#1073; &#1086;&#1090;&#1082;&#1088;&#1099;&#1090;&#1080;&#1080; &#1082;&#1072;&#1088;&#1090;&#1099;</text><polygon fill="#181818" points="1253.769,1000.0859,1263.769,1004.0859,1253.769,1008.0859,1257.769,1004.0859" style="stroke:#181818;stroke-width:1;"/><line style="stroke:#181818;stroke-width:1;" x1="1024.1079" x2="1259.769" y1="1004.0859" y2="1004.0859"/><text fill="#000000" font-family="sans-serif" font-size="13" lengthAdjust="spacing" textLength="217.6611" x="1031.1079" y="999.02">&#1054;&#1090;&#1087;&#1088;&#1072;&#1074;&#1082;&#1072; &#1085;&#1072; &#1087;&#1077;&#1095;&#1072;&#1090;&#1100; &#1080; &#1076;&#1086;&#1089;&#1090;&#1072;&#1074;&#1082;&#1091;</text><rect fill="#EEEEEE" height="3" style="stroke:#EEEEEE;stroke-width:1;" width="1265.769" x="0" y="1032.6523"/><line style="stroke:#000000;stroke-width:1;" x1="0" x2="1265.769" y1="1032.6523" y2="1032.6523"/><line style="stroke:#000000;stroke-width:1;" x1="0" x2="1265.769" y1="1035.6523" y2="1035.6523"/><rect fill="#EEEEEE" height="23.1328" style="stroke:#000000;stroke-width:2;" width="158.9995" x="553.3848" y="1022.0859"/><text fill="#000000" font-family="sans-serif" font-size="13" font-weight="bold" lengthAdjust="spacing" textLength="144.9995" x="559.3848" y="1038.1528">&#1057;&#1086;&#1093;&#1088;&#1072;&#1085;&#1077;&#1085;&#1080;&#1077; &#1079;&#1072;&#1103;&#1074;&#1082;&#1080;</text><polygon fill="#181818" points="523.3999,1072.3516,513.3999,1076.3516,523.3999,1080.3516,519.3999,1076.3516" style="stroke:#181818;stroke-width:1;"/><line style="stroke:#181818;stroke-width:1;stroke-dasharray:2.0,2.0;" x1="517.3999" x2="720.2373" y1="1076.3516" y2="1076.3516"/><text fill="#000000" font-family="sans-serif" font-size="13" lengthAdjust="spacing" textLength="138.2456" x="529.3999" y="1071.2856">&#1047;&#1072;&#1103;&#1074;&#1082;&#1072; &#1085;&#1072; &#1086;&#1090;&#1082;&#1088;&#1099;&#1090;&#1080;&#1077;</text><path d="M423,1089.3516 L423,1129.3516 L591,1129.3516 L591,1099.3516 L581,1089.3516 L423,1089.3516 " fill="#87CEEB" style="stroke:#181818;stroke-width:0.5;"/><path d="M581,1089.3516 L581,1099.3516 L591,1099.3516 L581,1089.3516 " fill="#87CEEB" style="stroke:#181818;stroke-width:0.5;"/><text fill="#000000" font-family="sans-serif" font-size="13" lengthAdjust="spacing" textLength="123.1636" x="429" y="1106.4185">&#1057;&#1086;&#1093;&#1088;&#1072;&#1085;&#1080;&#1090;&#1100; &#1079;&#1072;&#1103;&#1074;&#1082;&#1091;</text><text fill="#000000" font-family="sans-serif" font-size="13" lengthAdjust="spacing" textLength="7.6616" x="429" y="1121.5513">&#1074;</text><text fill="#000000" font-family="sans-serif" font-size="13" font-weight="bold" lengthAdjust="spacing" textLength="135.8271" x="440.7939" y="1121.5513">users_applications</text><polygon fill="#181818" points="285.9956,1151.75,275.9956,1155.75,285.9956,1159.75,281.9956,1155.75" style="stroke:#181818;stroke-width:1;"/><line style="stroke:#181818;stroke-width:1;stroke-dasharray:2.0,2.0;" x1="279.9956" x2="506.3999" y1="1155.75" y2="1155.75"/><text fill="#000000" font-family="sans-serif" font-size="13" lengthAdjust="spacing" textLength="179.2388" x="291.9956" y="1150.6841">&#1059;&#1089;&#1087;&#1077;&#1096;&#1085;&#1086; &#1087;&#1088;&#1080;&#1085;&#1103;&#1090;&#1072;&#1103; &#1079;&#1072;&#1103;&#1074;&#1082;&#1072;</text><polygon fill="#181818" points="75.5498,1180.8828,65.5498,1184.8828,75.5498,1188.8828,71.5498,1184.8828" style="stroke:#181818;stroke-width:1;"/><line style="stroke:#181818;stroke-width:1;stroke-dasharray:2.0,2.0;" x1="69.5498" x2="263.9956" y1="1184.8828" y2="1184.8828"/><text fill="#000000" font-family="sans-serif" font-size="13" lengthAdjust="spacing" textLength="108.7925" x="81.5498" y="1179.8169">&#1047;&#1072;&#1103;&#1074;&#1082;&#1072; &#1087;&#1088;&#1080;&#1085;&#1103;&#1090;&#1072;</text><!--SRC=[hLPDQzj04BthLopkpU3-W50NOZS77ze6d1vwAiBHmSJO9bO2lILsGmeE64gW44f2wBaWst6YEfNq5sR_KT-iLf-Maz0qu5YhdNapxytihCsMtTiNuL-9hiYdUtb6T_YUaIE7jE1rIPW3yM5WxHjzSzzkjzfzisl3_0TTYSR7joNj3wFDVZzhWsrHCrjxLdUtf2ngMpc3PYq6K0Ry8clohjv8BDYaNcjcBNRQbjqJzMOfijYfvooQczjP3BmmZ6gLBkKNykKH_Q5xaFN8fOK0VuUM-E2xMZMOkQYyPd9YGz1FUGnHHZGdPmCYV4zivL2U2Lx88poEIeRPijk7fcs5uiKhLed1W5dROaZ62924BuzZVonEoPDZUIB2FRf1q2Llq2p1WfuCzQfIqLZN592B57rQFX5hrqgZAROCf-d-WjqHylC4pUIOfaej9w4vpklpBR8IT44N-TrpMY2i0xLTGJVCM2rdm7CV4CNZa1m_a2EGMwRZhzU2YxjG0i3RPHGVXSOR4RRsoqUudwCTE5MVvg5mBbISmDUL4u74DFgg1bTfM-weXsnLEOQG00Pq2r6YFdo_ivrEK3LHHgBrhgeT9rhM50QtNfendm2QgW9ppOOiQyOP_OzOYCZdihWioWtSnX7PWjAeKwqW08Np6udawznLM4__u-P0msgiUtw0bYXYWiSZGC5njJJUfLPYY5gH7tLwXB-ArR6vG-DNOUZVeOW6ZuaeNyoAfAXtoWmDwAW3v280jzKS4T7Bfs5xA_SuMPurLcTWhOHRh8-fEJr9xJIh62CHfl6co2ZL52nc0Tzhn3e9ptxILrCjmO8J2lHuyPJ6AxYATtSthZkcydFhpeCzfgVn_aFT7oY43lAyGgncwjCq3-4-KYRcNY3dlnt8HuHSbrw4mnv8GJi5gajcgMe6W3cDRiJyf9SZ8qSBOwYmsrO64MURcaHwqoacdewY1b2tXwVU8SOle5uqzpxNEWUMaGdjXYd7WUL863GJvV81fk_WazdlTzejqsxtkeDocSiX63Htx_1F15RWAu-6xCtXyCsHq79oDr1cKEUlempX36ZsbyPV]--></g></svg>