<svg xmlns="http://www.w3.org/2000/svg" xmlns:xlink="http://www.w3.org/1999/xlink" contentStyleType="text/css" data-diagram-type="SEQUENCE" height="617px" preserveAspectRatio="none" style="width:571px;height:617px;background:#FFFFFF;" version="1.1" viewBox="0 0 571 617" width="571px" zoomAndPan="magnify"><defs/><g><rect fill="#FFFFFF" height="291.3281" style="stroke:#181818;stroke-width:1;" width="10" x="54.5498" y="155.5625"/><rect fill="#FFFFFF" height="320.4609" style="stroke:#181818;stroke-width:1;" width="10" x="264.9956" y="155.5625"/><rect fill="#FFFFFF" height="29.1328" style="stroke:#181818;stroke-width:1;" width="10" x="502.3999" y="184.6953"/><rect fill="#FFFFFF" height="29.1328" style="stroke:#181818;stroke-width:1;" width="10" x="502.3999" y="330.3594"/><rect fill="#FFFFFF" height="52.1328" style="stroke:#181818;stroke-width:1;" width="10" x="502.3999" y="476.0234"/><line style="stroke:#181818;stroke-width:0.5;stroke-dasharray:5.0,5.0;" x1="59" x2="59" y1="81.2969" y2="537.1563"/><line style="stroke:#181818;stroke-width:0.5;stroke-dasharray:5.0,5.0;" x1="269.0874" x2="269.0874" y1="81.2969" y2="537.1563"/><line style="stroke:#181818;stroke-width:0.5;stroke-dasharray:5.0,5.0;" x1="506.6143" x2="506.6143" y1="81.2969" y2="537.1563"/><text fill="#000000" font-family="sans-serif" font-size="14" lengthAdjust="spacing" textLength="103.0996" x="5" y="77.9951">&#1055;&#1086;&#1083;&#1100;&#1079;&#1086;&#1074;&#1072;&#1090;&#1077;&#1083;&#1100;</text><ellipse cx="59.5498" cy="13.5" fill="#E2E2F0" rx="8" ry="8" style="stroke:#181818;stroke-width:0.5;"/><path d="M59.5498,21.5 L59.5498,48.5 M46.5498,29.5 L72.5498,29.5 M59.5498,48.5 L46.5498,63.5 M59.5498,48.5 L72.5498,63.5 " fill="none" style="stroke:#181818;stroke-width:0.5;"/><text fill="#000000" font-family="sans-serif" font-size="14" lengthAdjust="spacing" textLength="103.0996" x="5" y="549.1514">&#1055;&#1086;&#1083;&#1100;&#1079;&#1086;&#1074;&#1072;&#1090;&#1077;&#1083;&#1100;</text><ellipse cx="59.5498" cy="560.9531" fill="#E2E2F0" rx="8" ry="8" style="stroke:#181818;stroke-width:0.5;"/><path d="M59.5498,568.9531 L59.5498,595.9531 M46.5498,576.9531 L72.5498,576.9531 M59.5498,595.9531 L46.5498,610.9531 M59.5498,595.9531 L72.5498,610.9531 " fill="none" style="stroke:#181818;stroke-width:0.5;"/><rect fill="#E2E2F0" height="30.2969" rx="2.5" ry="2.5" style="stroke:#181818;stroke-width:0.5;" width="65.8164" x="237.0874" y="50"/><text fill="#000000" font-family="sans-serif" font-size="14" lengthAdjust="spacing" textLength="51.8164" x="244.0874" y="69.9951">&#1052;&#1055; IYM</text><rect fill="#E2E2F0" height="30.2969" rx="2.5" ry="2.5" style="stroke:#181818;stroke-width:0.5;" width="65.8164" x="237.0874" y="536.1563"/><text fill="#000000" font-family="sans-serif" font-size="14" lengthAdjust="spacing" textLength="51.8164" x="244.0874" y="556.1514">&#1052;&#1055; IYM</text><rect fill="#E2E2F0" height="30.2969" rx="2.5" ry="2.5" style="stroke:#181818;stroke-width:0.5;" width="103.5713" x="455.6143" y="50"/><text fill="#000000" font-family="sans-serif" font-size="14" lengthAdjust="spacing" textLength="89.5713" x="462.6143" y="69.9951">IYM Backend</text><rect fill="#E2E2F0" height="30.2969" rx="2.5" ry="2.5" style="stroke:#181818;stroke-width:0.5;" width="103.5713" x="455.6143" y="536.1563"/><text fill="#000000" font-family="sans-serif" font-size="14" lengthAdjust="spacing" textLength="89.5713" x="462.6143" y="556.1514">IYM Backend</text><rect fill="#FFFFFF" height="291.3281" style="stroke:#181818;stroke-width:1;" width="10" x="54.5498" y="155.5625"/><rect fill="#FFFFFF" height="320.4609" style="stroke:#181818;stroke-width:1;" width="10" x="264.9956" y="155.5625"/><rect fill="#FFFFFF" height="29.1328" style="stroke:#181818;stroke-width:1;" width="10" x="502.3999" y="184.6953"/><rect fill="#FFFFFF" height="29.1328" style="stroke:#181818;stroke-width:1;" width="10" x="502.3999" y="330.3594"/><rect fill="#FFFFFF" height="52.1328" style="stroke:#181818;stroke-width:1;" width="10" x="502.3999" y="476.0234"/><rect fill="#EEEEEE" height="3" style="stroke:#EEEEEE;stroke-width:1;" width="564.1855" x="0" y="111.8633"/><line style="stroke:#000000;stroke-width:1;" x1="0" x2="564.1855" y1="111.8633" y2="111.8633"/><line style="stroke:#000000;stroke-width:1;" x1="0" x2="564.1855" y1="114.8633" y2="114.8633"/><rect fill="#EEEEEE" height="23.1328" style="stroke:#000000;stroke-width:2;" width="166.8325" x="198.6765" y="101.2969"/><text fill="#000000" font-family="sans-serif" font-size="13" font-weight="bold" lengthAdjust="spacing" textLength="152.8325" x="204.6765" y="117.3638">&#1054;&#1092;&#1086;&#1088;&#1084;&#1083;&#1077;&#1085;&#1080;&#1077; &#1079;&#1072;&#1082;&#1072;&#1079;&#1072;</text><polygon fill="#181818" points="252.9956,151.5625,262.9956,155.5625,252.9956,159.5625,256.9956,155.5625" style="stroke:#181818;stroke-width:1;"/><line style="stroke:#181818;stroke-width:1;" x1="64.5498" x2="258.9956" y1="155.5625" y2="155.5625"/><text fill="#000000" font-family="sans-serif" font-size="13" lengthAdjust="spacing" textLength="172.0405" x="71.5498" y="150.4966">&#1059;&#1089;&#1083;&#1091;&#1075;&#1072;: "&#1047;&#1072;&#1082;&#1072;&#1079;&#1072;&#1090;&#1100; &#1082;&#1072;&#1088;&#1090;&#1091;"</text><polygon fill="#181818" points="490.3999,180.6953,500.3999,184.6953,490.3999,188.6953,494.3999,184.6953" style="stroke:#181818;stroke-width:1;"/><line style="stroke:#181818;stroke-width:1;" x1="274.9956" x2="496.3999" y1="184.6953" y2="184.6953"/><text fill="#000000" font-family="sans-serif" font-size="13" lengthAdjust="spacing" textLength="202.5791" x="281.9956" y="179.6294">&#1047;&#1072;&#1087;&#1088;&#1086;&#1089; &#1082;&#1072;&#1088;&#1090;&#1086;&#1095;&#1085;&#1099;&#1093; &#1087;&#1088;&#1086;&#1076;&#1091;&#1082;&#1090;&#1086;&#1074;</text><polygon fill="#181818" points="285.9956,209.8281,275.9956,213.8281,285.9956,217.8281,281.9956,213.8281" style="stroke:#181818;stroke-width:1;"/><line style="stroke:#181818;stroke-width:1;stroke-dasharray:2.0,2.0;" x1="279.9956" x2="506.3999" y1="213.8281" y2="213.8281"/><text fill="#000000" font-family="sans-serif" font-size="13" lengthAdjust="spacing" textLength="203.4043" x="291.9956" y="208.7622">&#1057;&#1087;&#1080;&#1089;&#1086;&#1082; &#1082;&#1072;&#1088;&#1090;&#1086;&#1095;&#1085;&#1099;&#1093; &#1087;&#1088;&#1086;&#1076;&#1091;&#1082;&#1090;&#1086;&#1074;</text><polygon fill="#181818" points="75.5498,238.9609,65.5498,242.9609,75.5498,246.9609,71.5498,242.9609" style="stroke:#181818;stroke-width:1;"/><line style="stroke:#181818;stroke-width:1;stroke-dasharray:2.0,2.0;" x1="69.5498" x2="263.9956" y1="242.9609" y2="242.9609"/><text fill="#000000" font-family="sans-serif" font-size="13" lengthAdjust="spacing" textLength="141.9336" x="81.5498" y="237.895">&#1069;&#1082;&#1088;&#1072;&#1085; &#1074;&#1099;&#1073;&#1086;&#1088;&#1072; &#1082;&#1072;&#1088;&#1090;&#1099;</text><polygon fill="#181818" points="252.9956,268.0938,262.9956,272.0938,252.9956,276.0938,256.9956,272.0938" style="stroke:#181818;stroke-width:1;"/><line style="stroke:#181818;stroke-width:1;" x1="64.5498" x2="258.9956" y1="272.0938" y2="272.0938"/><text fill="#000000" font-family="sans-serif" font-size="13" lengthAdjust="spacing" textLength="65.9966" x="71.5498" y="267.0278">&#1042;&#1099;&#1073;&#1086;&#1088; &#1050;&#1050;</text><polygon fill="#181818" points="252.9956,297.2266,262.9956,301.2266,252.9956,305.2266,256.9956,301.2266" style="stroke:#181818;stroke-width:1;"/><line style="stroke:#181818;stroke-width:1;" x1="64.5498" x2="258.9956" y1="301.2266" y2="301.2266"/><text fill="#000000" font-family="sans-serif" font-size="13" lengthAdjust="spacing" textLength="118.1743" x="71.5498" y="296.1606">&#1044;&#1077;&#1090;&#1072;&#1083;&#1080; &#1076;&#1086;&#1089;&#1090;&#1072;&#1074;&#1082;&#1080;</text><polygon fill="#181818" points="490.3999,326.3594,500.3999,330.3594,490.3999,334.3594,494.3999,330.3594" style="stroke:#181818;stroke-width:1;"/><line style="stroke:#181818;stroke-width:1;" x1="274.9956" x2="496.3999" y1="330.3594" y2="330.3594"/><text fill="#000000" font-family="sans-serif" font-size="13" lengthAdjust="spacing" textLength="168.0415" x="281.9956" y="325.2935">&#1047;&#1072;&#1087;&#1088;&#1086;&#1089; &#1085;&#1072; &#1074;&#1099;&#1087;&#1091;&#1089;&#1082; &#1082;&#1072;&#1088;&#1090;&#1099;</text><polygon fill="#181818" points="285.9956,355.4922,275.9956,359.4922,285.9956,363.4922,281.9956,359.4922" style="stroke:#181818;stroke-width:1;"/><line style="stroke:#181818;stroke-width:1;stroke-dasharray:2.0,2.0;" x1="279.9956" x2="506.3999" y1="359.4922" y2="359.4922"/><text fill="#000000" font-family="sans-serif" font-size="13" lengthAdjust="spacing" textLength="144.5044" x="291.9956" y="354.4263">&#1054;&#1092;&#1077;&#1088;&#1090;&#1072; &#1080; &#1085;&#1086;&#1084;&#1077;&#1088; &#1090;&#1077;&#1083;.</text><polygon fill="#181818" points="75.5498,384.625,65.5498,388.625,75.5498,392.625,71.5498,388.625" style="stroke:#181818;stroke-width:1;"/><line style="stroke:#181818;stroke-width:1;stroke-dasharray:2.0,2.0;" x1="69.5498" x2="263.9956" y1="388.625" y2="388.625"/><text fill="#000000" font-family="sans-serif" font-size="13" lengthAdjust="spacing" textLength="176.4458" x="81.5498" y="383.5591">&#1044;&#1080;&#1072;&#1083;&#1086;&#1075; &#1087;&#1088;&#1080;&#1085;&#1103;&#1090;&#1080;&#1103; &#1086;&#1092;&#1077;&#1088;&#1090;&#1099;</text><polygon fill="#181818" points="252.9956,413.7578,262.9956,417.7578,252.9956,421.7578,256.9956,417.7578" style="stroke:#181818;stroke-width:1;"/><line style="stroke:#181818;stroke-width:1;" x1="64.5498" x2="258.9956" y1="417.7578" y2="417.7578"/><text fill="#000000" font-family="sans-serif" font-size="13" lengthAdjust="spacing" textLength="124.103" x="71.5498" y="412.6919">&#1055;&#1088;&#1080;&#1085;&#1103;&#1090;&#1080;&#1077; &#1086;&#1092;&#1077;&#1088;&#1090;&#1099;</text><polygon fill="#181818" points="252.9956,442.8906,262.9956,446.8906,252.9956,450.8906,256.9956,446.8906" style="stroke:#181818;stroke-width:1;"/><line style="stroke:#181818;stroke-width:1;" x1="59.5498" x2="258.9956" y1="446.8906" y2="446.8906"/><text fill="#000000" font-family="sans-serif" font-size="13" lengthAdjust="spacing" textLength="141.9907" x="66.5498" y="441.8247">&#1055;&#1086;&#1076;&#1090;&#1074;&#1077;&#1088;&#1078;&#1076;&#1077;&#1085;&#1080;&#1077; OTP</text><polygon fill="#181818" points="490.3999,472.0234,500.3999,476.0234,490.3999,480.0234,494.3999,476.0234" style="stroke:#181818;stroke-width:1;"/><line style="stroke:#181818;stroke-width:1;" x1="269.9956" x2="496.3999" y1="476.0234" y2="476.0234"/><text fill="#000000" font-family="sans-serif" font-size="13" lengthAdjust="spacing" textLength="162.6396" x="276.9956" y="470.9575">&#1055;&#1086;&#1076;&#1090;&#1074;&#1077;&#1088;&#1078;&#1076;&#1077;&#1085;&#1080;&#1077; &#1079;&#1072;&#1103;&#1074;&#1082;&#1080;</text><rect fill="#EEEEEE" height="3" style="stroke:#EEEEEE;stroke-width:1;" width="564.1855" x="0" y="504.5898"/><line style="stroke:#000000;stroke-width:1;" x1="0" x2="564.1855" y1="504.5898" y2="504.5898"/><line style="stroke:#000000;stroke-width:1;" x1="0" x2="564.1855" y1="507.5898" y2="507.5898"/><rect fill="#EEEEEE" height="23.1328" style="stroke:#000000;stroke-width:2;" width="150.7031" x="206.7412" y="494.0234"/><text fill="#000000" font-family="sans-serif" font-size="13" font-weight="bold" lengthAdjust="spacing" textLength="136.7031" x="212.7412" y="510.0903">&#1054;&#1073;&#1088;&#1072;&#1073;&#1086;&#1090;&#1082;&#1072; &#1079;&#1072;&#1103;&#1074;&#1082;&#1080;</text><!--SRC=[ZLFDIiDW4BpdAPRSwmCK8rZemOFeGGyUGvj34MfeW-SsLJoqK922KCGYdeNq9nggILzXlpTozalQffLM0o7PVBCpkxCRk-BTD2YzJ1vnmb-gnvzuJZXGFeSIcsGtwRBfD0pNRdYrIisrwnxWppoYawjJCyi7wDXrDp4uff9TkNRgLLCZIcN3i2n-KNUSg1P_ynSqOeuu9CW6FCUDfsKP8aY58-6a8l6RQgEM3ayvA4BxQOrLlkgH1Ag5ruvfs1MlTcjxJbhpAfBYX0oSfR9G2iS2HIIglSf7yC2nwgfxIizu1j6v7F1apOKsXEgmKCYuNdd14KfCUFvFhggJPzFT2btMxZjmBTGN4qzKbyVQhM3TPdVRdySbYdZ8m-tJ0OUG3U1sH3oJZdKu0L-qnvHO94L_eJfeRfxNt-s533VK1Y0x4fO4WyONIZVgu8_U1rW7AJNXQMfS11Vxo8rKdr1OnlxRWr4UAnkr3wl7uSC20FW3fYptyEpYF5-WNg8DYtQdwdNiPxRcE6JryXtB7y1ZFM2PcI-sRYHRrWy0]--></g></svg>