<svg xmlns="http://www.w3.org/2000/svg" xmlns:xlink="http://www.w3.org/1999/xlink" contentStyleType="text/css" data-diagram-type="SEQUENCE" height="691px" preserveAspectRatio="none" style="width:817px;height:691px;background:#FFFFFF;" version="1.1" viewBox="0 0 817 691" width="817px" zoomAndPan="magnify"><defs/><g><rect fill="#FFFFFF" height="455.7969" style="stroke:#181818;stroke-width:1;" width="10" x="260.623" y="110.5625"/><rect fill="#FFFFFF" height="155.4688" style="stroke:#181818;stroke-width:1;" width="10" x="498.1943" y="139.6953"/><rect fill="#FFFFFF" height="111.5313" style="stroke:#181818;stroke-width:1;" width="10" x="563.4937" y="360.4297"/><rect fill="#FFFFFF" height="87.3984" style="stroke:#181818;stroke-width:1;" width="10" x="563.4937" y="508.0938"/><rect fill="#FFFFFF" height="102.2031" style="stroke:#181818;stroke-width:1;" width="10" x="630.0576" y="222.0938"/><rect fill="none" height="148.4688" style="stroke:#000000;stroke-width:1.5;" width="434.2373" x="231.2734" y="183.8281"/><rect fill="none" height="75.3984" style="stroke:#000000;stroke-width:1.5;" width="383.3311" x="231.2734" y="404.5625"/><line style="stroke:#181818;stroke-width:0.5;stroke-dasharray:5.0,5.0;" x1="56" x2="56" y1="36.2969" y2="656.625"/><line style="stroke:#181818;stroke-width:0.5;stroke-dasharray:5.0,5.0;" x1="265.2734" x2="265.2734" y1="36.2969" y2="656.625"/><line style="stroke:#181818;stroke-width:0.5;stroke-dasharray:5.0,5.0;" x1="503.0059" x2="503.0059" y1="36.2969" y2="656.625"/><line style="stroke:#181818;stroke-width:0.5;stroke-dasharray:5.0,5.0;" x1="568.3828" x2="568.3828" y1="36.2969" y2="656.625"/><line style="stroke:#181818;stroke-width:0.5;stroke-dasharray:5.0,5.0;" x1="634.6045" x2="634.6045" y1="36.2969" y2="656.625"/><rect fill="#E2E2F0" height="30.2969" rx="2.5" ry="2.5" style="stroke:#181818;stroke-width:0.5;" width="103.5713" x="5" y="5"/><text fill="#000000" font-family="sans-serif" font-size="14" lengthAdjust="spacing" textLength="89.5713" x="12" y="24.9951">IYM Backend</text><rect fill="#E2E2F0" height="30.2969" rx="2.5" ry="2.5" style="stroke:#181818;stroke-width:0.5;" width="103.5713" x="5" y="655.625"/><text fill="#000000" font-family="sans-serif" font-size="14" lengthAdjust="spacing" textLength="89.5713" x="12" y="675.6201">IYM Backend</text><rect fill="#E2E2F0" height="30.2969" rx="2.5" ry="2.5" style="stroke:#181818;stroke-width:0.5;" width="48.6992" x="241.2734" y="5"/><text fill="#000000" font-family="sans-serif" font-size="14" lengthAdjust="spacing" textLength="34.6992" x="248.2734" y="24.9951">ISBM</text><rect fill="#E2E2F0" height="30.2969" rx="2.5" ry="2.5" style="stroke:#181818;stroke-width:0.5;" width="48.6992" x="241.2734" y="655.625"/><text fill="#000000" font-family="sans-serif" font-size="14" lengthAdjust="spacing" textLength="34.6992" x="248.2734" y="675.6201">ISBM</text><rect fill="#E2E2F0" height="30.2969" rx="2.5" ry="2.5" style="stroke:#181818;stroke-width:0.5;" width="38.377" x="484.0059" y="5"/><text fill="#000000" font-family="sans-serif" font-size="14" lengthAdjust="spacing" textLength="24.377" x="491.0059" y="24.9951">NCI</text><rect fill="#E2E2F0" height="30.2969" rx="2.5" ry="2.5" style="stroke:#181818;stroke-width:0.5;" width="38.377" x="484.0059" y="655.625"/><text fill="#000000" font-family="sans-serif" font-size="14" lengthAdjust="spacing" textLength="24.377" x="491.0059" y="675.6201">NCI</text><rect fill="#E2E2F0" height="30.2969" rx="2.5" ry="2.5" style="stroke:#181818;stroke-width:0.5;" width="72.2217" x="532.3828" y="5"/><text fill="#000000" font-family="sans-serif" font-size="14" lengthAdjust="spacing" textLength="58.2217" x="539.3828" y="24.9951">Tieto CS</text><rect fill="#E2E2F0" height="30.2969" rx="2.5" ry="2.5" style="stroke:#181818;stroke-width:0.5;" width="72.2217" x="532.3828" y="655.625"/><text fill="#000000" font-family="sans-serif" font-size="14" lengthAdjust="spacing" textLength="58.2217" x="539.3828" y="675.6201">Tieto CS</text><rect fill="#E2E2F0" height="30.2969" rx="2.5" ry="2.5" style="stroke:#181818;stroke-width:0.5;" width="40.9063" x="614.6045" y="5"/><text fill="#000000" font-family="sans-serif" font-size="14" lengthAdjust="spacing" textLength="26.9063" x="621.6045" y="24.9951">SAP</text><rect fill="#E2E2F0" height="30.2969" rx="2.5" ry="2.5" style="stroke:#181818;stroke-width:0.5;" width="40.9063" x="614.6045" y="655.625"/><text fill="#000000" font-family="sans-serif" font-size="14" lengthAdjust="spacing" textLength="26.9063" x="621.6045" y="675.6201">SAP</text><rect fill="#FFFFFF" height="455.7969" style="stroke:#181818;stroke-width:1;" width="10" x="260.623" y="110.5625"/><rect fill="#FFFFFF" height="155.4688" style="stroke:#181818;stroke-width:1;" width="10" x="498.1943" y="139.6953"/><rect fill="#FFFFFF" height="111.5313" style="stroke:#181818;stroke-width:1;" width="10" x="563.4937" y="360.4297"/><rect fill="#FFFFFF" height="87.3984" style="stroke:#181818;stroke-width:1;" width="10" x="563.4937" y="508.0938"/><rect fill="#FFFFFF" height="102.2031" style="stroke:#181818;stroke-width:1;" width="10" x="630.0576" y="222.0938"/><rect fill="#EEEEEE" height="3" style="stroke:#EEEEEE;stroke-width:1;" width="810.1548" x="0" y="66.8633"/><line style="stroke:#000000;stroke-width:1;" x1="0" x2="810.1548" y1="66.8633" y2="66.8633"/><line style="stroke:#000000;stroke-width:1;" x1="0" x2="810.1548" y1="69.8633" y2="69.8633"/><rect fill="#EEEEEE" height="23.1328" style="stroke:#000000;stroke-width:2;" width="150.7031" x="329.7258" y="56.2969"/><text fill="#000000" font-family="sans-serif" font-size="13" font-weight="bold" lengthAdjust="spacing" textLength="136.7031" x="335.7258" y="72.3638">&#1054;&#1073;&#1088;&#1072;&#1073;&#1086;&#1090;&#1082;&#1072; &#1079;&#1072;&#1103;&#1074;&#1082;&#1080;</text><polygon fill="#181818" points="248.623,106.5625,258.623,110.5625,248.623,114.5625,252.623,110.5625" style="stroke:#181818;stroke-width:1;"/><line style="stroke:#181818;stroke-width:1;" x1="56.7856" x2="254.623" y1="110.5625" y2="110.5625"/><text fill="#000000" font-family="sans-serif" font-size="13" lengthAdjust="spacing" textLength="184.8374" x="63.7856" y="105.4966">&#1047;&#1072;&#1087;&#1088;&#1086;&#1089; &#1085;&#1072; &#1086;&#1090;&#1082;&#1088;&#1099;&#1090;&#1080;&#1077; &#1082;&#1072;&#1088;&#1090;&#1099;</text><polygon fill="#181818" points="486.1943,135.6953,496.1943,139.6953,486.1943,143.6953,490.1943,139.6953" style="stroke:#181818;stroke-width:1;"/><line style="stroke:#181818;stroke-width:1;" x1="270.623" x2="492.1943" y1="139.6953" y2="139.6953"/><text fill="#000000" font-family="sans-serif" font-size="13" lengthAdjust="spacing" textLength="208.5713" x="277.623" y="134.6294">&#1055;&#1088;&#1086;&#1074;&#1077;&#1088;&#1082;&#1072; &#1085;&#1072; &#1085;&#1072;&#1083;&#1080;&#1095;&#1080;&#1077; &#1082;&#1083;&#1080;&#1077;&#1085;&#1090;&#1072;</text><polygon fill="#181818" points="281.623,164.8281,271.623,168.8281,281.623,172.8281,277.623,168.8281" style="stroke:#181818;stroke-width:1;"/><line style="stroke:#181818;stroke-width:1;stroke-dasharray:2.0,2.0;" x1="275.623" x2="497.1943" y1="168.8281" y2="168.8281"/><text fill="#000000" font-family="sans-serif" font-size="13" lengthAdjust="spacing" textLength="191.001" x="287.623" y="163.7622">&#1054;&#1090;&#1074;&#1077;&#1090; &#1087;&#1086; &#1087;&#1088;&#1086;&#1074;&#1077;&#1088;&#1082;&#1077; &#1082;&#1083;&#1080;&#1077;&#1085;&#1090;&#1072;</text><path d="M231.2734,183.8281 L295.7163,183.8281 L295.7163,190.9609 L285.7163,200.9609 L231.2734,200.9609 L231.2734,183.8281 " fill="#EEEEEE" style="stroke:#000000;stroke-width:1.5;"/><rect fill="none" height="148.4688" style="stroke:#000000;stroke-width:1.5;" width="434.2373" x="231.2734" y="183.8281"/><text fill="#000000" font-family="sans-serif" font-size="13" font-weight="bold" lengthAdjust="spacing" textLength="19.4429" x="246.2734" y="196.895">alt</text><text fill="#000000" font-family="sans-serif" font-size="11" font-weight="bold" lengthAdjust="spacing" textLength="106.7505" x="310.7163" y="196.0386">[&#1050;&#1083;&#1080;&#1077;&#1085;&#1090; &#1085;&#1072;&#1081;&#1076;&#1077;&#1085;]</text><polygon fill="#181818" points="618.0576,218.0938,628.0576,222.0938,618.0576,226.0938,622.0576,222.0938" style="stroke:#181818;stroke-width:1;"/><line style="stroke:#181818;stroke-width:1;" x1="270.623" x2="624.0576" y1="222.0938" y2="222.0938"/><text fill="#000000" font-family="sans-serif" font-size="13" lengthAdjust="spacing" textLength="175.0747" x="277.623" y="217.0278">&#1055;&#1088;&#1080;&#1079;&#1085;&#1072;&#1082; &#1072;&#1082;&#1090;&#1080;&#1074;&#1085;&#1086;&#1075;&#1086; &#1089;&#1095;&#1077;&#1090;&#1072;</text><line style="stroke:#000000;stroke-width:1;stroke-dasharray:2.0,2.0;" x1="231.2734" x2="665.5107" y1="231.0938" y2="231.0938"/><text fill="#000000" font-family="sans-serif" font-size="11" font-weight="bold" lengthAdjust="spacing" textLength="125.6406" x="236.2734" y="241.3042">[&#1050;&#1083;&#1080;&#1077;&#1085;&#1090; &#1085;&#1077; &#1085;&#1072;&#1081;&#1076;&#1077;&#1085;]</text><polygon fill="#181818" points="486.1943,262.0313,496.1943,266.0313,486.1943,270.0313,490.1943,266.0313" style="stroke:#181818;stroke-width:1;"/><line style="stroke:#181818;stroke-width:1;" x1="270.623" x2="492.1943" y1="266.0313" y2="266.0313"/><text fill="#000000" font-family="sans-serif" font-size="13" lengthAdjust="spacing" textLength="199.5767" x="277.623" y="260.9653">&#1047;&#1072;&#1087;&#1088;&#1086;&#1089; &#1085;&#1072; &#1086;&#1090;&#1082;&#1088;&#1099;&#1090;&#1080;&#1077; &#1082;&#1083;&#1080;&#1077;&#1085;&#1090;&#1072;</text><polygon fill="#181818" points="281.623,291.1641,271.623,295.1641,281.623,299.1641,277.623,295.1641" style="stroke:#181818;stroke-width:1;"/><line style="stroke:#181818;stroke-width:1;stroke-dasharray:2.0,2.0;" x1="275.623" x2="502.1943" y1="295.1641" y2="295.1641"/><text fill="#000000" font-family="sans-serif" font-size="13" lengthAdjust="spacing" textLength="74.623" x="287.623" y="290.0981">ID &#1082;&#1083;&#1080;&#1077;&#1085;&#1090;&#1072;</text><polygon fill="#181818" points="623.0576,320.2969,633.0576,324.2969,623.0576,328.2969,627.0576,324.2969" style="stroke:#181818;stroke-width:1;"/><line style="stroke:#181818;stroke-width:1;" x1="270.623" x2="629.0576" y1="324.2969" y2="324.2969"/><text fill="#000000" font-family="sans-serif" font-size="13" lengthAdjust="spacing" textLength="202.6807" x="277.623" y="319.231">&#1057;&#1086;&#1093;&#1088;&#1072;&#1085;&#1077;&#1085;&#1080;&#1077; &#1073;&#1080;&#1079;&#1085;&#1077;&#1089; &#1087;&#1072;&#1088;&#1090;&#1085;&#1077;&#1088;&#1072;</text><polygon fill="#181818" points="551.4937,356.4297,561.4937,360.4297,551.4937,364.4297,555.4937,360.4297" style="stroke:#181818;stroke-width:1;"/><line style="stroke:#181818;stroke-width:1;" x1="270.623" x2="557.4937" y1="360.4297" y2="360.4297"/><text fill="#000000" font-family="sans-serif" font-size="13" lengthAdjust="spacing" textLength="208.5713" x="277.623" y="355.3638">&#1055;&#1088;&#1086;&#1074;&#1077;&#1088;&#1082;&#1072; &#1085;&#1072; &#1085;&#1072;&#1083;&#1080;&#1095;&#1080;&#1077; &#1082;&#1083;&#1080;&#1077;&#1085;&#1090;&#1072;</text><polygon fill="#181818" points="281.623,385.5625,271.623,389.5625,281.623,393.5625,277.623,389.5625" style="stroke:#181818;stroke-width:1;"/><line style="stroke:#181818;stroke-width:1;stroke-dasharray:2.0,2.0;" x1="275.623" x2="562.4937" y1="389.5625" y2="389.5625"/><text fill="#000000" font-family="sans-serif" font-size="13" lengthAdjust="spacing" textLength="191.001" x="287.623" y="384.4966">&#1054;&#1090;&#1074;&#1077;&#1090; &#1087;&#1086; &#1087;&#1088;&#1086;&#1074;&#1077;&#1088;&#1082;&#1077; &#1082;&#1083;&#1080;&#1077;&#1085;&#1090;&#1072;</text><path d="M231.2734,404.5625 L295.7163,404.5625 L295.7163,411.6953 L285.7163,421.6953 L231.2734,421.6953 L231.2734,404.5625 " fill="#EEEEEE" style="stroke:#000000;stroke-width:1.5;"/><rect fill="none" height="75.3984" style="stroke:#000000;stroke-width:1.5;" width="383.3311" x="231.2734" y="404.5625"/><text fill="#000000" font-family="sans-serif" font-size="13" font-weight="bold" lengthAdjust="spacing" textLength="19.4429" x="246.2734" y="417.6294">alt</text><text fill="#000000" font-family="sans-serif" font-size="11" font-weight="bold" lengthAdjust="spacing" textLength="125.6406" x="310.7163" y="416.7729">[&#1050;&#1083;&#1080;&#1077;&#1085;&#1090; &#1085;&#1077; &#1085;&#1072;&#1081;&#1076;&#1077;&#1085;]</text><polygon fill="#181818" points="551.4937,438.8281,561.4937,442.8281,551.4937,446.8281,555.4937,442.8281" style="stroke:#181818;stroke-width:1;"/><line style="stroke:#181818;stroke-width:1;" x1="270.623" x2="557.4937" y1="442.8281" y2="442.8281"/><text fill="#000000" font-family="sans-serif" font-size="13" lengthAdjust="spacing" textLength="199.5767" x="277.623" y="437.7622">&#1047;&#1072;&#1087;&#1088;&#1086;&#1089; &#1085;&#1072; &#1086;&#1090;&#1082;&#1088;&#1099;&#1090;&#1080;&#1077; &#1082;&#1083;&#1080;&#1077;&#1085;&#1090;&#1072;</text><polygon fill="#181818" points="281.623,467.9609,271.623,471.9609,281.623,475.9609,277.623,471.9609" style="stroke:#181818;stroke-width:1;"/><line style="stroke:#181818;stroke-width:1;stroke-dasharray:2.0,2.0;" x1="275.623" x2="567.4937" y1="471.9609" y2="471.9609"/><text fill="#000000" font-family="sans-serif" font-size="13" lengthAdjust="spacing" textLength="192.4165" x="287.623" y="466.895">&#1054;&#1090;&#1074;&#1077;&#1090; &#1086;&#1073; &#1086;&#1090;&#1082;&#1088;&#1099;&#1090;&#1080;&#1080; &#1082;&#1083;&#1080;&#1077;&#1085;&#1090;&#1072;</text><polygon fill="#181818" points="551.4937,504.0938,561.4937,508.0938,551.4937,512.0938,555.4937,508.0938" style="stroke:#181818;stroke-width:1;"/><line style="stroke:#181818;stroke-width:1;" x1="270.623" x2="557.4937" y1="508.0938" y2="508.0938"/><text fill="#000000" font-family="sans-serif" font-size="13" lengthAdjust="spacing" textLength="184.8374" x="277.623" y="503.0278">&#1047;&#1072;&#1087;&#1088;&#1086;&#1089; &#1085;&#1072; &#1086;&#1090;&#1082;&#1088;&#1099;&#1090;&#1080;&#1077; &#1082;&#1072;&#1088;&#1090;&#1099;</text><polygon fill="#181818" points="281.623,533.2266,271.623,537.2266,281.623,541.2266,277.623,537.2266" style="stroke:#181818;stroke-width:1;"/><line style="stroke:#181818;stroke-width:1;stroke-dasharray:2.0,2.0;" x1="275.623" x2="562.4937" y1="537.2266" y2="537.2266"/><text fill="#000000" font-family="sans-serif" font-size="13" lengthAdjust="spacing" textLength="177.6772" x="287.623" y="532.1606">&#1054;&#1090;&#1074;&#1077;&#1090; &#1086;&#1073; &#1086;&#1090;&#1082;&#1088;&#1099;&#1090;&#1080;&#1080; &#1082;&#1072;&#1088;&#1090;&#1099;</text><polygon fill="#181818" points="67.7856,562.3594,57.7856,566.3594,67.7856,570.3594,63.7856,566.3594" style="stroke:#181818;stroke-width:1;"/><line style="stroke:#181818;stroke-width:1;stroke-dasharray:2.0,2.0;" x1="61.7856" x2="264.623" y1="566.3594" y2="566.3594"/><text fill="#000000" font-family="sans-serif" font-size="13" lengthAdjust="spacing" textLength="138.2456" x="73.7856" y="561.2935">&#1047;&#1072;&#1103;&#1074;&#1082;&#1072; &#1085;&#1072; &#1086;&#1090;&#1082;&#1088;&#1099;&#1090;&#1080;&#1077;</text><polygon fill="#181818" points="798.1548,591.4922,808.1548,595.4922,798.1548,599.4922,802.1548,595.4922" style="stroke:#181818;stroke-width:1;"/><line style="stroke:#181818;stroke-width:1;" x1="568.4937" x2="804.1548" y1="595.4922" y2="595.4922"/><text fill="#000000" font-family="sans-serif" font-size="13" lengthAdjust="spacing" textLength="217.6611" x="575.4937" y="590.4263">&#1054;&#1090;&#1087;&#1088;&#1072;&#1074;&#1082;&#1072; &#1085;&#1072; &#1087;&#1077;&#1095;&#1072;&#1090;&#1100; &#1080; &#1076;&#1086;&#1089;&#1090;&#1072;&#1074;&#1082;&#1091;</text><rect fill="#EEEEEE" height="3" style="stroke:#EEEEEE;stroke-width:1;" width="810.1548" x="0" y="624.0586"/><line style="stroke:#000000;stroke-width:1;" x1="0" x2="810.1548" y1="624.0586" y2="624.0586"/><line style="stroke:#000000;stroke-width:1;" x1="0" x2="810.1548" y1="627.0586" y2="627.0586"/><rect fill="#EEEEEE" height="23.1328" style="stroke:#000000;stroke-width:2;" width="158.9995" x="325.5776" y="613.4922"/><text fill="#000000" font-family="sans-serif" font-size="13" font-weight="bold" lengthAdjust="spacing" textLength="144.9995" x="331.5776" y="629.5591">&#1057;&#1086;&#1093;&#1088;&#1072;&#1085;&#1077;&#1085;&#1080;&#1077; &#1079;&#1072;&#1103;&#1074;&#1082;&#1080;</text><!--SRC=[hLJ1Ji904BttAoQzymD6J2nou80nAHUF3VH094YayGmrXWCc7aqyOFo3WZHMIDjVcFqZPxRRqa8H8t9ecVRjU_FUR7TWtJdTTdTWzHtG6zTDCApsZTtlw60DmQXhWy9xqsZge7xqdkiYuhBMo02Cg1bc4T3gsiujr4nT0LgrBO1vVbLWe5hJgbMSuLoCqCCvHiB55Ng0d-Y9PrnG4LIhcb67ofbi2Ku0NmWQqu98Z053HijbOYIcT0_G1-QWqXLJpMextNlBiHD3aeAeg7TcUcCMKl7fBcL3TS4r1cAISgtv3uP4xctusBwaEwrKKhuPGPZD1OmnWgJBZ7-Ng-S0lcuU9T9VkEHIuv3IVYcfjD-0ic7O2lWY3I_eGOGVf2Z6rBKloMN6QRESjDqRsZjo_dvDvUbNQUTTPHoRO1eNPQ2ENGYpnEyxQJtAhH7ooaHjhYBmkQ4u6RGiHxkyqdU_aysTjkInS-TTdTbJVFymzny6eKIE6yHkfn7Ejoc20sDYxoLn_ks3F13allPI7ZeJU67kK507XbVUWvRp8Sy2bYGFIZMMsoo_FgO-9iJgYYTWwINxurGO9HwqhLpe72lTheMJx1i0]--></g></svg>