<svg xmlns="http://www.w3.org/2000/svg" xmlns:xlink="http://www.w3.org/1999/xlink" contentStyleType="text/css" data-diagram-type="SEQUENCE" height="362px" preserveAspectRatio="none" style="width:579px;height:362px;background:#FFFFFF;" version="1.1" viewBox="0 0 579 362" width="579px" zoomAndPan="magnify"><defs/><g><rect fill="#FFFFFF" height="9" style="stroke:#181818;stroke-width:1;" width="10" x="54.5498" y="264.0938"/><rect fill="#FFFFFF" height="38.1328" style="stroke:#181818;stroke-width:1;" width="10" x="192.3423" y="234.9609"/><rect fill="#FFFFFF" height="79.3984" style="stroke:#181818;stroke-width:1;" width="10" x="400.5811" y="155.5625"/><line style="stroke:#181818;stroke-width:0.5;stroke-dasharray:5.0,5.0;" x1="59" x2="59" y1="81.2969" y2="282.0938"/><line style="stroke:#181818;stroke-width:0.5;stroke-dasharray:5.0,5.0;" x1="196.4341" x2="196.4341" y1="81.2969" y2="282.0938"/><line style="stroke:#181818;stroke-width:0.5;stroke-dasharray:5.0,5.0;" x1="404.7954" x2="404.7954" y1="81.2969" y2="282.0938"/><text fill="#000000" font-family="sans-serif" font-size="14" lengthAdjust="spacing" textLength="103.0996" x="5" y="77.9951">&#1055;&#1086;&#1083;&#1100;&#1079;&#1086;&#1074;&#1072;&#1090;&#1077;&#1083;&#1100;</text><ellipse cx="59.5498" cy="13.5" fill="#E2E2F0" rx="8" ry="8" style="stroke:#181818;stroke-width:0.5;"/><path d="M59.5498,21.5 L59.5498,48.5 M46.5498,29.5 L72.5498,29.5 M59.5498,48.5 L46.5498,63.5 M59.5498,48.5 L72.5498,63.5 " fill="none" style="stroke:#181818;stroke-width:0.5;"/><text fill="#000000" font-family="sans-serif" font-size="14" lengthAdjust="spacing" textLength="103.0996" x="5" y="294.0889">&#1055;&#1086;&#1083;&#1100;&#1079;&#1086;&#1074;&#1072;&#1090;&#1077;&#1083;&#1100;</text><ellipse cx="59.5498" cy="305.8906" fill="#E2E2F0" rx="8" ry="8" style="stroke:#181818;stroke-width:0.5;"/><path d="M59.5498,313.8906 L59.5498,340.8906 M46.5498,321.8906 L72.5498,321.8906 M59.5498,340.8906 L46.5498,355.8906 M59.5498,340.8906 L72.5498,355.8906 " fill="none" style="stroke:#181818;stroke-width:0.5;"/><rect fill="#E2E2F0" height="30.2969" rx="2.5" ry="2.5" style="stroke:#181818;stroke-width:0.5;" width="65.8164" x="164.4341" y="50"/><text fill="#000000" font-family="sans-serif" font-size="14" lengthAdjust="spacing" textLength="51.8164" x="171.4341" y="69.9951">&#1052;&#1055; IYM</text><rect fill="#E2E2F0" height="30.2969" rx="2.5" ry="2.5" style="stroke:#181818;stroke-width:0.5;" width="65.8164" x="164.4341" y="281.0938"/><text fill="#000000" font-family="sans-serif" font-size="14" lengthAdjust="spacing" textLength="51.8164" x="171.4341" y="301.0889">&#1052;&#1055; IYM</text><rect fill="#E2E2F0" height="30.2969" rx="2.5" ry="2.5" style="stroke:#181818;stroke-width:0.5;" width="103.5713" x="353.7954" y="50"/><text fill="#000000" font-family="sans-serif" font-size="14" lengthAdjust="spacing" textLength="89.5713" x="360.7954" y="69.9951">IYM Backend</text><rect fill="#E2E2F0" height="30.2969" rx="2.5" ry="2.5" style="stroke:#181818;stroke-width:0.5;" width="103.5713" x="353.7954" y="281.0938"/><text fill="#000000" font-family="sans-serif" font-size="14" lengthAdjust="spacing" textLength="89.5713" x="360.7954" y="301.0889">IYM Backend</text><rect fill="#FFFFFF" height="9" style="stroke:#181818;stroke-width:1;" width="10" x="54.5498" y="264.0938"/><rect fill="#FFFFFF" height="38.1328" style="stroke:#181818;stroke-width:1;" width="10" x="192.3423" y="234.9609"/><rect fill="#FFFFFF" height="79.3984" style="stroke:#181818;stroke-width:1;" width="10" x="400.5811" y="155.5625"/><rect fill="#EEEEEE" height="3" style="stroke:#EEEEEE;stroke-width:1;" width="572.8267" x="0" y="111.8633"/><line style="stroke:#000000;stroke-width:1;" x1="0" x2="572.8267" y1="111.8633" y2="111.8633"/><line style="stroke:#000000;stroke-width:1;" x1="0" x2="572.8267" y1="114.8633" y2="114.8633"/><rect fill="#EEEEEE" height="23.1328" style="stroke:#000000;stroke-width:2;" width="158.9995" x="206.9136" y="101.2969"/><text fill="#000000" font-family="sans-serif" font-size="13" font-weight="bold" lengthAdjust="spacing" textLength="144.9995" x="212.9136" y="117.3638">&#1057;&#1086;&#1093;&#1088;&#1072;&#1085;&#1077;&#1085;&#1080;&#1077; &#1079;&#1072;&#1103;&#1074;&#1082;&#1080;</text><polygon fill="#181818" points="421.5811,151.5625,411.5811,155.5625,421.5811,159.5625,417.5811,155.5625" style="stroke:#181818;stroke-width:1;"/><line style="stroke:#181818;stroke-width:1;stroke-dasharray:2.0,2.0;" x1="415.5811" x2="571.8267" y1="155.5625" y2="155.5625"/><text fill="#000000" font-family="sans-serif" font-size="13" lengthAdjust="spacing" textLength="138.2456" x="427.5811" y="150.4966">&#1047;&#1072;&#1103;&#1074;&#1082;&#1072; &#1085;&#1072; &#1086;&#1090;&#1082;&#1088;&#1099;&#1090;&#1080;&#1077;</text><path d="M321,168.5625 L321,208.5625 L489,208.5625 L489,178.5625 L479,168.5625 L321,168.5625 " fill="#87CEEB" style="stroke:#181818;stroke-width:0.5;"/><path d="M479,168.5625 L479,178.5625 L489,178.5625 L479,168.5625 " fill="#87CEEB" style="stroke:#181818;stroke-width:0.5;"/><text fill="#000000" font-family="sans-serif" font-size="13" lengthAdjust="spacing" textLength="123.1636" x="327" y="185.6294">&#1057;&#1086;&#1093;&#1088;&#1072;&#1085;&#1080;&#1090;&#1100; &#1079;&#1072;&#1103;&#1074;&#1082;&#1091;</text><text fill="#000000" font-family="sans-serif" font-size="13" lengthAdjust="spacing" textLength="7.6616" x="327" y="200.7622">&#1074;</text><text fill="#000000" font-family="sans-serif" font-size="13" font-weight="bold" lengthAdjust="spacing" textLength="135.8271" x="338.7939" y="200.7622">users_applications</text><polygon fill="#181818" points="213.3423,230.9609,203.3423,234.9609,213.3423,238.9609,209.3423,234.9609" style="stroke:#181818;stroke-width:1;"/><line style="stroke:#181818;stroke-width:1;stroke-dasharray:2.0,2.0;" x1="207.3423" x2="404.5811" y1="234.9609" y2="234.9609"/><text fill="#000000" font-family="sans-serif" font-size="13" lengthAdjust="spacing" textLength="179.2388" x="219.3423" y="229.895">&#1059;&#1089;&#1087;&#1077;&#1096;&#1085;&#1086; &#1087;&#1088;&#1080;&#1085;&#1103;&#1090;&#1072;&#1103; &#1079;&#1072;&#1103;&#1074;&#1082;&#1072;</text><polygon fill="#181818" points="75.5498,260.0938,65.5498,264.0938,75.5498,268.0938,71.5498,264.0938" style="stroke:#181818;stroke-width:1;"/><line style="stroke:#181818;stroke-width:1;stroke-dasharray:2.0,2.0;" x1="69.5498" x2="191.3423" y1="264.0938" y2="264.0938"/><text fill="#000000" font-family="sans-serif" font-size="13" lengthAdjust="spacing" textLength="108.7925" x="81.5498" y="259.0278">&#1047;&#1072;&#1103;&#1074;&#1082;&#1072; &#1087;&#1088;&#1080;&#1085;&#1103;&#1090;&#1072;</text><!--SRC=[NP31IiD048Rl-nH3l0Nw0c8E1dhmu4ayU98btKDeIPOaBNYh5K6mqACNeOWl40h1K4dw2ZDlvB-frCGSTdOt_tp_FwkZ8ite-7cyvPQ_PSrVg3ikPSMLEtkaSxhDJQQipeeuYgrE2iZVUKjNTzVURpz4bzOEDVXDeOwc9fbudI8SAnK4_C6jFCkIIsxWqN3D5S6sb0sCzrm7WGh7T34QqJdns-c-96Ynj8YsbwMyeg9LwQY85xem3f-agEd2P3ZGsStq8PpDZHeurhAITSzFdaZnZdn_ZY7pUstjB8vq4QT9xliAsSb15QRh8e6BL9_oo0Ukv0N0blW0TisDR109sFuqfPgOViBJtZsNUzUEwkZ_Xnr0__fSpmy0]--></g></svg>