<svg xmlns="http://www.w3.org/2000/svg" xmlns:xlink="http://www.w3.org/1999/xlink" contentStyleType="text/css" data-diagram-type="SEQUENCE" height="1175px" preserveAspectRatio="none" style="width:1041px;height:1175px;background:#FFFFFF;" version="1.1" viewBox="0 0 1041 1175" width="1041px" zoomAndPan="magnify"><defs/><g><rect fill="#FFFFFF" height="560.6563" style="stroke:#181818;stroke-width:1;" width="10" x="54.5498" y="155.5625"/><rect fill="#FFFFFF" height="560.6563" style="stroke:#181818;stroke-width:1;" width="10" x="218.9751" y="155.5625"/><rect fill="#FFFFFF" height="205.0625" style="stroke:#181818;stroke-width:1;" width="10" x="434.3657" y="184.6953"/><rect fill="#FFFFFF" height="144.6641" style="stroke:#181818;stroke-width:1;" width="10" x="434.3657" y="542.4219"/><rect fill="#FFFFFF" height="695.1875" style="stroke:#181818;stroke-width:1;" width="10" x="616.1836" y="389.7578"/><rect fill="#FFFFFF" height="184.7969" style="stroke:#181818;stroke-width:1;" width="10" x="809.2559" y="803.6172"/><rect fill="#FFFFFF" height="29.1328" style="stroke:#181818;stroke-width:1;" width="10" x="973.3784" y="915.1484"/><rect fill="none" height="61.3984" style="stroke:#000000;stroke-width:1.5;" width="289.646" x="377.5801" y="336.3594"/><rect fill="none" height="75.3984" style="stroke:#000000;stroke-width:1.5;" width="320.0845" x="181.0669" y="504.1563"/><rect fill="none" height="133.6641" style="stroke:#000000;stroke-width:1.5;" width="449.3481" x="575.1411" y="847.75"/><rect fill="none" height="82.5313" style="stroke:#000000;stroke-width:1.5;" width="238.9009" x="501" y="995.4141"/><line style="stroke:#181818;stroke-width:0.5;stroke-dasharray:5.0,5.0;" x1="59" x2="59" y1="81.2969" y2="1094.9453"/><line style="stroke:#181818;stroke-width:0.5;stroke-dasharray:5.0,5.0;" x1="223.0669" x2="223.0669" y1="81.2969" y2="1094.9453"/><line style="stroke:#181818;stroke-width:0.5;stroke-dasharray:5.0,5.0;" x1="438.5801" x2="438.5801" y1="81.2969" y2="1094.9453"/><line style="stroke:#181818;stroke-width:0.5;stroke-dasharray:5.0,5.0;" x1="621.1411" x2="621.1411" y1="81.2969" y2="1094.9453"/><line style="stroke:#181818;stroke-width:0.5;stroke-dasharray:5.0,5.0;" x1="813.9063" x2="813.9063" y1="81.2969" y2="1094.9453"/><line style="stroke:#181818;stroke-width:0.5;stroke-dasharray:5.0,5.0;" x1="978.2676" x2="978.2676" y1="81.2969" y2="1094.9453"/><text fill="#000000" font-family="sans-serif" font-size="14" lengthAdjust="spacing" textLength="103.0996" x="5" y="77.9951">&#1055;&#1086;&#1083;&#1100;&#1079;&#1086;&#1074;&#1072;&#1090;&#1077;&#1083;&#1100;</text><ellipse cx="59.5498" cy="13.5" fill="#E2E2F0" rx="8" ry="8" style="stroke:#181818;stroke-width:0.5;"/><path d="M59.5498,21.5 L59.5498,48.5 M46.5498,29.5 L72.5498,29.5 M59.5498,48.5 L46.5498,63.5 M59.5498,48.5 L72.5498,63.5 " fill="none" style="stroke:#181818;stroke-width:0.5;"/><text fill="#000000" font-family="sans-serif" font-size="14" lengthAdjust="spacing" textLength="103.0996" x="5" y="1106.9404">&#1055;&#1086;&#1083;&#1100;&#1079;&#1086;&#1074;&#1072;&#1090;&#1077;&#1083;&#1100;</text><ellipse cx="59.5498" cy="1118.7422" fill="#E2E2F0" rx="8" ry="8" style="stroke:#181818;stroke-width:0.5;"/><path d="M59.5498,1126.7422 L59.5498,1153.7422 M46.5498,1134.7422 L72.5498,1134.7422 M59.5498,1153.7422 L46.5498,1168.7422 M59.5498,1153.7422 L72.5498,1168.7422 " fill="none" style="stroke:#181818;stroke-width:0.5;"/><rect fill="#E2E2F0" height="30.2969" rx="2.5" ry="2.5" style="stroke:#181818;stroke-width:0.5;" width="65.8164" x="191.0669" y="50"/><text fill="#000000" font-family="sans-serif" font-size="14" lengthAdjust="spacing" textLength="51.8164" x="198.0669" y="69.9951">&#1052;&#1055; IYM</text><rect fill="#E2E2F0" height="30.2969" rx="2.5" ry="2.5" style="stroke:#181818;stroke-width:0.5;" width="65.8164" x="191.0669" y="1093.9453"/><text fill="#000000" font-family="sans-serif" font-size="14" lengthAdjust="spacing" textLength="51.8164" x="198.0669" y="1113.9404">&#1052;&#1055; IYM</text><rect fill="#E2E2F0" height="30.2969" rx="2.5" ry="2.5" style="stroke:#181818;stroke-width:0.5;" width="103.5713" x="387.5801" y="50"/><text fill="#000000" font-family="sans-serif" font-size="14" lengthAdjust="spacing" textLength="89.5713" x="394.5801" y="69.9951">IYM Backend</text><rect fill="#E2E2F0" height="30.2969" rx="2.5" ry="2.5" style="stroke:#181818;stroke-width:0.5;" width="103.5713" x="387.5801" y="1093.9453"/><text fill="#000000" font-family="sans-serif" font-size="14" lengthAdjust="spacing" textLength="89.5713" x="394.5801" y="1113.9404">IYM Backend</text><rect fill="#E2E2F0" height="30.2969" rx="2.5" ry="2.5" style="stroke:#181818;stroke-width:0.5;" width="72.085" x="585.1411" y="50"/><text fill="#000000" font-family="sans-serif" font-size="14" lengthAdjust="spacing" textLength="58.085" x="592.1411" y="69.9951">IYM Jobs</text><rect fill="#E2E2F0" height="30.2969" rx="2.5" ry="2.5" style="stroke:#181818;stroke-width:0.5;" width="72.085" x="585.1411" y="1093.9453"/><text fill="#000000" font-family="sans-serif" font-size="14" lengthAdjust="spacing" textLength="58.085" x="592.1411" y="1113.9404">IYM Jobs</text><rect fill="#E2E2F0" height="30.2969" rx="2.5" ry="2.5" style="stroke:#181818;stroke-width:0.5;" width="48.6992" x="789.9063" y="50"/><text fill="#000000" font-family="sans-serif" font-size="14" lengthAdjust="spacing" textLength="34.6992" x="796.9063" y="69.9951">ISBM</text><rect fill="#E2E2F0" height="30.2969" rx="2.5" ry="2.5" style="stroke:#181818;stroke-width:0.5;" width="48.6992" x="789.9063" y="1093.9453"/><text fill="#000000" font-family="sans-serif" font-size="14" lengthAdjust="spacing" textLength="34.6992" x="796.9063" y="1113.9404">ISBM</text><rect fill="#E2E2F0" height="30.2969" rx="2.5" ry="2.5" style="stroke:#181818;stroke-width:0.5;" width="72.2217" x="942.2676" y="50"/><text fill="#000000" font-family="sans-serif" font-size="14" lengthAdjust="spacing" textLength="58.2217" x="949.2676" y="69.9951">Tieto CS</text><rect fill="#E2E2F0" height="30.2969" rx="2.5" ry="2.5" style="stroke:#181818;stroke-width:0.5;" width="72.2217" x="942.2676" y="1093.9453"/><text fill="#000000" font-family="sans-serif" font-size="14" lengthAdjust="spacing" textLength="58.2217" x="949.2676" y="1113.9404">Tieto CS</text><rect fill="#FFFFFF" height="560.6563" style="stroke:#181818;stroke-width:1;" width="10" x="54.5498" y="155.5625"/><rect fill="#FFFFFF" height="560.6563" style="stroke:#181818;stroke-width:1;" width="10" x="218.9751" y="155.5625"/><rect fill="#FFFFFF" height="205.0625" style="stroke:#181818;stroke-width:1;" width="10" x="434.3657" y="184.6953"/><rect fill="#FFFFFF" height="144.6641" style="stroke:#181818;stroke-width:1;" width="10" x="434.3657" y="542.4219"/><rect fill="#FFFFFF" height="695.1875" style="stroke:#181818;stroke-width:1;" width="10" x="616.1836" y="389.7578"/><rect fill="#FFFFFF" height="184.7969" style="stroke:#181818;stroke-width:1;" width="10" x="809.2559" y="803.6172"/><rect fill="#FFFFFF" height="29.1328" style="stroke:#181818;stroke-width:1;" width="10" x="973.3784" y="915.1484"/><rect fill="#EEEEEE" height="3" style="stroke:#EEEEEE;stroke-width:1;" width="1034.4893" x="0" y="111.8633"/><line style="stroke:#000000;stroke-width:1;" x1="0" x2="1034.4893" y1="111.8633" y2="111.8633"/><line style="stroke:#000000;stroke-width:1;" x1="0" x2="1034.4893" y1="114.8633" y2="114.8633"/><rect fill="#EEEEEE" height="23.1328" style="stroke:#000000;stroke-width:2;" width="132.9932" x="450.748" y="101.2969"/><text fill="#000000" font-family="sans-serif" font-size="13" font-weight="bold" lengthAdjust="spacing" textLength="118.9932" x="456.748" y="117.3638">&#1055;&#1086;&#1076;&#1075;&#1088;&#1091;&#1079;&#1082;&#1072; &#1082;&#1072;&#1088;&#1090;</text><polygon fill="#181818" points="206.9751,151.5625,216.9751,155.5625,206.9751,159.5625,210.9751,155.5625" style="stroke:#181818;stroke-width:1;"/><line style="stroke:#181818;stroke-width:1;" x1="64.5498" x2="212.9751" y1="155.5625" y2="155.5625"/><text fill="#000000" font-family="sans-serif" font-size="13" lengthAdjust="spacing" textLength="84.5317" x="71.5498" y="150.4966">&#1054;&#1090;&#1082;&#1088;&#1099;&#1090;&#1100; &#1052;&#1055;</text><polygon fill="#181818" points="422.3657,180.6953,432.3657,184.6953,422.3657,188.6953,426.3657,184.6953" style="stroke:#181818;stroke-width:1;"/><line style="stroke:#181818;stroke-width:1;" x1="228.9751" x2="428.3657" y1="184.6953" y2="184.6953"/><text fill="#000000" font-family="sans-serif" font-size="13" lengthAdjust="spacing" textLength="131.5488" x="235.9751" y="179.6294">&#1047;&#1072;&#1087;&#1088;&#1086;&#1089; &#1085;&#1072; &#1088;&#1077;&#1074;&#1080;&#1079;&#1080;&#1102;</text><polygon fill="#181818" points="239.9751,209.8281,229.9751,213.8281,239.9751,217.8281,235.9751,213.8281" style="stroke:#181818;stroke-width:1;"/><line style="stroke:#181818;stroke-width:1;stroke-dasharray:2.0,2.0;" x1="233.9751" x2="433.3657" y1="213.8281" y2="213.8281"/><text fill="#000000" font-family="sans-serif" font-size="13" lengthAdjust="spacing" textLength="181.3906" x="245.9751" y="208.7622">&#1042;&#1088;&#1077;&#1084;&#1077;&#1085;&#1085;&#1072;&#1103; &#1084;&#1077;&#1090;&#1082;&#1072; &#1088;&#1077;&#1074;&#1080;&#1079;&#1080;&#1080;</text><line style="stroke:#181818;stroke-width:1;" x1="444.3657" x2="486.3657" y1="258.0938" y2="258.0938"/><line style="stroke:#181818;stroke-width:1;" x1="486.3657" x2="486.3657" y1="258.0938" y2="271.0938"/><line style="stroke:#181818;stroke-width:1;" x1="445.3657" x2="486.3657" y1="271.0938" y2="271.0938"/><polygon fill="#181818" points="455.3657,267.0938,445.3657,271.0938,455.3657,275.0938,451.3657,271.0938" style="stroke:#181818;stroke-width:1;"/><text fill="#000000" font-family="sans-serif" font-size="13" lengthAdjust="spacing" textLength="143.6855" x="451.3657" y="237.895">&#1055;&#1088;&#1086;&#1074;&#1077;&#1088;&#1082;&#1072; &#1087;&#1086;&#1089;&#1083;&#1077;&#1076;&#1085;&#1077;&#1081;</text><text fill="#000000" font-family="sans-serif" font-size="13" lengthAdjust="spacing" textLength="91.9458" x="451.3657" y="253.0278">&#1088;&#1077;&#1074;&#1080;&#1079;&#1080;&#1080; &#1082;&#1072;&#1088;&#1090;</text><path d="M332,284.0938 L332,324.0938 L545,324.0938 L545,294.0938 L535,284.0938 L332,284.0938 " fill="#FEFFDD" style="stroke:#181818;stroke-width:0.5;"/><path d="M535,284.0938 L535,294.0938 L545,294.0938 L535,284.0938 " fill="#FEFFDD" style="stroke:#181818;stroke-width:0.5;"/><text fill="#000000" font-family="sans-serif" font-size="13" lengthAdjust="spacing" textLength="192.3022" x="338" y="301.1606">&#1055;&#1088;&#1086;&#1074;&#1077;&#1088;&#1082;&#1072; &#1087;&#1086; &#1087;&#1086;&#1083;&#1100;&#1079;&#1086;&#1074;&#1072;&#1090;&#1077;&#1083;&#1102;,</text><text fill="#000000" font-family="sans-serif" font-size="13" lengthAdjust="spacing" textLength="22.7817" x="338" y="316.2935">&#1077;&#1075;&#1086;</text><text fill="#000000" font-family="sans-serif" font-size="13" font-weight="bold" lengthAdjust="spacing" textLength="52.4824" x="364.9141" y="316.2935">user_id</text><path d="M377.5801,336.3594 L442.0229,336.3594 L442.0229,343.4922 L432.0229,353.4922 L377.5801,353.4922 L377.5801,336.3594 " fill="#EEEEEE" style="stroke:#000000;stroke-width:1.5;"/><rect fill="none" height="61.3984" style="stroke:#000000;stroke-width:1.5;" width="289.646" x="377.5801" y="336.3594"/><text fill="#000000" font-family="sans-serif" font-size="13" font-weight="bold" lengthAdjust="spacing" textLength="19.4429" x="392.5801" y="349.4263">alt</text><text fill="#000000" font-family="sans-serif" font-size="11" font-weight="bold" lengthAdjust="spacing" textLength="70.7158" x="457.0229" y="348.5698">[&gt; 10 &#1084;&#1080;&#1085;.]</text><polygon fill="#181818" points="604.1836,385.7578,614.1836,389.7578,604.1836,393.7578,608.1836,389.7578" style="stroke:#181818;stroke-width:1;"/><line style="stroke:#181818;stroke-width:1;" x1="439.3657" x2="610.1836" y1="389.7578" y2="389.7578"/><text fill="#000000" font-family="sans-serif" font-size="13" lengthAdjust="spacing" textLength="112.0869" x="446.3657" y="369.5591">&#1054;&#1073;&#1085;&#1086;&#1074;&#1080;&#1090;&#1100; &#1082;&#1072;&#1088;&#1090;&#1099;</text><text fill="#000000" font-family="sans-serif" font-size="13" lengthAdjust="spacing" textLength="94.6182" x="446.3657" y="384.6919">&#1087;&#1086;&#1083;&#1100;&#1079;&#1086;&#1074;&#1072;&#1090;&#1077;&#1083;&#1103;</text><path d="M142,409.7578 L142,449.7578 L305,449.7578 L305,419.7578 L295,409.7578 L142,409.7578 " fill="#FEFFDD" style="stroke:#181818;stroke-width:0.5;"/><path d="M295,409.7578 L295,419.7578 L305,419.7578 L295,409.7578 " fill="#FEFFDD" style="stroke:#181818;stroke-width:0.5;"/><text fill="#000000" font-family="sans-serif" font-size="13" lengthAdjust="spacing" textLength="142.1938" x="148" y="426.8247">&#1052;&#1055; &#1083;&#1086;&#1082;&#1072;&#1083;&#1100;&#1085;&#1086; &#1093;&#1088;&#1072;&#1085;&#1080;&#1090;</text><text fill="#000000" font-family="sans-serif" font-size="13" lengthAdjust="spacing" textLength="98.084" x="148" y="441.9575">&#1087;&#1086;&#1089;&#1083;&#1077;&#1076;. &#1084;&#1077;&#1090;&#1082;&#1091;</text><line style="stroke:#181818;stroke-width:1;" x1="228.9751" x2="270.9751" y1="476.1563" y2="476.1563"/><line style="stroke:#181818;stroke-width:1;" x1="270.9751" x2="270.9751" y1="476.1563" y2="489.1563"/><line style="stroke:#181818;stroke-width:1;" x1="229.9751" x2="270.9751" y1="489.1563" y2="489.1563"/><polygon fill="#181818" points="239.9751,485.1563,229.9751,489.1563,239.9751,493.1563,235.9751,489.1563" style="stroke:#181818;stroke-width:1;"/><text fill="#000000" font-family="sans-serif" font-size="13" lengthAdjust="spacing" textLength="154.4258" x="235.9751" y="471.0903">&#1057;&#1074;&#1077;&#1088;&#1082;&#1072; &#1084;&#1077;&#1090;&#1086;&#1082; &#1088;&#1077;&#1074;&#1080;&#1079;&#1080;&#1080;</text><path d="M181.0669,504.1563 L245.5098,504.1563 L245.5098,511.2891 L235.5098,521.2891 L181.0669,521.2891 L181.0669,504.1563 " fill="#EEEEEE" style="stroke:#000000;stroke-width:1.5;"/><rect fill="none" height="75.3984" style="stroke:#000000;stroke-width:1.5;" width="320.0845" x="181.0669" y="504.1563"/><text fill="#000000" font-family="sans-serif" font-size="13" font-weight="bold" lengthAdjust="spacing" textLength="19.4429" x="196.0669" y="517.2231">alt</text><text fill="#000000" font-family="sans-serif" font-size="11" font-weight="bold" lengthAdjust="spacing" textLength="111.7026" x="260.5098" y="516.3667">[&#1053;&#1077;&#1090; &#1089;&#1086;&#1074;&#1087;&#1072;&#1076;&#1077;&#1085;&#1080;&#1103;]</text><polygon fill="#181818" points="422.3657,538.4219,432.3657,542.4219,422.3657,546.4219,426.3657,542.4219" style="stroke:#181818;stroke-width:1;"/><line style="stroke:#181818;stroke-width:1;" x1="228.9751" x2="428.3657" y1="542.4219" y2="542.4219"/><text fill="#000000" font-family="sans-serif" font-size="13" lengthAdjust="spacing" textLength="135.1226" x="235.9751" y="537.356">&#1047;&#1072;&#1087;&#1088;&#1086;&#1089; &#1089;&#1087;&#1080;&#1089;&#1082;&#1072; &#1082;&#1072;&#1088;&#1090;</text><polygon fill="#181818" points="239.9751,567.5547,229.9751,571.5547,239.9751,575.5547,235.9751,571.5547" style="stroke:#181818;stroke-width:1;"/><line style="stroke:#181818;stroke-width:1;stroke-dasharray:2.0,2.0;" x1="233.9751" x2="433.3657" y1="571.5547" y2="571.5547"/><text fill="#000000" font-family="sans-serif" font-size="13" lengthAdjust="spacing" textLength="84.7539" x="245.9751" y="566.4888">&#1057;&#1087;&#1080;&#1089;&#1086;&#1082; &#1082;&#1072;&#1088;&#1090;</text><polygon fill="#181818" points="422.3657,603.6875,432.3657,607.6875,422.3657,611.6875,426.3657,607.6875" style="stroke:#181818;stroke-width:1;"/><line style="stroke:#181818;stroke-width:1;" x1="228.9751" x2="428.3657" y1="607.6875" y2="607.6875"/><text fill="#000000" font-family="sans-serif" font-size="13" lengthAdjust="spacing" textLength="143.9331" x="235.9751" y="602.6216">&#1047;&#1072;&#1087;&#1088;&#1086;&#1089; &#1073;&#1072;&#1083;&#1072;&#1085;&#1089;&#1072; &#1082;&#1072;&#1088;&#1090;</text><path d="M360,620.6875 L360,660.6875 L517,660.6875 L517,630.6875 L507,620.6875 L360,620.6875 " fill="#FEFFDD" style="stroke:#181818;stroke-width:0.5;"/><path d="M507,620.6875 L507,630.6875 L517,630.6875 L507,620.6875 " fill="#FEFFDD" style="stroke:#181818;stroke-width:0.5;"/><text fill="#000000" font-family="sans-serif" font-size="13" lengthAdjust="spacing" textLength="136.6714" x="366" y="637.7544">&#1041;&#1072;&#1083;&#1072;&#1085;&#1089; &#1074;&#1089;&#1077;&#1075;&#1076;&#1072; &#1080;&#1076;&#1077;&#1090;</text><text fill="#000000" font-family="sans-serif" font-size="13" lengthAdjust="spacing" textLength="117.0063" x="366" y="652.8872">&#1089; &#1055;&#1062;, &#1091;&#1087;&#1088;&#1086;&#1097;&#1077;&#1085;&#1085;&#1086;</text><polygon fill="#181818" points="239.9751,683.0859,229.9751,687.0859,239.9751,691.0859,235.9751,687.0859" style="stroke:#181818;stroke-width:1;"/><line style="stroke:#181818;stroke-width:1;stroke-dasharray:2.0,2.0;" x1="233.9751" x2="438.3657" y1="687.0859" y2="687.0859"/><text fill="#000000" font-family="sans-serif" font-size="13" lengthAdjust="spacing" textLength="84.5825" x="245.9751" y="682.02">&#1041;&#1072;&#1083;&#1072;&#1085;&#1089; &#1082;&#1072;&#1088;&#1090;</text><polygon fill="#181818" points="70.5498,712.2188,60.5498,716.2188,70.5498,720.2188,66.5498,716.2188" style="stroke:#181818;stroke-width:1;"/><line style="stroke:#181818;stroke-width:1;stroke-dasharray:2.0,2.0;" x1="64.5498" x2="222.9751" y1="716.2188" y2="716.2188"/><text fill="#000000" font-family="sans-serif" font-size="13" lengthAdjust="spacing" textLength="130.4253" x="76.5498" y="711.1528">&#1054;&#1090;&#1086;&#1073;&#1088;&#1072;&#1078;&#1077;&#1085;&#1080;&#1077; &#1082;&#1072;&#1088;&#1090;</text><rect fill="#EEEEEE" height="3" style="stroke:#EEEEEE;stroke-width:1;" width="1034.4893" x="0" y="744.7852"/><line style="stroke:#000000;stroke-width:1;" x1="0" x2="1034.4893" y1="744.7852" y2="744.7852"/><line style="stroke:#000000;stroke-width:1;" x1="0" x2="1034.4893" y1="747.7852" y2="747.7852"/><rect fill="#EEEEEE" height="23.1328" style="stroke:#000000;stroke-width:2;" width="220.3623" x="407.0635" y="734.2188"/><text fill="#000000" font-family="sans-serif" font-size="13" font-weight="bold" lengthAdjust="spacing" textLength="206.3623" x="413.0635" y="750.2856">&#1042;&#1085;&#1077;&#1089;&#1077;&#1085;&#1080;&#1077;/&#1054;&#1073;&#1085;&#1086;&#1074;&#1083;&#1077;&#1085;&#1080;&#1077; &#1082;&#1072;&#1088;&#1090;</text><polygon fill="#181818" points="797.2559,799.6172,807.2559,803.6172,797.2559,807.6172,801.2559,803.6172" style="stroke:#181818;stroke-width:1;"/><line style="stroke:#181818;stroke-width:1;" x1="626.1836" x2="803.2559" y1="803.6172" y2="803.6172"/><text fill="#000000" font-family="sans-serif" font-size="13" lengthAdjust="spacing" textLength="116.5811" x="633.1836" y="783.4185">&#1047;&#1072;&#1087;&#1088;&#1086;&#1089; &#1082;&#1083;&#1080;&#1077;&#1085;&#1090;&#1086;&#1074;</text><text fill="#000000" font-family="sans-serif" font-size="13" lengthAdjust="spacing" textLength="94.6182" x="633.1836" y="798.5513">&#1087;&#1086;&#1083;&#1100;&#1079;&#1086;&#1074;&#1072;&#1090;&#1077;&#1083;&#1103;</text><polygon fill="#181818" points="637.1836,828.75,627.1836,832.75,637.1836,836.75,633.1836,832.75" style="stroke:#181818;stroke-width:1;"/><line style="stroke:#181818;stroke-width:1;stroke-dasharray:2.0,2.0;" x1="631.1836" x2="808.2559" y1="832.75" y2="832.75"/><text fill="#000000" font-family="sans-serif" font-size="13" lengthAdjust="spacing" textLength="159.0723" x="643.1836" y="827.6841">&#1050;&#1083;&#1080;&#1077;&#1085;&#1090;&#1099; &#1087;&#1086;&#1083;&#1100;&#1079;&#1086;&#1074;&#1072;&#1090;&#1077;&#1083;&#1103;</text><path d="M575.1411,847.75 L651.7651,847.75 L651.7651,854.8828 L641.7651,864.8828 L575.1411,864.8828 L575.1411,847.75 " fill="#EEEEEE" style="stroke:#000000;stroke-width:1.5;"/><rect fill="none" height="133.6641" style="stroke:#000000;stroke-width:1.5;" width="449.3481" x="575.1411" y="847.75"/><text fill="#000000" font-family="sans-serif" font-size="13" font-weight="bold" lengthAdjust="spacing" textLength="31.624" x="590.1411" y="860.8169">loop</text><text fill="#000000" font-family="sans-serif" font-size="11" font-weight="bold" lengthAdjust="spacing" textLength="82.2744" x="666.7651" y="859.9604">[N &#1082;&#1083;&#1080;&#1077;&#1085;&#1090;&#1086;&#1074;]</text><polygon fill="#181818" points="797.2559,882.0156,807.2559,886.0156,797.2559,890.0156,801.2559,886.0156" style="stroke:#181818;stroke-width:1;"/><line style="stroke:#181818;stroke-width:1;" x1="626.1836" x2="803.2559" y1="886.0156" y2="886.0156"/><text fill="#000000" font-family="sans-serif" font-size="13" lengthAdjust="spacing" textLength="120.6626" x="633.1836" y="880.9497">&#1047;&#1072;&#1087;&#1088;&#1086;&#1089; &#1082;&#1072;&#1088;&#1090; Tieto</text><polygon fill="#181818" points="961.3784,911.1484,971.3784,915.1484,961.3784,919.1484,965.3784,915.1484" style="stroke:#181818;stroke-width:1;"/><line style="stroke:#181818;stroke-width:1;" x1="819.2559" x2="967.3784" y1="915.1484" y2="915.1484"/><text fill="#000000" font-family="sans-serif" font-size="13" lengthAdjust="spacing" textLength="135.1226" x="826.2559" y="910.0825">&#1047;&#1072;&#1087;&#1088;&#1086;&#1089; &#1089;&#1087;&#1080;&#1089;&#1082;&#1072; &#1082;&#1072;&#1088;&#1090;</text><polygon fill="#181818" points="830.2559,940.2813,820.2559,944.2813,830.2559,948.2813,826.2559,944.2813" style="stroke:#181818;stroke-width:1;"/><line style="stroke:#181818;stroke-width:1;stroke-dasharray:2.0,2.0;" x1="824.2559" x2="977.3784" y1="944.2813" y2="944.2813"/><text fill="#000000" font-family="sans-serif" font-size="13" lengthAdjust="spacing" textLength="84.7539" x="836.2559" y="939.2153">&#1057;&#1087;&#1080;&#1089;&#1086;&#1082; &#1082;&#1072;&#1088;&#1090;</text><polygon fill="#181818" points="637.1836,969.4141,627.1836,973.4141,637.1836,977.4141,633.1836,973.4141" style="stroke:#181818;stroke-width:1;"/><line style="stroke:#181818;stroke-width:1;stroke-dasharray:2.0,2.0;" x1="631.1836" x2="808.2559" y1="973.4141" y2="973.4141"/><text fill="#000000" font-family="sans-serif" font-size="13" lengthAdjust="spacing" textLength="121.4878" x="643.1836" y="968.3481">&#1057;&#1087;&#1080;&#1089;&#1086;&#1082; &#1082;&#1072;&#1088;&#1090; Tieto</text><path d="M501,995.4141 L565.4429,995.4141 L565.4429,1002.5469 L555.4429,1012.5469 L501,1012.5469 L501,995.4141 " fill="#EEEEEE" style="stroke:#000000;stroke-width:1.5;"/><rect fill="none" height="82.5313" style="stroke:#000000;stroke-width:1.5;" width="238.9009" x="501" y="995.4141"/><text fill="#000000" font-family="sans-serif" font-size="13" font-weight="bold" lengthAdjust="spacing" textLength="19.4429" x="516" y="1008.481">alt</text><text fill="#000000" font-family="sans-serif" font-size="11" font-weight="bold" lengthAdjust="spacing" textLength="145.4385" x="580.4429" y="1007.6245">[&#1048;&#1084;&#1077;&#1102;&#1090;&#1089;&#1103; &#1086;&#1073;&#1085;&#1086;&#1074;&#1083;&#1077;&#1085;&#1080;&#1103;]</text><path d="M511,1017.5469 L511,1072.5469 L729,1072.5469 L729,1027.5469 L719,1017.5469 L511,1017.5469 " fill="#87CEEB" style="stroke:#181818;stroke-width:0.5;"/><path d="M719,1017.5469 L719,1027.5469 L729,1027.5469 L719,1017.5469 " fill="#87CEEB" style="stroke:#181818;stroke-width:0.5;"/><text fill="#000000" font-family="sans-serif" font-size="13" lengthAdjust="spacing" textLength="197.9009" x="517" y="1034.6138">IYM Jobs &#1074;&#1085;&#1086;&#1089;&#1080;&#1090; &#1085;&#1086;&#1074;&#1099;&#1077; &#1082;&#1072;&#1088;&#1090;&#1099;</text><text fill="#000000" font-family="sans-serif" font-size="13" lengthAdjust="spacing" textLength="98.8076" x="517" y="1049.7466">&#1080; &#1080;&#1079;&#1084;&#1077;&#1085;&#1077;&#1085;&#1080;&#1103; &#1074;</text><text fill="#000000" font-family="sans-serif" font-size="13" font-weight="bold" lengthAdjust="spacing" textLength="86.3916" x="619.9399" y="1049.7466">users_cards</text><text fill="#000000" font-family="sans-serif" font-size="13" lengthAdjust="spacing" textLength="166.9053" x="517" y="1064.8794">&#1089; &#1072;&#1082;&#1090;&#1091;&#1072;&#1083;&#1100;&#1085;&#1099;&#1084;&#1080; &#1084;&#1077;&#1090;&#1082;&#1072;&#1084;&#1080;</text><!--SRC=[dLLDRn9H5DtFhtZ17MchReqqaQOBJNH3NPYOD2Em82KCWMaJTuN6XQ6XiHkDqP9kN0C57Q70NtZl7tdEdSTyyA69JShmEkUSUy-zzzswHTzhgF0detjwhgVcKl_2SwZxfgt7F6UKsrIlc-M6KtSRVgLOgRir7_1lkgUUltcPiNo0djNhQGnUgxnRF2dNIXb1v0_N0I-yTytCKeA75KWX7yKG2F-GXXnLohwd3WgHoj51mN5oEN4qqdVct5p0rKJt5JzmRETo3YsftNrchPueVGE_4xpgcBQvL7Jdk4M_SkRwvT1zTA9Dai3D7vBwMVVrmfphkMafFKCKV1-ZX0621gORCs6VnAUxkvPvBSXx_Cv8D5UA1sQoeg831umeOe_Hy6wCfzXQCBYUWZ22q5Z_LczhQNvatQbvICKxWtlair5AFZRCGdV7mVCEW6ps53KvhfIoMGVTLTHqtAglzjNZHpGHwDcUJPazbGhh0NAZNX3Ms2PaEaXsIyGhfrHEbY_wBeE2o0atx8jC9UemfxZe8Q8o7s2kZwy8x2HhjHVLsrp4FcnpxM3S9eiJeg6-sXrwrz_vLa6S5XQ8E9BE1h31oTmwD60iW6gbHbGeIUzBYNXyRYsD-KGq5cNxU0vO5jO2jFwscVWKWvGU0iccZuWFQ0bulkZf7piADolK_cY7U9wkOvniIdGPDzrTkP9a9ExaN0-aUJ_3KkhnHZ9xdpZAXSK2kEPbaFo5-Z0nWzCrFUm46LKKZZjchNGJS0Ao9AlXtuOsIaIMbQZIrbBsQwo4uT-gKlMykdgr5bW6uH-PYY4bYr7W0WCSc_4_Xe_xD5AX4IkpSVu8JBHYoLqhmYQopPWZd92G8ie5-o8Ni8kojRWhvwlTj1SjdcQ9-g1myZvVFIs77ko_70mskKW0Iq65CgQJ60VJ4Jmt9ozvkAHj593j2cmU5zr6gOarI32BtySoQUDQsFK3pNjgH7kTHm57zsJ5BhFx0m00]--></g></svg>