<svg xmlns="http://www.w3.org/2000/svg" xmlns:xlink="http://www.w3.org/1999/xlink" contentStyleType="text/css" data-diagram-type="SEQUENCE" height="858px" preserveAspectRatio="none" style="width:684px;height:858px;background:#FFFFFF;" version="1.1" viewBox="0 0 684 858" width="684px" zoomAndPan="magnify"><defs/><g><rect fill="#FFFFFF" height="560.6563" style="stroke:#181818;stroke-width:1;" width="10" x="54.5498" y="155.5625"/><rect fill="#FFFFFF" height="560.6563" style="stroke:#181818;stroke-width:1;" width="10" x="218.9751" y="155.5625"/><rect fill="#FFFFFF" height="205.0625" style="stroke:#181818;stroke-width:1;" width="10" x="434.3657" y="184.6953"/><rect fill="#FFFFFF" height="144.6641" style="stroke:#181818;stroke-width:1;" width="10" x="434.3657" y="542.4219"/><rect fill="none" height="61.3984" style="stroke:#000000;stroke-width:1.5;" width="289.646" x="377.5801" y="336.3594"/><rect fill="none" height="75.3984" style="stroke:#000000;stroke-width:1.5;" width="320.0845" x="181.0669" y="504.1563"/><line style="stroke:#181818;stroke-width:0.5;stroke-dasharray:5.0,5.0;" x1="59" x2="59" y1="81.2969" y2="777.3516"/><line style="stroke:#181818;stroke-width:0.5;stroke-dasharray:5.0,5.0;" x1="223.0669" x2="223.0669" y1="81.2969" y2="777.3516"/><line style="stroke:#181818;stroke-width:0.5;stroke-dasharray:5.0,5.0;" x1="438.5801" x2="438.5801" y1="81.2969" y2="777.3516"/><line style="stroke:#181818;stroke-width:0.5;stroke-dasharray:5.0,5.0;" x1="621.1411" x2="621.1411" y1="81.2969" y2="777.3516"/><text fill="#000000" font-family="sans-serif" font-size="14" lengthAdjust="spacing" textLength="103.0996" x="5" y="77.9951">&#1055;&#1086;&#1083;&#1100;&#1079;&#1086;&#1074;&#1072;&#1090;&#1077;&#1083;&#1100;</text><ellipse cx="59.5498" cy="13.5" fill="#E2E2F0" rx="8" ry="8" style="stroke:#181818;stroke-width:0.5;"/><path d="M59.5498,21.5 L59.5498,48.5 M46.5498,29.5 L72.5498,29.5 M59.5498,48.5 L46.5498,63.5 M59.5498,48.5 L72.5498,63.5 " fill="none" style="stroke:#181818;stroke-width:0.5;"/><text fill="#000000" font-family="sans-serif" font-size="14" lengthAdjust="spacing" textLength="103.0996" x="5" y="789.3467">&#1055;&#1086;&#1083;&#1100;&#1079;&#1086;&#1074;&#1072;&#1090;&#1077;&#1083;&#1100;</text><ellipse cx="59.5498" cy="801.1484" fill="#E2E2F0" rx="8" ry="8" style="stroke:#181818;stroke-width:0.5;"/><path d="M59.5498,809.1484 L59.5498,836.1484 M46.5498,817.1484 L72.5498,817.1484 M59.5498,836.1484 L46.5498,851.1484 M59.5498,836.1484 L72.5498,851.1484 " fill="none" style="stroke:#181818;stroke-width:0.5;"/><rect fill="#E2E2F0" height="30.2969" rx="2.5" ry="2.5" style="stroke:#181818;stroke-width:0.5;" width="65.8164" x="191.0669" y="50"/><text fill="#000000" font-family="sans-serif" font-size="14" lengthAdjust="spacing" textLength="51.8164" x="198.0669" y="69.9951">&#1052;&#1055; IYM</text><rect fill="#E2E2F0" height="30.2969" rx="2.5" ry="2.5" style="stroke:#181818;stroke-width:0.5;" width="65.8164" x="191.0669" y="776.3516"/><text fill="#000000" font-family="sans-serif" font-size="14" lengthAdjust="spacing" textLength="51.8164" x="198.0669" y="796.3467">&#1052;&#1055; IYM</text><rect fill="#E2E2F0" height="30.2969" rx="2.5" ry="2.5" style="stroke:#181818;stroke-width:0.5;" width="103.5713" x="387.5801" y="50"/><text fill="#000000" font-family="sans-serif" font-size="14" lengthAdjust="spacing" textLength="89.5713" x="394.5801" y="69.9951">IYM Backend</text><rect fill="#E2E2F0" height="30.2969" rx="2.5" ry="2.5" style="stroke:#181818;stroke-width:0.5;" width="103.5713" x="387.5801" y="776.3516"/><text fill="#000000" font-family="sans-serif" font-size="14" lengthAdjust="spacing" textLength="89.5713" x="394.5801" y="796.3467">IYM Backend</text><rect fill="#E2E2F0" height="30.2969" rx="2.5" ry="2.5" style="stroke:#181818;stroke-width:0.5;" width="72.085" x="585.1411" y="50"/><text fill="#000000" font-family="sans-serif" font-size="14" lengthAdjust="spacing" textLength="58.085" x="592.1411" y="69.9951">IYM Jobs</text><rect fill="#E2E2F0" height="30.2969" rx="2.5" ry="2.5" style="stroke:#181818;stroke-width:0.5;" width="72.085" x="585.1411" y="776.3516"/><text fill="#000000" font-family="sans-serif" font-size="14" lengthAdjust="spacing" textLength="58.085" x="592.1411" y="796.3467">IYM Jobs</text><rect fill="#FFFFFF" height="560.6563" style="stroke:#181818;stroke-width:1;" width="10" x="54.5498" y="155.5625"/><rect fill="#FFFFFF" height="560.6563" style="stroke:#181818;stroke-width:1;" width="10" x="218.9751" y="155.5625"/><rect fill="#FFFFFF" height="205.0625" style="stroke:#181818;stroke-width:1;" width="10" x="434.3657" y="184.6953"/><rect fill="#FFFFFF" height="144.6641" style="stroke:#181818;stroke-width:1;" width="10" x="434.3657" y="542.4219"/><rect fill="#EEEEEE" height="3" style="stroke:#EEEEEE;stroke-width:1;" width="677.2261" x="0" y="111.8633"/><line style="stroke:#000000;stroke-width:1;" x1="0" x2="677.2261" y1="111.8633" y2="111.8633"/><line style="stroke:#000000;stroke-width:1;" x1="0" x2="677.2261" y1="114.8633" y2="114.8633"/><rect fill="#EEEEEE" height="23.1328" style="stroke:#000000;stroke-width:2;" width="132.9932" x="272.1165" y="101.2969"/><text fill="#000000" font-family="sans-serif" font-size="13" font-weight="bold" lengthAdjust="spacing" textLength="118.9932" x="278.1165" y="117.3638">&#1055;&#1086;&#1076;&#1075;&#1088;&#1091;&#1079;&#1082;&#1072; &#1082;&#1072;&#1088;&#1090;</text><polygon fill="#181818" points="206.9751,151.5625,216.9751,155.5625,206.9751,159.5625,210.9751,155.5625" style="stroke:#181818;stroke-width:1;"/><line style="stroke:#181818;stroke-width:1;" x1="64.5498" x2="212.9751" y1="155.5625" y2="155.5625"/><text fill="#000000" font-family="sans-serif" font-size="13" lengthAdjust="spacing" textLength="84.5317" x="71.5498" y="150.4966">&#1054;&#1090;&#1082;&#1088;&#1099;&#1090;&#1100; &#1052;&#1055;</text><polygon fill="#181818" points="422.3657,180.6953,432.3657,184.6953,422.3657,188.6953,426.3657,184.6953" style="stroke:#181818;stroke-width:1;"/><line style="stroke:#181818;stroke-width:1;" x1="228.9751" x2="428.3657" y1="184.6953" y2="184.6953"/><text fill="#000000" font-family="sans-serif" font-size="13" lengthAdjust="spacing" textLength="131.5488" x="235.9751" y="179.6294">&#1047;&#1072;&#1087;&#1088;&#1086;&#1089; &#1085;&#1072; &#1088;&#1077;&#1074;&#1080;&#1079;&#1080;&#1102;</text><polygon fill="#181818" points="239.9751,209.8281,229.9751,213.8281,239.9751,217.8281,235.9751,213.8281" style="stroke:#181818;stroke-width:1;"/><line style="stroke:#181818;stroke-width:1;stroke-dasharray:2.0,2.0;" x1="233.9751" x2="433.3657" y1="213.8281" y2="213.8281"/><text fill="#000000" font-family="sans-serif" font-size="13" lengthAdjust="spacing" textLength="181.3906" x="245.9751" y="208.7622">&#1042;&#1088;&#1077;&#1084;&#1077;&#1085;&#1085;&#1072;&#1103; &#1084;&#1077;&#1090;&#1082;&#1072; &#1088;&#1077;&#1074;&#1080;&#1079;&#1080;&#1080;</text><line style="stroke:#181818;stroke-width:1;" x1="444.3657" x2="486.3657" y1="258.0938" y2="258.0938"/><line style="stroke:#181818;stroke-width:1;" x1="486.3657" x2="486.3657" y1="258.0938" y2="271.0938"/><line style="stroke:#181818;stroke-width:1;" x1="445.3657" x2="486.3657" y1="271.0938" y2="271.0938"/><polygon fill="#181818" points="455.3657,267.0938,445.3657,271.0938,455.3657,275.0938,451.3657,271.0938" style="stroke:#181818;stroke-width:1;"/><text fill="#000000" font-family="sans-serif" font-size="13" lengthAdjust="spacing" textLength="143.6855" x="451.3657" y="237.895">&#1055;&#1088;&#1086;&#1074;&#1077;&#1088;&#1082;&#1072; &#1087;&#1086;&#1089;&#1083;&#1077;&#1076;&#1085;&#1077;&#1081;</text><text fill="#000000" font-family="sans-serif" font-size="13" lengthAdjust="spacing" textLength="91.9458" x="451.3657" y="253.0278">&#1088;&#1077;&#1074;&#1080;&#1079;&#1080;&#1080; &#1082;&#1072;&#1088;&#1090;</text><path d="M332,284.0938 L332,324.0938 L545,324.0938 L545,294.0938 L535,284.0938 L332,284.0938 " fill="#FEFFDD" style="stroke:#181818;stroke-width:0.5;"/><path d="M535,284.0938 L535,294.0938 L545,294.0938 L535,284.0938 " fill="#FEFFDD" style="stroke:#181818;stroke-width:0.5;"/><text fill="#000000" font-family="sans-serif" font-size="13" lengthAdjust="spacing" textLength="192.3022" x="338" y="301.1606">&#1055;&#1088;&#1086;&#1074;&#1077;&#1088;&#1082;&#1072; &#1087;&#1086; &#1087;&#1086;&#1083;&#1100;&#1079;&#1086;&#1074;&#1072;&#1090;&#1077;&#1083;&#1102;,</text><text fill="#000000" font-family="sans-serif" font-size="13" lengthAdjust="spacing" textLength="22.7817" x="338" y="316.2935">&#1077;&#1075;&#1086;</text><text fill="#000000" font-family="sans-serif" font-size="13" font-weight="bold" lengthAdjust="spacing" textLength="52.4824" x="364.9141" y="316.2935">user_id</text><path d="M377.5801,336.3594 L442.0229,336.3594 L442.0229,343.4922 L432.0229,353.4922 L377.5801,353.4922 L377.5801,336.3594 " fill="#EEEEEE" style="stroke:#000000;stroke-width:1.5;"/><rect fill="none" height="61.3984" style="stroke:#000000;stroke-width:1.5;" width="289.646" x="377.5801" y="336.3594"/><text fill="#000000" font-family="sans-serif" font-size="13" font-weight="bold" lengthAdjust="spacing" textLength="19.4429" x="392.5801" y="349.4263">alt</text><text fill="#000000" font-family="sans-serif" font-size="11" font-weight="bold" lengthAdjust="spacing" textLength="70.7158" x="457.0229" y="348.5698">[&gt; 10 &#1084;&#1080;&#1085;.]</text><polygon fill="#181818" points="609.1836,385.7578,619.1836,389.7578,609.1836,393.7578,613.1836,389.7578" style="stroke:#181818;stroke-width:1;"/><line style="stroke:#181818;stroke-width:1;" x1="439.3657" x2="615.1836" y1="389.7578" y2="389.7578"/><text fill="#000000" font-family="sans-serif" font-size="13" lengthAdjust="spacing" textLength="112.0869" x="446.3657" y="369.5591">&#1054;&#1073;&#1085;&#1086;&#1074;&#1080;&#1090;&#1100; &#1082;&#1072;&#1088;&#1090;&#1099;</text><text fill="#000000" font-family="sans-serif" font-size="13" lengthAdjust="spacing" textLength="94.6182" x="446.3657" y="384.6919">&#1087;&#1086;&#1083;&#1100;&#1079;&#1086;&#1074;&#1072;&#1090;&#1077;&#1083;&#1103;</text><path d="M142,409.7578 L142,449.7578 L305,449.7578 L305,419.7578 L295,409.7578 L142,409.7578 " fill="#FEFFDD" style="stroke:#181818;stroke-width:0.5;"/><path d="M295,409.7578 L295,419.7578 L305,419.7578 L295,409.7578 " fill="#FEFFDD" style="stroke:#181818;stroke-width:0.5;"/><text fill="#000000" font-family="sans-serif" font-size="13" lengthAdjust="spacing" textLength="142.1938" x="148" y="426.8247">&#1052;&#1055; &#1083;&#1086;&#1082;&#1072;&#1083;&#1100;&#1085;&#1086; &#1093;&#1088;&#1072;&#1085;&#1080;&#1090;</text><text fill="#000000" font-family="sans-serif" font-size="13" lengthAdjust="spacing" textLength="98.084" x="148" y="441.9575">&#1087;&#1086;&#1089;&#1083;&#1077;&#1076;. &#1084;&#1077;&#1090;&#1082;&#1091;</text><line style="stroke:#181818;stroke-width:1;" x1="228.9751" x2="270.9751" y1="476.1563" y2="476.1563"/><line style="stroke:#181818;stroke-width:1;" x1="270.9751" x2="270.9751" y1="476.1563" y2="489.1563"/><line style="stroke:#181818;stroke-width:1;" x1="229.9751" x2="270.9751" y1="489.1563" y2="489.1563"/><polygon fill="#181818" points="239.9751,485.1563,229.9751,489.1563,239.9751,493.1563,235.9751,489.1563" style="stroke:#181818;stroke-width:1;"/><text fill="#000000" font-family="sans-serif" font-size="13" lengthAdjust="spacing" textLength="154.4258" x="235.9751" y="471.0903">&#1057;&#1074;&#1077;&#1088;&#1082;&#1072; &#1084;&#1077;&#1090;&#1086;&#1082; &#1088;&#1077;&#1074;&#1080;&#1079;&#1080;&#1080;</text><path d="M181.0669,504.1563 L245.5098,504.1563 L245.5098,511.2891 L235.5098,521.2891 L181.0669,521.2891 L181.0669,504.1563 " fill="#EEEEEE" style="stroke:#000000;stroke-width:1.5;"/><rect fill="none" height="75.3984" style="stroke:#000000;stroke-width:1.5;" width="320.0845" x="181.0669" y="504.1563"/><text fill="#000000" font-family="sans-serif" font-size="13" font-weight="bold" lengthAdjust="spacing" textLength="19.4429" x="196.0669" y="517.2231">alt</text><text fill="#000000" font-family="sans-serif" font-size="11" font-weight="bold" lengthAdjust="spacing" textLength="111.7026" x="260.5098" y="516.3667">[&#1053;&#1077;&#1090; &#1089;&#1086;&#1074;&#1087;&#1072;&#1076;&#1077;&#1085;&#1080;&#1103;]</text><polygon fill="#181818" points="422.3657,538.4219,432.3657,542.4219,422.3657,546.4219,426.3657,542.4219" style="stroke:#181818;stroke-width:1;"/><line style="stroke:#181818;stroke-width:1;" x1="228.9751" x2="428.3657" y1="542.4219" y2="542.4219"/><text fill="#000000" font-family="sans-serif" font-size="13" lengthAdjust="spacing" textLength="135.1226" x="235.9751" y="537.356">&#1047;&#1072;&#1087;&#1088;&#1086;&#1089; &#1089;&#1087;&#1080;&#1089;&#1082;&#1072; &#1082;&#1072;&#1088;&#1090;</text><polygon fill="#181818" points="239.9751,567.5547,229.9751,571.5547,239.9751,575.5547,235.9751,571.5547" style="stroke:#181818;stroke-width:1;"/><line style="stroke:#181818;stroke-width:1;stroke-dasharray:2.0,2.0;" x1="233.9751" x2="433.3657" y1="571.5547" y2="571.5547"/><text fill="#000000" font-family="sans-serif" font-size="13" lengthAdjust="spacing" textLength="84.7539" x="245.9751" y="566.4888">&#1057;&#1087;&#1080;&#1089;&#1086;&#1082; &#1082;&#1072;&#1088;&#1090;</text><polygon fill="#181818" points="422.3657,603.6875,432.3657,607.6875,422.3657,611.6875,426.3657,607.6875" style="stroke:#181818;stroke-width:1;"/><line style="stroke:#181818;stroke-width:1;" x1="228.9751" x2="428.3657" y1="607.6875" y2="607.6875"/><text fill="#000000" font-family="sans-serif" font-size="13" lengthAdjust="spacing" textLength="143.9331" x="235.9751" y="602.6216">&#1047;&#1072;&#1087;&#1088;&#1086;&#1089; &#1073;&#1072;&#1083;&#1072;&#1085;&#1089;&#1072; &#1082;&#1072;&#1088;&#1090;</text><path d="M360,620.6875 L360,660.6875 L517,660.6875 L517,630.6875 L507,620.6875 L360,620.6875 " fill="#FEFFDD" style="stroke:#181818;stroke-width:0.5;"/><path d="M507,620.6875 L507,630.6875 L517,630.6875 L507,620.6875 " fill="#FEFFDD" style="stroke:#181818;stroke-width:0.5;"/><text fill="#000000" font-family="sans-serif" font-size="13" lengthAdjust="spacing" textLength="136.6714" x="366" y="637.7544">&#1041;&#1072;&#1083;&#1072;&#1085;&#1089; &#1074;&#1089;&#1077;&#1075;&#1076;&#1072; &#1080;&#1076;&#1077;&#1090;</text><text fill="#000000" font-family="sans-serif" font-size="13" lengthAdjust="spacing" textLength="117.0063" x="366" y="652.8872">&#1089; &#1055;&#1062;, &#1091;&#1087;&#1088;&#1086;&#1097;&#1077;&#1085;&#1085;&#1086;</text><polygon fill="#181818" points="239.9751,683.0859,229.9751,687.0859,239.9751,691.0859,235.9751,687.0859" style="stroke:#181818;stroke-width:1;"/><line style="stroke:#181818;stroke-width:1;stroke-dasharray:2.0,2.0;" x1="233.9751" x2="438.3657" y1="687.0859" y2="687.0859"/><text fill="#000000" font-family="sans-serif" font-size="13" lengthAdjust="spacing" textLength="84.5825" x="245.9751" y="682.02">&#1041;&#1072;&#1083;&#1072;&#1085;&#1089; &#1082;&#1072;&#1088;&#1090;</text><polygon fill="#181818" points="70.5498,712.2188,60.5498,716.2188,70.5498,720.2188,66.5498,716.2188" style="stroke:#181818;stroke-width:1;"/><line style="stroke:#181818;stroke-width:1;stroke-dasharray:2.0,2.0;" x1="64.5498" x2="222.9751" y1="716.2188" y2="716.2188"/><text fill="#000000" font-family="sans-serif" font-size="13" lengthAdjust="spacing" textLength="130.4253" x="76.5498" y="711.1528">&#1054;&#1090;&#1086;&#1073;&#1088;&#1072;&#1078;&#1077;&#1085;&#1080;&#1077; &#1082;&#1072;&#1088;&#1090;</text><rect fill="#EEEEEE" height="3" style="stroke:#EEEEEE;stroke-width:1;" width="677.2261" x="0" y="744.7852"/><line style="stroke:#000000;stroke-width:1;" x1="0" x2="677.2261" y1="744.7852" y2="744.7852"/><line style="stroke:#000000;stroke-width:1;" x1="0" x2="677.2261" y1="747.7852" y2="747.7852"/><rect fill="#EEEEEE" height="23.1328" style="stroke:#000000;stroke-width:2;" width="220.3623" x="228.4319" y="734.2188"/><text fill="#000000" font-family="sans-serif" font-size="13" font-weight="bold" lengthAdjust="spacing" textLength="206.3623" x="234.4319" y="750.2856">&#1042;&#1085;&#1077;&#1089;&#1077;&#1085;&#1080;&#1077;/&#1054;&#1073;&#1085;&#1086;&#1074;&#1083;&#1077;&#1085;&#1080;&#1077; &#1082;&#1072;&#1088;&#1090;</text><!--SRC=[TLCzRzDG5DtVhxZo63M5hWXN8b87AZ5sG4929iaGWP8eSJktgHXGgrPqOG6YBinE6uDfYFCNxlj7dFFi-ADD8iNsrJldt7C_Nj0E1oF9VfvEDTM5lTG_UDzfP2SQC_Oa6ClHk3ioms0KzjgzOT0F0V-kKtdzzesNym5wDHpMCJYMLj3-sErtF8Te7Jm570u-ZBsr10DZVD-PcUkzFRNdCFIWaV21SEBxXcwakS-4yaBq9wm-uEZ2Jkobq9W9sc7l90YxcV4YeaEIm6qTaFfD8rtPKqtjcUWIMV0Te_e4IHDxLJBXdCINpMREl778V_WlIRJNme1E7gbeOi0eCawP3MSntgwi5PFh0eGvX6BzA-_wTNvHkkaFO6LmWkhXPwEKUsmOuzMEmViUW4RZ63rvt-iq6WQ34MgQu5Ce-xBtd4KakjpDBNCShiCwWpVg9LcFSqFs0cQtPBmsdMwrVSXLySz9k1L2vIdbd09oYFsCSY9y8fMfTcUtwB0zBvtduynNuRRQZWmDzSVpOBNwWwS2SPfU8UFSpJA1SIxZrZK1OmNKMMqf7QLQxLgYN9ZRd4O_1OrDsRwGCxQ5lG0jshO5NqkGw1sG7FES-8Gb0S-3gVxQ4TobJFjBlhPflO-bsPheEczzdkuIab6vXQdEtF1-PwtKU2EPiw-4xehYojzm_Pr_HtrMsRh54ptV_my0]--></g></svg>