<svg xmlns="http://www.w3.org/2000/svg" xmlns:xlink="http://www.w3.org/1999/xlink" contentStyleType="text/css" data-diagram-type="SEQUENCE" height="496px" preserveAspectRatio="none" style="width:560px;height:496px;background:#FFFFFF;" version="1.1" viewBox="0 0 560 496" width="560px" zoomAndPan="magnify"><defs/><g><rect fill="#FFFFFF" height="325.5938" style="stroke:#181818;stroke-width:1;" width="10" x="135.2192" y="125.6953"/><rect fill="#FFFFFF" height="184.7969" style="stroke:#181818;stroke-width:1;" width="10" x="328.2915" y="169.9609"/><rect fill="#FFFFFF" height="29.1328" style="stroke:#181818;stroke-width:1;" width="10" x="492.4141" y="281.4922"/><rect fill="none" height="133.6641" style="stroke:#000000;stroke-width:1.5;" width="449.3481" x="94.1768" y="214.0938"/><rect fill="none" height="82.5313" style="stroke:#000000;stroke-width:1.5;" width="238.9009" x="20" y="361.7578"/><line style="stroke:#181818;stroke-width:0.5;stroke-dasharray:5.0,5.0;" x1="140.1768" x2="140.1768" y1="36.2969" y2="461.2891"/><line style="stroke:#181818;stroke-width:0.5;stroke-dasharray:5.0,5.0;" x1="332.9419" x2="332.9419" y1="36.2969" y2="461.2891"/><line style="stroke:#181818;stroke-width:0.5;stroke-dasharray:5.0,5.0;" x1="497.3032" x2="497.3032" y1="36.2969" y2="461.2891"/><rect fill="#E2E2F0" height="30.2969" rx="2.5" ry="2.5" style="stroke:#181818;stroke-width:0.5;" width="72.085" x="104.1768" y="5"/><text fill="#000000" font-family="sans-serif" font-size="14" lengthAdjust="spacing" textLength="58.085" x="111.1768" y="24.9951">IYM Jobs</text><rect fill="#E2E2F0" height="30.2969" rx="2.5" ry="2.5" style="stroke:#181818;stroke-width:0.5;" width="72.085" x="104.1768" y="460.2891"/><text fill="#000000" font-family="sans-serif" font-size="14" lengthAdjust="spacing" textLength="58.085" x="111.1768" y="480.2842">IYM Jobs</text><rect fill="#E2E2F0" height="30.2969" rx="2.5" ry="2.5" style="stroke:#181818;stroke-width:0.5;" width="48.6992" x="308.9419" y="5"/><text fill="#000000" font-family="sans-serif" font-size="14" lengthAdjust="spacing" textLength="34.6992" x="315.9419" y="24.9951">ISBM</text><rect fill="#E2E2F0" height="30.2969" rx="2.5" ry="2.5" style="stroke:#181818;stroke-width:0.5;" width="48.6992" x="308.9419" y="460.2891"/><text fill="#000000" font-family="sans-serif" font-size="14" lengthAdjust="spacing" textLength="34.6992" x="315.9419" y="480.2842">ISBM</text><rect fill="#E2E2F0" height="30.2969" rx="2.5" ry="2.5" style="stroke:#181818;stroke-width:0.5;" width="72.2217" x="461.3032" y="5"/><text fill="#000000" font-family="sans-serif" font-size="14" lengthAdjust="spacing" textLength="58.2217" x="468.3032" y="24.9951">Tieto CS</text><rect fill="#E2E2F0" height="30.2969" rx="2.5" ry="2.5" style="stroke:#181818;stroke-width:0.5;" width="72.2217" x="461.3032" y="460.2891"/><text fill="#000000" font-family="sans-serif" font-size="14" lengthAdjust="spacing" textLength="58.2217" x="468.3032" y="480.2842">Tieto CS</text><rect fill="#FFFFFF" height="325.5938" style="stroke:#181818;stroke-width:1;" width="10" x="135.2192" y="125.6953"/><rect fill="#FFFFFF" height="184.7969" style="stroke:#181818;stroke-width:1;" width="10" x="328.2915" y="169.9609"/><rect fill="#FFFFFF" height="29.1328" style="stroke:#181818;stroke-width:1;" width="10" x="492.4141" y="281.4922"/><rect fill="#EEEEEE" height="3" style="stroke:#EEEEEE;stroke-width:1;" width="553.5249" x="0" y="66.8633"/><line style="stroke:#000000;stroke-width:1;" x1="0" x2="553.5249" y1="66.8633" y2="66.8633"/><line style="stroke:#000000;stroke-width:1;" x1="0" x2="553.5249" y1="69.8633" y2="69.8633"/><rect fill="#EEEEEE" height="23.1328" style="stroke:#000000;stroke-width:2;" width="220.3623" x="166.5813" y="56.2969"/><text fill="#000000" font-family="sans-serif" font-size="13" font-weight="bold" lengthAdjust="spacing" textLength="206.3623" x="172.5813" y="72.3638">&#1042;&#1085;&#1077;&#1089;&#1077;&#1085;&#1080;&#1077;/&#1054;&#1073;&#1085;&#1086;&#1074;&#1083;&#1077;&#1085;&#1080;&#1077; &#1082;&#1072;&#1088;&#1090;</text><polygon fill="#181818" points="123.2192,121.6953,133.2192,125.6953,123.2192,129.6953,127.2192,125.6953" style="stroke:#181818;stroke-width:1;"/><line style="stroke:#181818;stroke-width:1;" x1="0" x2="129.2192" y1="125.6953" y2="125.6953"/><text fill="#000000" font-family="sans-serif" font-size="13" lengthAdjust="spacing" textLength="112.0869" x="7" y="105.4966">&#1054;&#1073;&#1085;&#1086;&#1074;&#1080;&#1090;&#1100; &#1082;&#1072;&#1088;&#1090;&#1099;</text><text fill="#000000" font-family="sans-serif" font-size="13" lengthAdjust="spacing" textLength="94.6182" x="7" y="120.6294">&#1087;&#1086;&#1083;&#1100;&#1079;&#1086;&#1074;&#1072;&#1090;&#1077;&#1083;&#1103;</text><polygon fill="#181818" points="316.2915,165.9609,326.2915,169.9609,316.2915,173.9609,320.2915,169.9609" style="stroke:#181818;stroke-width:1;"/><line style="stroke:#181818;stroke-width:1;" x1="145.2192" x2="322.2915" y1="169.9609" y2="169.9609"/><text fill="#000000" font-family="sans-serif" font-size="13" lengthAdjust="spacing" textLength="116.5811" x="152.2192" y="149.7622">&#1047;&#1072;&#1087;&#1088;&#1086;&#1089; &#1082;&#1083;&#1080;&#1077;&#1085;&#1090;&#1086;&#1074;</text><text fill="#000000" font-family="sans-serif" font-size="13" lengthAdjust="spacing" textLength="94.6182" x="152.2192" y="164.895">&#1087;&#1086;&#1083;&#1100;&#1079;&#1086;&#1074;&#1072;&#1090;&#1077;&#1083;&#1103;</text><polygon fill="#181818" points="156.2192,195.0938,146.2192,199.0938,156.2192,203.0938,152.2192,199.0938" style="stroke:#181818;stroke-width:1;"/><line style="stroke:#181818;stroke-width:1;stroke-dasharray:2.0,2.0;" x1="150.2192" x2="327.2915" y1="199.0938" y2="199.0938"/><text fill="#000000" font-family="sans-serif" font-size="13" lengthAdjust="spacing" textLength="159.0723" x="162.2192" y="194.0278">&#1050;&#1083;&#1080;&#1077;&#1085;&#1090;&#1099; &#1087;&#1086;&#1083;&#1100;&#1079;&#1086;&#1074;&#1072;&#1090;&#1077;&#1083;&#1103;</text><path d="M94.1768,214.0938 L170.8008,214.0938 L170.8008,221.2266 L160.8008,231.2266 L94.1768,231.2266 L94.1768,214.0938 " fill="#EEEEEE" style="stroke:#000000;stroke-width:1.5;"/><rect fill="none" height="133.6641" style="stroke:#000000;stroke-width:1.5;" width="449.3481" x="94.1768" y="214.0938"/><text fill="#000000" font-family="sans-serif" font-size="13" font-weight="bold" lengthAdjust="spacing" textLength="31.624" x="109.1768" y="227.1606">loop</text><text fill="#000000" font-family="sans-serif" font-size="11" font-weight="bold" lengthAdjust="spacing" textLength="82.2744" x="185.8008" y="226.3042">[N &#1082;&#1083;&#1080;&#1077;&#1085;&#1090;&#1086;&#1074;]</text><polygon fill="#181818" points="316.2915,248.3594,326.2915,252.3594,316.2915,256.3594,320.2915,252.3594" style="stroke:#181818;stroke-width:1;"/><line style="stroke:#181818;stroke-width:1;" x1="145.2192" x2="322.2915" y1="252.3594" y2="252.3594"/><text fill="#000000" font-family="sans-serif" font-size="13" lengthAdjust="spacing" textLength="120.6626" x="152.2192" y="247.2935">&#1047;&#1072;&#1087;&#1088;&#1086;&#1089; &#1082;&#1072;&#1088;&#1090; Tieto</text><polygon fill="#181818" points="480.4141,277.4922,490.4141,281.4922,480.4141,285.4922,484.4141,281.4922" style="stroke:#181818;stroke-width:1;"/><line style="stroke:#181818;stroke-width:1;" x1="338.2915" x2="486.4141" y1="281.4922" y2="281.4922"/><text fill="#000000" font-family="sans-serif" font-size="13" lengthAdjust="spacing" textLength="135.1226" x="345.2915" y="276.4263">&#1047;&#1072;&#1087;&#1088;&#1086;&#1089; &#1089;&#1087;&#1080;&#1089;&#1082;&#1072; &#1082;&#1072;&#1088;&#1090;</text><polygon fill="#181818" points="349.2915,306.625,339.2915,310.625,349.2915,314.625,345.2915,310.625" style="stroke:#181818;stroke-width:1;"/><line style="stroke:#181818;stroke-width:1;stroke-dasharray:2.0,2.0;" x1="343.2915" x2="496.4141" y1="310.625" y2="310.625"/><text fill="#000000" font-family="sans-serif" font-size="13" lengthAdjust="spacing" textLength="84.7539" x="355.2915" y="305.5591">&#1057;&#1087;&#1080;&#1089;&#1086;&#1082; &#1082;&#1072;&#1088;&#1090;</text><polygon fill="#181818" points="156.2192,335.7578,146.2192,339.7578,156.2192,343.7578,152.2192,339.7578" style="stroke:#181818;stroke-width:1;"/><line style="stroke:#181818;stroke-width:1;stroke-dasharray:2.0,2.0;" x1="150.2192" x2="327.2915" y1="339.7578" y2="339.7578"/><text fill="#000000" font-family="sans-serif" font-size="13" lengthAdjust="spacing" textLength="121.4878" x="162.2192" y="334.6919">&#1057;&#1087;&#1080;&#1089;&#1086;&#1082; &#1082;&#1072;&#1088;&#1090; Tieto</text><path d="M20,361.7578 L84.4429,361.7578 L84.4429,368.8906 L74.4429,378.8906 L20,378.8906 L20,361.7578 " fill="#EEEEEE" style="stroke:#000000;stroke-width:1.5;"/><rect fill="none" height="82.5313" style="stroke:#000000;stroke-width:1.5;" width="238.9009" x="20" y="361.7578"/><text fill="#000000" font-family="sans-serif" font-size="13" font-weight="bold" lengthAdjust="spacing" textLength="19.4429" x="35" y="374.8247">alt</text><text fill="#000000" font-family="sans-serif" font-size="11" font-weight="bold" lengthAdjust="spacing" textLength="145.4385" x="99.4429" y="373.9683">[&#1048;&#1084;&#1077;&#1102;&#1090;&#1089;&#1103; &#1086;&#1073;&#1085;&#1086;&#1074;&#1083;&#1077;&#1085;&#1080;&#1103;]</text><path d="M30,383.8906 L30,438.8906 L248,438.8906 L248,393.8906 L238,383.8906 L30,383.8906 " fill="#87CEEB" style="stroke:#181818;stroke-width:0.5;"/><path d="M238,383.8906 L238,393.8906 L248,393.8906 L238,383.8906 " fill="#87CEEB" style="stroke:#181818;stroke-width:0.5;"/><text fill="#000000" font-family="sans-serif" font-size="13" lengthAdjust="spacing" textLength="197.9009" x="36" y="400.9575">IYM Jobs &#1074;&#1085;&#1086;&#1089;&#1080;&#1090; &#1085;&#1086;&#1074;&#1099;&#1077; &#1082;&#1072;&#1088;&#1090;&#1099;</text><text fill="#000000" font-family="sans-serif" font-size="13" lengthAdjust="spacing" textLength="98.8076" x="36" y="416.0903">&#1080; &#1080;&#1079;&#1084;&#1077;&#1085;&#1077;&#1085;&#1080;&#1103; &#1074;</text><text fill="#000000" font-family="sans-serif" font-size="13" font-weight="bold" lengthAdjust="spacing" textLength="86.3916" x="138.9399" y="416.0903">users_cards</text><text fill="#000000" font-family="sans-serif" font-size="13" lengthAdjust="spacing" textLength="166.9053" x="36" y="431.2231">&#1089; &#1072;&#1082;&#1090;&#1091;&#1072;&#1083;&#1100;&#1085;&#1099;&#1084;&#1080; &#1084;&#1077;&#1090;&#1082;&#1072;&#1084;&#1080;</text><!--SRC=[ZPBBIiDW48NtUOgXxWB5lHWNxKgXRjAD84XiimYM92HfmLqJboqMt2Wk1DyW2iNIDEahpFz6panYx4NHKiZjd6zcpZ- -5KHEp_4jDuB6wKK7phphi07yiq9vqFmjYTdgb9yh2R_ObdGTE_AWRTQKRjlKDCF01ynnhcASqtM1yqDymJUwBV0Tiw-NW4jCrLWbXg4rJwG1E88DvK8bQbghr0GkNLpJbqnDyKCKgKg8bgcPPlKYPsH5TZc7i8Z97JFp4LDSgp4MAcPUnkKn9pD1_aMLqOLwt6pMsETl4dNtAsNWUJwSxnNMEBC_EfN9GM8MkSX8JZdlgYdjDKKMiwksYgcUWa-dfl0W5UQrSXQut7RsxJtlNWW_cQkERRUlRI0aH6iG0JxXYjRZdcABrGp8khCS51hNSZroUICxAAiUc3UthS7GBcUe5XZ8bNC0l2vGOjHaOxlKHFIue3yTpKegL5N83Be-3EqWlEfPGJ_KTH5p-2akoNn7LpxJd9WhPd3Z2RFvKSGqfNIwEovtzma0]--></g></svg>