<svg xmlns="http://www.w3.org/2000/svg" xmlns:xlink="http://www.w3.org/1999/xlink" contentStyleType="text/css" data-diagram-type="CLASS" height="404px" preserveAspectRatio="none" style="width:720px;height:404px;background:#FFFFFF;" version="1.1" viewBox="0 0 720 404" width="720px" zoomAndPan="magnify"><defs/><g><!--class users_applications--><g id="elem_users_applications"><rect codeLine="3" fill="#F1F1F1" height="107.4844" id="users_applications" rx="2.5" ry="2.5" style="stroke:#181818;stroke-width:0.5;" width="136.1406" x="555.1" y="110.03"/><text fill="#000000" font-family="sans-serif" font-size="14" lengthAdjust="spacing" textLength="129.3496" x="558.4955" y="128.0251">users_applications</text><line style="stroke:#181818;stroke-width:0.5;" x1="556.1" x2="690.2406" y1="136.3269" y2="136.3269"/><text fill="#000000" font-family="sans-serif" font-size="14" lengthAdjust="spacing" textLength="46.1289" x="561.1" y="153.322">app_id</text><text fill="#000000" font-family="sans-serif" font-size="14" lengthAdjust="spacing" textLength="50.3125" x="561.1" y="169.6189">user_id</text><line style="stroke:#181818;stroke-width:0.5;" x1="556.1" x2="690.2406" y1="176.9206" y2="176.9206"/><text fill="#000000" font-family="sans-serif" font-size="14" lengthAdjust="spacing" textLength="92.4287" x="561.1" y="193.9157">product_type</text><text fill="#000000" font-family="sans-serif" font-size="14" lengthAdjust="spacing" textLength="124.1406" x="561.1" y="210.2126">application_result</text></g><!--class users_cards--><g id="elem_users_cards"><rect codeLine="10" fill="#F1F1F1" height="107.4844" id="users_cards" rx="2.5" ry="2.5" style="stroke:#181818;stroke-width:0.5;" width="100.457" x="191.17" y="110.27"/><text fill="#000000" font-family="sans-serif" font-size="14" lengthAdjust="spacing" textLength="83.043" x="199.877" y="128.2651">users_cards</text><line style="stroke:#181818;stroke-width:0.5;" x1="192.17" x2="290.627" y1="136.5669" y2="136.5669"/><text fill="#000000" font-family="sans-serif" font-size="14" lengthAdjust="spacing" textLength="50.6953" x="197.17" y="153.562">card_id</text><text fill="#000000" font-family="sans-serif" font-size="14" lengthAdjust="spacing" textLength="50.3125" x="197.17" y="169.8589">user_id</text><line style="stroke:#181818;stroke-width:0.5;" x1="192.17" x2="290.627" y1="177.1606" y2="177.1606"/><text fill="#000000" font-family="sans-serif" font-size="14" lengthAdjust="spacing" textLength="88.457" x="197.17" y="194.1557">masked_pan</text><text fill="#000000" font-family="sans-serif" font-size="14" lengthAdjust="spacing" textLength="55.7744" x="197.17" y="210.4526">account</text></g><!--class credit_cards--><g id="elem_credit_cards"><rect codeLine="17" fill="#F1F1F1" height="107.4844" id="credit_cards" rx="2.5" ry="2.5" style="stroke:#181818;stroke-width:0.5;" width="91.5449" x="48.67" y="110.27"/><text fill="#000000" font-family="sans-serif" font-size="14" lengthAdjust="spacing" textLength="85.5449" x="51.67" y="128.2651">credit_cards</text><line style="stroke:#181818;stroke-width:0.5;" x1="49.67" x2="139.2149" y1="136.5669" y2="136.5669"/><text fill="#000000" font-family="sans-serif" font-size="14" lengthAdjust="spacing" textLength="12.7764" x="54.67" y="153.562">id</text><text fill="#000000" font-family="sans-serif" font-size="14" lengthAdjust="spacing" textLength="50.6953" x="54.67" y="169.8589">card_id</text><line style="stroke:#181818;stroke-width:0.5;" x1="49.67" x2="139.2149" y1="177.1606" y2="177.1606"/><text fill="#000000" font-family="sans-serif" font-size="14" lengthAdjust="spacing" textLength="35.4648" x="54.67" y="194.1557">state</text><text fill="#000000" font-family="sans-serif" font-size="14" lengthAdjust="spacing" textLength="78.1279" x="54.67" y="210.4526">credit_limit</text></g><!--class credit_card_requests--><g id="elem_credit_card_requests"><rect codeLine="24" fill="#F1F1F1" height="107.4844" id="credit_card_requests" rx="2.5" ry="2.5" style="stroke:#181818;stroke-width:0.5;" width="152.0703" x="342.17" y="110.27"/><text fill="#000000" font-family="sans-serif" font-size="14" lengthAdjust="spacing" textLength="146.0703" x="345.17" y="128.2651">credit_card_requests</text><line style="stroke:#181818;stroke-width:0.5;" x1="343.17" x2="493.2403" y1="136.5669" y2="136.5669"/><text fill="#000000" font-family="sans-serif" font-size="14" lengthAdjust="spacing" textLength="12.7764" x="348.17" y="153.562">id</text><text fill="#000000" font-family="sans-serif" font-size="14" lengthAdjust="spacing" textLength="50.6953" x="348.17" y="169.8589">card_id</text><line style="stroke:#181818;stroke-width:0.5;" x1="343.17" x2="493.2403" y1="177.1606" y2="177.1606"/><text fill="#000000" font-family="sans-serif" font-size="14" lengthAdjust="spacing" textLength="35.4648" x="348.17" y="194.1557">state</text><text fill="#000000" font-family="sans-serif" font-size="14" lengthAdjust="spacing" textLength="95.6553" x="348.17" y="210.4526">sap_response</text></g><g id="elem_GMN9"><path d="M532.87,13.57 L532.87,38.7028 A0,0 0 0 0 532.87,38.7028 L619.17,38.7028 L623.17,109.63 L627.17,38.7028 L713.4628,38.7028 A0,0 0 0 0 713.4628,38.7028 L713.4628,23.57 L703.4628,13.57 L532.87,13.57 A0,0 0 0 0 532.87,13.57 " fill="#FEFFDD" style="stroke:#181818;stroke-width:0.5;"/><path d="M703.4628,13.57 L703.4628,23.57 L713.4628,23.57 L703.4628,13.57 " fill="#FEFFDD" style="stroke:#181818;stroke-width:0.5;"/><text fill="#000000" font-family="sans-serif" font-size="13" lengthAdjust="spacing" textLength="159.5928" x="538.87" y="30.6369">&#1047;&#1072;&#1103;&#1074;&#1082;&#1080; &#1087;&#1086;&#1083;&#1100;&#1079;&#1086;&#1074;&#1072;&#1090;&#1077;&#1083;&#1077;&#1081;.</text></g><g id="elem_GMN12"><path d="M6,6 L6,46.2656 A0,0 0 0 0 6,46.2656 L90.17,46.2656 L94.17,106.43 L98.17,46.2656 L182.3335,46.2656 A0,0 0 0 0 182.3335,46.2656 L182.3335,16 L172.3335,6 L6,6 A0,0 0 0 0 6,6 " fill="#FEFFDD" style="stroke:#181818;stroke-width:0.5;"/><path d="M172.3335,6 L172.3335,16 L182.3335,16 L172.3335,6 " fill="#FEFFDD" style="stroke:#181818;stroke-width:0.5;"/><text fill="#000000" font-family="sans-serif" font-size="13" lengthAdjust="spacing" textLength="133.4785" x="12" y="23.0669">&#1058;&#1072;&#1073;&#1083;&#1080;&#1094;&#1072; &#1082;&#1088;&#1077;&#1076;&#1080;&#1090;&#1086;&#1075;&#1086;</text><text fill="#000000" font-family="sans-serif" font-size="13" lengthAdjust="spacing" textLength="155.3335" x="12" y="38.1997">&#1087;&#1088;&#1077;&#1076;&#1089;&#1090;&#1072;&#1074;&#1083;&#1077;&#1085;&#1080;&#1103; &#1082;&#1072;&#1088;&#1090;&#1099;.</text></g><g id="elem_GMN15"><path d="M27.77,281.27 L27.77,397.1997 A0,0 0 0 0 27.77,397.1997 L160.5649,397.1997 A0,0 0 0 0 160.5649,397.1997 L160.5649,291.27 L150.5649,281.27 L98.17,281.27 L94.17,221.09 L90.17,281.27 L27.77,281.27 A0,0 0 0 0 27.77,281.27 " fill="#FEFFDD" style="stroke:#181818;stroke-width:0.5;"/><path d="M150.5649,281.27 L150.5649,291.27 L160.5649,291.27 L150.5649,281.27 " fill="#FEFFDD" style="stroke:#181818;stroke-width:0.5;"/><text fill="#000000" font-family="sans-serif" font-size="13" lengthAdjust="spacing" textLength="37.3115" x="33.77" y="298.3369">state:</text><text fill="#000000" font-family="sans-serif" font-size="13" lengthAdjust="spacing" textLength="88.3784" x="33.77" y="313.4697">- can_request</text><text fill="#000000" font-family="sans-serif" font-size="13" lengthAdjust="spacing" textLength="79.168" x="33.77" y="328.6025">- processing</text><text fill="#000000" font-family="sans-serif" font-size="13" lengthAdjust="spacing" textLength="98.3252" x="33.77" y="343.7353">- not_approved</text><text fill="#000000" font-family="sans-serif" font-size="13" lengthAdjust="spacing" textLength="36.9053" x="33.77" y="358.8681">- paid</text><text fill="#000000" font-family="sans-serif" font-size="13" lengthAdjust="spacing" textLength="111.7949" x="33.77" y="374.001">- in_grace_period</text><text fill="#000000" font-family="sans-serif" font-size="13" lengthAdjust="spacing" textLength="62.3022" x="33.77" y="389.1338">- overdue</text></g><g id="elem_GMN18"><path d="M338.08,6 L338.08,46.2656 A0,0 0 0 0 338.08,46.2656 L414.17,46.2656 L418.17,106.43 L422.17,46.2656 L498.246,46.2656 A0,0 0 0 0 498.246,46.2656 L498.246,16 L488.246,6 L338.08,6 A0,0 0 0 0 338.08,6 " fill="#FEFFDD" style="stroke:#181818;stroke-width:0.5;"/><path d="M488.246,6 L488.246,16 L498.246,16 L488.246,6 " fill="#FEFFDD" style="stroke:#181818;stroke-width:0.5;"/><text fill="#000000" font-family="sans-serif" font-size="13" lengthAdjust="spacing" textLength="119.4312" x="344.08" y="23.0669">&#1047;&#1072;&#1103;&#1074;&#1082;&#1080; &#1085;&#1072; &#1088;&#1072;&#1089;&#1095;&#1077;&#1090;</text><text fill="#000000" font-family="sans-serif" font-size="13" lengthAdjust="spacing" textLength="139.166" x="344.08" y="38.1997">&#1082;&#1088;&#1077;&#1076;&#1080;&#1090;&#1085;&#1086;&#1075;&#1086; &#1083;&#1080;&#1084;&#1080;&#1090;&#1072;.</text></g><g id="elem_GMN21"><path d="M330.79,296.4 L330.79,382.0641 A0,0 0 0 0 330.79,382.0641 L505.5366,382.0641 A0,0 0 0 0 505.5366,382.0641 L505.5366,306.4 L495.5366,296.4 L422.17,296.4 L418.17,221.09 L414.17,296.4 L330.79,296.4 A0,0 0 0 0 330.79,296.4 " fill="#FEFFDD" style="stroke:#181818;stroke-width:0.5;"/><path d="M495.5366,296.4 L495.5366,306.4 L505.5366,306.4 L495.5366,296.4 " fill="#FEFFDD" style="stroke:#181818;stroke-width:0.5;"/><text fill="#000000" font-family="sans-serif" font-size="13" lengthAdjust="spacing" textLength="37.3115" x="336.79" y="313.4669">state:</text><text fill="#000000" font-family="sans-serif" font-size="13" lengthAdjust="spacing" textLength="61.6675" x="336.79" y="328.5997">- pending</text><text fill="#000000" font-family="sans-serif" font-size="13" lengthAdjust="spacing" textLength="62.2705" x="336.79" y="343.7325">- rejected</text><text fill="#000000" font-family="sans-serif" font-size="13" lengthAdjust="spacing" textLength="153.7466" x="336.79" y="358.8653">- cedit_application_sent</text><text fill="#000000" font-family="sans-serif" font-size="13" lengthAdjust="spacing" textLength="59.6743" x="336.79" y="373.9981">- success</text></g><!--link credit_cards to users_cards--><g id="link_credit_cards_users_cards"><path codeLine="32" d="M141.17,164.77 C164.22,164.77 161.12,147.77 184.17,147.77 " fill="none" id="credit_cards-to-users_cards" style="stroke:#181818;stroke-width:1;stroke-dasharray:7.0,7.0;"/><polygon fill="#181818" points="190.17,147.77,181.17,143.77,185.17,147.77,181.17,151.77,190.17,147.77" style="stroke:#181818;stroke-width:1;"/></g><!--reverse link users_cards to credit_card_requests--><g id="link_users_cards_credit_card_requests"><path codeLine="33" d="M298.17,147.77 C321.22,147.77 318.12,164.77 341.17,164.77 " fill="none" id="users_cards-backto-credit_card_requests" style="stroke:#181818;stroke-width:1;stroke-dasharray:7.0,7.0;"/><polygon fill="#181818" points="292.17,147.77,301.17,151.77,297.17,147.77,301.17,143.77,292.17,147.77" style="stroke:#181818;stroke-width:1;"/></g><!--SRC=[ZLDBJiCm4Dtx5Bu0FK35NInZ3yMGniPsa112Abt00gGksNE2KAWedy8L9ZTYdFIJb29O9BPdvhsPz-8S6GrS6QyoO0poQE8vBmBu8AHpcL4o6fi7Vi4ufu0mcZOft-o4e9VpLXSgYdZke2bRuOI7K6IHNNQPbVIweKoxdPn36Kv02oVpnAYKBV8MZVAWJMpnrC0DMKqHeenfdcLnPePcDmLDULf0Y7zJ1UcI94UE056nbfn-VudX-xqC3cElC-Gw-nl4cy5H5xEUQeDbkOt0etNS7kxwI0pliQmcECKtd7Fymazyh-xmXTOf9SOumtTwNdjaWavS7SBsl0mViCH7AfzNrrXoVAj6X7ocuvZOdl2JuLSJggueL5A3HBsWWWbLKxTHDQvkjpeTs1Zjy4Upsju-soFRyvLiEj6zKX22oGTq87mIw-qPw9IJ9Yqc5mCl5GW7tjWKeRpN1VobSEtkbcSB4akwIb9rWxDgp3hA5ursddp1ZpfK_aVYfjjQgYDKeyp3CQXOgr8relq31Rgkb0Y5IbQiMdq3]--></g></svg>