<svg xmlns="http://www.w3.org/2000/svg" xmlns:xlink="http://www.w3.org/1999/xlink" contentStyleType="text/css" data-diagram-type="MINDMAP" height="387px" preserveAspectRatio="none" style="width:1201px;height:387px;background:#FFFFFF;" version="1.1" viewBox="0 0 1201 387" width="1201px" zoomAndPan="magnify"><defs/><g><rect fill="#90EE90" height="36.2969" rx="12.5" ry="12.5" style="stroke:#181818;stroke-width:1.5;" width="189.9756" x="10" y="174.8164"/><text fill="#000000" font-family="sans-serif" font-size="14" lengthAdjust="spacing" textLength="169.9756" x="20" y="197.8115">&#1047;&#1072;&#1103;&#1074;&#1083;&#1077;&#1085;&#1080;&#1077; &#1086;&#1090;&#1087;&#1088;&#1072;&#1074;&#1083;&#1077;&#1085;&#1086;</text><rect fill="#90EE90" height="36.2969" rx="12.5" ry="12.5" style="stroke:#181818;stroke-width:1.5;" width="177.917" x="249.9756" y="90.3711"/><text fill="#000000" font-family="sans-serif" font-size="14" lengthAdjust="spacing" textLength="157.917" x="259.9756" y="113.3662">&#1050;&#1072;&#1088;&#1090;&#1072; &#1087;&#1086;&#1083;&#1091;&#1095;&#1077;&#1085;&#1072; &#1074; &#1052;&#1055;</text><rect fill="#90EE90" height="36.2969" rx="12.5" ry="12.5" style="stroke:#181818;stroke-width:1.5;" width="147.2646" x="477.8926" y="62.2227"/><text fill="#000000" font-family="sans-serif" font-size="14" lengthAdjust="spacing" textLength="127.2646" x="487.8926" y="85.2178">&#1054;&#1090;&#1082;&#1088;&#1099;&#1090; &#1101;&#1082;&#1088;&#1072;&#1085; &#1050;&#1050;</text><rect fill="#90EE90" height="36.2969" rx="12.5" ry="12.5" style="stroke:#181818;stroke-width:1.5;" width="219.4316" x="675.1572" y="48.1484"/><text fill="#000000" font-family="sans-serif" font-size="14" lengthAdjust="spacing" textLength="199.4316" x="685.1572" y="71.1436">&#1050;&#1088;&#1077;&#1076;&#1080;&#1090;&#1085;&#1099;&#1081; &#1083;&#1080;&#1084;&#1080;&#1090; &#1087;&#1086;&#1083;&#1091;&#1095;&#1077;&#1085;</text><rect fill="#90EE90" height="36.2969" rx="12.5" ry="12.5" style="stroke:#181818;stroke-width:1.5;" width="222.8154" x="944.5889" y="20"/><text fill="#000000" font-family="sans-serif" font-size="14" lengthAdjust="spacing" textLength="202.8154" x="954.5889" y="42.9951">&#1050;&#1088;&#1077;&#1076;&#1080;&#1090;&#1085;&#1072;&#1103; &#1072;&#1085;&#1082;&#1077;&#1090;&#1072; &#1086;&#1090;&#1082;&#1088;&#1099;&#1090;&#1072;</text><path d="M894.5889,66.2969 L904.5889,66.2969 C919.5889,66.2969 919.5889,38.1484 934.5889,38.1484 L944.5889,38.1484 " fill="none" style="stroke:#181818;stroke-width:1;"/><rect fill="#FFBBCC" height="36.2969" rx="12.5" ry="12.5" style="stroke:#181818;stroke-width:1.5;" width="244.5674" x="944.5889" y="76.2969"/><text fill="#000000" font-family="sans-serif" font-size="14" lengthAdjust="spacing" textLength="224.5674" x="954.5889" y="99.292">&#1054;&#1096;&#1080;&#1073;&#1082;&#1072; &#1087;&#1088;&#1080; &#1086;&#1090;&#1082;&#1088;&#1099;&#1090;&#1080;&#1080; &#1072;&#1085;&#1082;&#1077;&#1090;&#1099;</text><path d="M894.5889,66.2969 L904.5889,66.2969 C919.5889,66.2969 919.5889,94.4453 934.5889,94.4453 L944.5889,94.4453 " fill="none" style="stroke:#181818;stroke-width:1;"/><path d="M625.1572,80.3711 L635.1572,80.3711 C650.1572,80.3711 650.1572,66.2969 665.1572,66.2969 L675.1572,66.2969 " fill="none" style="stroke:#181818;stroke-width:1;"/><rect fill="#FFBBCC" height="36.2969" rx="12.5" ry="12.5" style="stroke:#181818;stroke-width:1.5;" width="227.375" x="675.1572" y="104.4453"/><text fill="#000000" font-family="sans-serif" font-size="14" lengthAdjust="spacing" textLength="207.375" x="685.1572" y="127.4404">&#1050;&#1088;&#1077;&#1076;&#1080;&#1090;&#1085;&#1099;&#1081; &#1083;&#1080;&#1084;&#1080;&#1090; &#1085;&#1077; &#1074;&#1099;&#1076;&#1072;&#1085;</text><path d="M625.1572,80.3711 L635.1572,80.3711 C650.1572,80.3711 650.1572,122.5938 665.1572,122.5938 L675.1572,122.5938 " fill="none" style="stroke:#181818;stroke-width:1;"/><path d="M427.8926,108.5195 L437.8926,108.5195 C452.8926,108.5195 452.8926,80.3711 467.8926,80.3711 L477.8926,80.3711 " fill="none" style="stroke:#181818;stroke-width:1;"/><rect fill="#FFBBCC" height="36.2969" rx="12.5" ry="12.5" style="stroke:#181818;stroke-width:1.5;" width="202.8613" x="477.8926" y="160.7422"/><text fill="#000000" font-family="sans-serif" font-size="14" lengthAdjust="spacing" textLength="182.8613" x="487.8926" y="183.7373">&#1069;&#1082;&#1088;&#1072;&#1085; &#1050;&#1050; &#1085;&#1077; &#1086;&#1090;&#1082;&#1088;&#1099;&#1074;&#1072;&#1083;&#1089;&#1103;</text><path d="M427.8926,108.5195 L437.8926,108.5195 C452.8926,108.5195 452.8926,178.8906 467.8926,178.8906 L477.8926,178.8906 " fill="none" style="stroke:#181818;stroke-width:1;"/><path d="M199.9756,192.9648 L209.9756,192.9648 C224.9756,192.9648 224.9756,108.5195 239.9756,108.5195 L249.9756,108.5195 " fill="none" style="stroke:#181818;stroke-width:1;"/><rect fill="#FFBBCC" height="36.2969" rx="12.5" ry="12.5" style="stroke:#181818;stroke-width:1.5;" width="283.6211" x="249.9756" y="217.0391"/><text fill="#000000" font-family="sans-serif" font-size="14" lengthAdjust="spacing" textLength="263.6211" x="259.9756" y="240.0342">&#1055;&#1086;&#1089;&#1083;&#1077; &#1087;&#1088;&#1080;&#1083;&#1086;&#1078;&#1077;&#1085;&#1080;&#1077; &#1085;&#1077; &#1086;&#1090;&#1082;&#1088;&#1099;&#1074;&#1072;&#1083;&#1086;&#1089;&#1100;</text><path d="M199.9756,192.9648 L209.9756,192.9648 C224.9756,192.9648 224.9756,235.1875 239.9756,235.1875 L249.9756,235.1875 " fill="none" style="stroke:#181818;stroke-width:1;"/><rect fill="#90EE90" height="36.2969" rx="12.5" ry="12.5" style="stroke:#181818;stroke-width:1.5;" width="154.8115" x="249.9756" y="273.3359"/><text fill="#000000" font-family="sans-serif" font-size="14" lengthAdjust="spacing" textLength="134.8115" x="259.9756" y="296.3311">&#1050;&#1072;&#1088;&#1090;&#1072; &#1076;&#1086;&#1089;&#1090;&#1072;&#1074;&#1083;&#1077;&#1085;&#1072;</text><path d="M199.9756,192.9648 L209.9756,192.9648 C224.9756,192.9648 224.9756,291.4844 239.9756,291.4844 L249.9756,291.4844 " fill="none" style="stroke:#181818;stroke-width:1;"/><rect fill="#FFBBCC" height="36.2969" rx="12.5" ry="12.5" style="stroke:#181818;stroke-width:1.5;" width="270.5303" x="249.9756" y="329.6328"/><text fill="#000000" font-family="sans-serif" font-size="14" lengthAdjust="spacing" textLength="250.5303" x="259.9756" y="352.6279">&#1050;&#1072;&#1088;&#1090;&#1072; &#1085;&#1077; &#1084;&#1086;&#1078;&#1077;&#1090; &#1073;&#1099;&#1090;&#1100; &#1076;&#1086;&#1089;&#1090;&#1072;&#1074;&#1083;&#1077;&#1085;&#1072;</text><path d="M199.9756,192.9648 L209.9756,192.9648 C224.9756,192.9648 224.9756,347.7813 239.9756,347.7813 L249.9756,347.7813 " fill="none" style="stroke:#181818;stroke-width:1;"/><!--SRC=[VPBFIYD14CRl_HG5Ur51SKN4zII9HeW9YcwyY8SsQMURpVI4IK_4cyQ32r4y2YBw1C8O4Xd_P7o5wZVQwZ4cJfJSckhlztrLNRrSrzpNhbGLbzVOrEwFgdJ-QCSNGkq1Nc5eBh6DBzZ57aRO1OnD4z_CCOQ3SiocHhbhuev960A-OOmlvjIS9Legj05ly8wOKUYMW6V2MgO9vi8UAQHdpQwj-ai6tNUnWn5XFTF29w1-8dorXP7O11_Bspd1nk4pTjyRZuVjOFZXaCjbCjbiqkm_2diWkPsHhA8q4Td2mC-qs0W_llkUVUasbJlMWwNH-zJJzCM3R5fBI9EVc4kMekv8Sc8trc-NZZ4-3lVwdOj5pFdOzNOIJVFJTmZJkP-qISJhUwoTyi6-b3d_tcHPq9ViVqksMULAbue5Q0Y_BZq5FsVcPkVcPtxj2yqN9ahgh_8E5PGzjoQh0hHqnIIRMDiiGDqB_BA0YgnhN-u7ck19bkSD3bk1ihebsAW9bLzP_oZ0gcf8trEkK9hbTuf3mSByT4Pgs1O-jG4xHROY3dXGrKIKlOfKpXAKVkUc5rc1AoVW3daBnR8U-Vf7TBVz7m00]--></g></svg>